SplineFontDB: 3.0
FontName: LinBiolinumOI
FullName: Linux Biolinum O Italic
FamilyName: Linux Biolinum O
Weight: Book
Copyright: Linux Libertine by Philipp H. Poll,\nOpen Font under Terms of following Free Software Licenses:\nGPL (General Public License) with font-exception and OFL (Open Font License).\nCreated with FontForge (http://fontforge.sf.net)\nSept 2003, 2004, 2005, 2006, 2007, 2008, 2009, 2010, 2011,2012
UComments: "2003-08-29: Created.+AAoA-2004-07-25: v(1.0) release candidate+AAoA-2005-12-28: v(1.1.0) stable+AAoA-2006-01-01: v(2.0.0) stable+AAoA-2006-09-05: v(2.2.0) stable+AAoA-2006-12-04: v(2.3.0) stable+AAoA-2007-03-11: v(2.4.0) stable+AAoA-2007-12-00: v(2.7.0) stable+AAoA-2008-06-00: v(2.8.14) stable+AAoA" 
Version: 1.1.3
ItalicAngle: -12
UnderlinePosition: -98
UnderlineWidth: 40
Ascent: 754
Descent: 246
LayerCount: 2
Layer: 0 0 "Back"  1
Layer: 1 0 "Fore"  0
XUID: [1021 993 1524925707 2876416]
FSType: 0
OS2Version: 3
OS2_WeightWidthSlopeOnly: 0
OS2_UseTypoMetrics: 0
CreationTime: 1156455862
ModificationTime: 1341180415
PfmFamily: 33
TTFWeight: 400
TTFWidth: 5
LineGap: 0
VLineGap: 0
OS2TypoAscent: 894
OS2TypoAOffset: 0
OS2TypoDescent: -246
OS2TypoDOffset: 0
OS2TypoLinegap: 0
OS2WinAscent: 894
OS2WinAOffset: 0
OS2WinDescent: 246
OS2WinDOffset: 0
HheadAscent: 894
HheadAOffset: 0
HheadDescent: -246
HheadDOffset: 0
OS2FamilyClass: 2050
OS2Vendor: 'PfEd'
Lookup: 3 0 0 "'aalt' Alle Alternativen zeigen"  {"'aalt' Alle Alternativen zeigen 1"  } ['aalt' ('DFLT' <'dflt' > 'cyrl' <'dflt' > 'grek' <'dflt' > 'latn' <'AZE ' 'CRT ' 'DEU ' 'MOL ' 'ROM ' 'TRK ' 'dflt' > ) ]
Lookup: 1 0 0 "'locl' Localized Forms Romaenisch"  {"'locl' Localized Forms Romaenisch 1"  } ['locl' ('latn' <'MOL ' 'ROM ' > ) ]
Lookup: 1 0 0 "'smcp' Gemeine nach Kapitaelchen i > i.sc"  {"'smcp' Gemeine nach Kapitaelchen i > i.sc 1"  } ['smcp' ('DFLT' <'dflt' > 'cyrl' <'dflt' > 'grek' <'dflt' > 'latn' <'DEU ' 'MOL ' 'ROM ' 'dflt' > ) ]

StartChar: exclam
Encoding: 33 33 0
Width: 228
VWidth: 999
Flags: HW
HStem: -10 112<93.2029 155.087> 638 20G<241.862 266.362>
VStem: 142.1 29.5<190.482 260.216>
DStem2: 67.2031 48 179.203 48 0.211368 0.977407<-23.9395 41.049 409.106 615.177>
LayerCount: 2
Fore
SplineSet
252.9 658 m 0
 279.9 658 303.9 635 293.3 585 c 0
 279.5 520 254.6 478 226.3 392 c 0
 190.3 284 176.6 224 171.6 210 c 0
 168.3 199 163.4 190 153.4 190 c 0
 142.4 190 141.8 197 142.1 203 c 0
 144.6 224 158.7 314 167.3 392 c 0
 177 480 168.4 515 183.3 585 c 0
 194.8 639 230.9 658 252.9 658 c 0
66.4 44 m 1
 67.2 48 l 1
 82.1 74.5 99.8 89.8 132.7 102 c 1
 136.7 102 l 1
 163.5 91.5 176 76.2 179.2 48 c 1
 178.4 44 l 1
 161.3 11.8 142.6 -3 112.9 -10 c 1
 108.9 -10 l 1
 79.1 -3 68 10.5 66.4 44 c 1
EndSplineSet
Colour: ff80cc
EndChar

StartChar: quotedbl
Encoding: 34 34 1
Width: 336
VWidth: 999
Flags: HW
HStem: 426 218
VStem: 179.5 27.9<430 462.17> 189.3 89.6<554.435 627.25> 305.8 27.9<431 463.17> 315.5 89.6<555.435 628.25>
LayerCount: 2
Fore
SplineSet
305.8 427 m 1
 305.8 427 313.6 586 315.5 595 c 0
 320.2 617 347.1 645 377.1 645 c 0
 403.1 645 408.5 628 405.1 612 c 0
 401.7 596 333.7 431 333.7 431 c 1
 305.8 427 l 1
179.5 426 m 1
 179.5 426 187.4 585 189.3 594 c 0
 194 616 220.9 644 250.9 644 c 0
 276.9 644 282.3 627 278.9 611 c 0
 275.5 595 207.4 430 207.4 430 c 1
 179.5 426 l 1
EndSplineSet
Colour: ff00ff
EndChar

StartChar: numbersign
Encoding: 35 35 2
Width: 440
VWidth: 487
Flags: HW
HStem: 183 48<81.1006 153.897 205.101 296.897 348.101 420.897> 341 49<140.897 212.481 263.897 356.481 406.897 479.481>
DStem2: 90.7637 13 123.764 13 0.349836 0.936811<11.5446 181.344 244.224 349.855 413.746 583.546> 234.764 13 267.764 13 0.346824 0.93793<11.4452 180.998 243.777 349.856 413.3 583.199>
LayerCount: 2
Fore
SplineSet
316.1 231 m 1
 356.5 341 l 1
 246.5 341 l 1
 205.1 231 l 1
 316.1 231 l 1
389.5 341 m 1
 348.1 231 l 1
 438.1 231 l 1
 420.9 183 l 1
 331.9 183 l 1
 267.8 13 l 1
 234.8 13 l 1
 296.9 183 l 1
 187.9 183 l 1
 123.8 13 l 1
 90.8 13 l 1
 153.9 183 l 1
 63.9 183 l 1
 81.1 231 l 1
 172.1 231 l 1
 212.5 341 l 1
 122.5 341 l 1
 140.9 390 l 1
 230.9 390 l 1
 294 560 l 1
 328 560 l 1
 263.9 390 l 1
 374.9 390 l 1
 437 560 l 1
 470 560 l 1
 406.9 390 l 1
 497.9 390 l 1
 479.5 341 l 1
 389.5 341 l 1
EndSplineSet
EndChar

StartChar: dollar
Encoding: 36 36 3
Width: 440
VWidth: 999
Flags: HW
HStem: -10 38<135.798 275.362> 537 35<258.278 378.882>
VStem: 424.8 43.9<483.94 496.704>
LayerCount: 2
Fore
SplineSet
204 28 m 1
 252.7 257.4 l 1
 184.8 287.9 117.3 330.6 136.7 422 c 0
 155.1 508.4 245.5 564.9 319.4 571.4 c 1
 331.3 627 l 1
 365.3 627 l 1
 353.5 571.5 l 1
 443.1 567 467.3 533 467.3 533 c 2
 468.7 530 l 1
 455.2 504 443.6 478 434 447 c 1
 424.8 446 l 1
 414.2 491.5 390.5 524.9 345.6 534.3 c 1
 301.5 327.2 l 1
 368 301.1 445.4 260.7 424.4 162 c 0
 408.1 85.3 319.1 13 230.8 -5.5 c 1
 214.8 -81 l 1
 180.8 -81 l 1
 195.9 -9.9 l 1
 193.5 -10 191.2 -10 188.9 -10 c 0
 82.9 -10 40.4 30 40.4 30 c 1
 39 33 l 1
 51.5 59 64.5 87 75.1 118 c 1
 83.3 119 l 1
 96.8 65.3 141.5 28.4 204 28 c 1
270.4 340.7 m 1
 312.1 536.9 l 1
 258 534.3 216.5 496.1 205.6 445 c 0
 193.6 388.7 235.3 358.1 270.4 340.7 c 1
283.8 243.7 m 1
 238.7 31.6 l 1
 286.8 41.8 331.7 74.2 343.8 131 c 0
 358.3 199.2 325.3 224.3 283.8 243.7 c 1
EndSplineSet
EndChar

StartChar: percent
Encoding: 37 37 4
Width: 637
VWidth: 999
Flags: HW
HStem: -12 29<454.086 519.531> 225 31<532.396 599.145> 303 29<199.133 262.986> 484 37<387.995 572.321> 540 31<277.724 344.8>
DStem2: 102.638 3 133.449 -12 0.682124 0.731237<10.0487 682.996 722.277 782.236>
LayerCount: 2
Fore
SplineSet
449.6 83 m 0
 438.5 31 461.6 17 480.6 17 c 0
 535.6 17 591 108 602.9 164 c 0
 614 216 584.8 225 570.8 225 c 0
 521.8 225 461.9 141 449.6 83 c 0
400.8 98 m 0
 416.7 173 492.4 256 566.4 256 c 0
 606.4 256 648.6 238 633.1 165 c 0
 618.9 98 551.4 -12 468.4 -12 c 0
 407.4 -12 389.5 45 400.8 98 c 0
474.7 521 m 0
 516.7 521 596.3 533 636.2 575 c 1
 664.8 559 l 1
 133.4 -12 l 1
 102.6 3 l 1
 567.9 503 l 1
 526.7 488 486.9 484 456.9 484 c 0
 433.9 484 398 494 381.3 505 c 1
 381.8 498 380.9 489 379 480 c 0
 365.4 416 297.4 303 213.4 303 c 0
 151.4 303 135.8 361 146.6 412 c 0
 163 489 239.4 571 311.4 571 c 0
 339.4 571 365.6 558 373.1 546 c 1
 421.8 521 456.7 521 474.7 521 c 0
194.6 398 m 0
 183.5 346 207.6 332 225.6 332 c 0
 280.6 332 335.5 421 347.8 479 c 0
 358.4 529 333.8 540 315.8 540 c 0
 266.8 540 206.9 456 194.6 398 c 0
EndSplineSet
EndChar

StartChar: parenleft
Encoding: 40 40 5
Width: 300
VWidth: 999
Flags: HW
LayerCount: 2
Fore
SplineSet
97.6 252 m 0
 137.1 438 265.6 605 406.3 707 c 1
 425.5 689 l 1
 385.8 653 236.5 515 180.6 252 c 0
 124.7 -11 214.4 -149 239.3 -187 c 1
 212.6 -204 l 1
 42.9 -24 88 207 97.6 252 c 0
EndSplineSet
Substitution2: "'c2sc' Versale nach Kapitaelchen 1" parenleft.sc
AlternateSubs2: "'aalt' Alle Alternativen zeigen 1" parenleft.sc
Substitution2: "'sinf' Wissenschaftliche Indices 1" parenleft.inferior
Substitution2: "'sups' Hochgestellte 1" parenleft.superior
Substitution2: "'case' Versalformen 1" parenleft.sc
EndChar

StartChar: parenright
Encoding: 41 41 6
Width: 300
VWidth: 999
Flags: HW
LayerCount: 2
Fore
SplineSet
309.6 252 m 0
 270.1 66 141.6 -101 0.9 -203 c 1
 -18.3 -185 l 1
 21.4 -149 170.7 -11 226.6 252 c 0
 282.5 515 192.8 653 167.9 691 c 1
 194.5 708 l 1
 364.2 528 319.2 297 309.6 252 c 0
EndSplineSet
Substitution2: "'c2sc' Versale nach Kapitaelchen 1" parenright.sc
AlternateSubs2: "'aalt' Alle Alternativen zeigen 1" parenright.sc
Substitution2: "'sinf' Wissenschaftliche Indices 1" parenright.inferior
Substitution2: "'sups' Hochgestellte 1" parenright.superior
Substitution2: "'case' Versalformen 1" parenright.sc
Colour: ff00ff
EndChar

StartChar: asterisk
Encoding: 42 42 7
Width: 433
VWidth: 999
Flags: HMW
LayerCount: 2
Fore
SplineSet
318.5 567 m 1
 306.1 570 292.4 571 277.4 571 c 0
 228.4 571 197.8 578 204.2 608 c 0
 207.2 622 219.6 638 243.6 638 c 0
 277.6 638 288.6 605 328.8 587 c 1
 333.1 626 319.8 653 325.3 679 c 0
 329.8 700 345.6 718 363.6 718 c 0
 381.6 718 394.3 707 389.2 683 c 0
 383.5 656 358 616 349.6 586 c 1
 399.9 606 422.6 638 455.6 638 c 0
 482.6 638 485.3 618 483.2 608 c 0
 476.8 578 440.4 571 406.4 571 c 0
 387.4 571 369.1 570 350.5 567 c 1
 376.6 530 423.5 520 415 480 c 0
 411.2 462 393.9 451 379.9 451 c 0
 340.9 451 347.7 516 331 555 c 1
 296.4 510 276.9 451 238.9 451 c 0
 221.9 451 212.6 464 215.8 479 c 0
 224.9 522 277.6 530 318.5 567 c 1
EndSplineSet
EndChar

StartChar: plus
Encoding: 43 43 8
Width: 527
VWidth: 999
Flags: HMW
HStem: 208 49<66 238 289 461>
VStem: 238 51<34 208 257 431>
LayerCount: 2
Fore
SplineSet
343.6 257 m 1
 515.6 257 l 1
 505.2 208 l 1
 333.2 208 l 1
 296.2 34 l 1
 245.2 34 l 1
 282.2 208 l 1
 110.2 208 l 1
 120.6 257 l 1
 292.6 257 l 1
 329.6 431 l 1
 380.6 431 l 1
 343.6 257 l 1
EndSplineSet
AlternateSubs2: "'aalt' Alle Alternativen zeigen 1" plus.superior plus.inferior uni2098
Substitution2: "'sinf' Wissenschaftliche Indices 1" plus.inferior
Substitution2: "'sups' Hochgestellte 1" plus.superior
EndChar

StartChar: slash
Encoding: 47 47 9
Width: 323
VWidth: 999
Flags: HW
HStem: 626 20G<378.337 430.312>
LayerCount: 2
Fore
SplineSet
430.3 646 m 1
 43.5 -59 l 1
 2.5 -59 l 1
 389.3 646 l 1
 430.3 646 l 1
EndSplineSet
Ligature2: "'frac' Brueche 1" uni2215
AlternateSubs2: "'aalt' Alle Alternativen zeigen 1" uni2215
EndChar

StartChar: one
Encoding: 49 49 10
Width: 444
VWidth: 1054
Flags: HW
HStem: -3 21G<226 271 271 319>
VStem: 226 93<0 78.1485>
LayerCount: 2
Fore
SplineSet
348 189 m 2
 333 110 324 60 319 0 c 1
 317 -3 l 1
 317 -3 290 0 271 0 c 0
 254 0 227 -3 227 -3 c 1
 226 0 l 1
 244 57 256 111 271 189 c 2
 319 437 l 2
 326 473 333 513 316 513 c 0
 297 513 248 502 204 497 c 1
 204 526 l 1
 284 550 364 589 430 610 c 1
 434 610 437 610 436 605 c 0
 431 591 418 551 397 443 c 2
 348 189 l 2
EndSplineSet
AlternateSubs2: "'aalt' Alle Alternativen zeigen 1" one.oldstyle one.superior one.fitted
Substitution2: "'sups' Hochgestellte 1" one.superior
Substitution2: "'sinf' Wissenschaftliche Indices 1" one.inferior
Substitution2: "'pnum' Proportionalziffern 1" one.fitted
Substitution2: "'onum' Minuskelziffern 1" one.taboldstyle
EndChar

StartChar: two
Encoding: 50 50 11
Width: 444
VWidth: 514
Flags: HW
HStem: -5 80<185.157 419.2> 0 67<177.954 419.2> 548 62<234.091 356.13>
VStem: 381.8 88.3<377.92 521.789>
LayerCount: 2
Fore
SplineSet
307.8 548 m 0
 280.9 548 255 544 227.2 521 c 0
 201.3 499 185.9 479 168.6 449 c 1
 156.2 450 l 1
 144.6 519 l 1
 170.5 549 234.8 610 322.2 610 c 0
 419.2 610 470.1 546.3 470.1 473 c 0
 470.1 388 425.9 336 379 278 c 0
 322.3 207.9 254.5 149 196.9 97 c 0
 188.4 89.4 176.2 78 176.2 68.4 c 0
 176.2 67.2 176.3 66.1 176.7 65 c 1
 203.3 67 221.3 67 255 67 c 0
 347.2 67 377 70 431.7 75 c 1
 426.9 62 425 49 422.1 36 c 0
 419.2 23 419.2 8 419.2 -5 c 1
 351 -2 322.2 0 253.1 0 c 0
 183 0 142.1 -3 71.1 -5 c 1
 68.2 1.7 66.1 12.9 66.1 24 c 0
 66.1 32.4 67.3 40.7 70.2 47 c 1
 123.6 93.7 245.5 189 329 301 c 0
 368.2 353.6 381.8 408 381.8 464.5 c 0
 381.8 516 340.7 548 307.8 548 c 0
EndSplineSet
AlternateSubs2: "'aalt' Alle Alternativen zeigen 1" two.oldstyle two.superior two.fitted
Substitution2: "'sups' Hochgestellte 1" two.superior
Substitution2: "'sinf' Wissenschaftliche Indices 1" two.inferior
Substitution2: "'pnum' Proportionalziffern 1" two.fitted
Substitution2: "'onum' Minuskelziffern 1" two.taboldstyle
EndChar

StartChar: three
Encoding: 51 51 12
Width: 444
VWidth: 514
Flags: HW
HStem: -10 39<142.008 272.416> 300 39<212.22 315.007> 571 39<251.514 357.909>
VStem: 353.8 81.7<119.692 266.107> 380.1 83.9<420.562 552.735>
LayerCount: 2
Fore
SplineSet
208 29 m 0
 230.5 29 276.5 38.6 311.2 80 c 0
 331.9 104.7 353.8 149.6 353.8 201.9 c 0
 353.8 228.6 346.5 251.8 331 268 c 0
 309 291 275 300 245 300 c 0
 237 300 217 300 205 298 c 1
 213 342 l 1
 226 340 236 339 247 339 c 0
 302.8 339 341.4 367.7 361 409 c 0
 370.8 429.7 380.1 458.8 380.1 489.6 c 0
 380.1 540.2 351.1 571 319 571 c 0
 263 571 227 542 195 486 c 1
 181 487 l 1
 172 551 l 1
 176 554 l 1
 203 576 262 610 334 610 c 0
 416.9 610 464 563.9 464 502.8 c 0
 464 455.3 444.6 418.3 421.6 390 c 0
 394.7 356.9 358.2 333.9 329 327 c 1
 329 322 l 1
 391.5 315.8 435.5 271.6 435.5 207.2 c 0
 435.5 136.6 397.7 84.6 358 51.1 c 0
 308.4 9.3 245.2 -10 199 -10 c 0
 124 -10 88 16 67 38 c 1
 65 41 l 1
 99 116 l 1
 113 117 l 1
 128 59 134 29 208 29 c 0
EndSplineSet
AlternateSubs2: "'aalt' Alle Alternativen zeigen 1" three.oldstyle three.superior three.fitted
Substitution2: "'sups' Hochgestellte 1" three.superior
Substitution2: "'sinf' Wissenschaftliche Indices 1" three.inferior
Substitution2: "'pnum' Proportionalziffern 1" three.fitted
Substitution2: "'onum' Minuskelziffern 1" three.taboldstyle
EndChar

StartChar: four
Encoding: 52 52 13
Width: 444
VWidth: 514
Flags: HW
HStem: -3 21G<266 313 347.5 352.5> 148 50<118 303 388 454.244>
VStem: 266 89<-1 76.1096>
LayerCount: 2
Fore
SplineSet
303 148 m 1
 105 148 l 2
 70 148 49 153 52 168 c 0
 54 178 59 189 72 207 c 0
 139 296 321 516 396 600 c 0
 396 601 400 604 400 604 c 1
 400 604 417 600 432 600 c 0
 446 600 461 604 470 604 c 0
 471 604 471 602 471 600 c 0
 457 554 443 485 437 452 c 2
 388 198 l 1
 449 198 l 2
 459 198 462 191 460 182 c 0
 458 171 439 148 426 148 c 2
 426 148 413 148 378 148 c 1
 367 90 362 58 355 0 c 0
 355 -1 353 -3 352 -3 c 0
 343 -3 328 0 313 0 c 0
 298 0 267 -3 267 -3 c 1
 266 0 l 1
 282 51 288 71 303 148 c 1
374 512 m 1
 118 198 l 1
 313 198 l 1
 374 512 l 1
EndSplineSet
AlternateSubs2: "'aalt' Alle Alternativen zeigen 1" four.oldstyle four.superior four.fitted
Substitution2: "'sups' Hochgestellte 1" four.superior
Substitution2: "'sinf' Wissenschaftliche Indices 1" four.inferior
Substitution2: "'pnum' Proportionalziffern 1" four.fitted
Substitution2: "'onum' Minuskelziffern 1" four.taboldstyle
EndChar

StartChar: five
Encoding: 53 53 14
Width: 444
VWidth: 514
Flags: HMW
LayerCount: 2
Fore
SplineSet
191 -10 m 0
 118 -10 77 24 57 46 c 1
 54 49 l 1
 90 129 l 1
 104 130 l 1
 124 70 129 30 201 30 c 0
 266 30 321 87 339 179 c 0
 343 199.5 344.8 218.1 344.8 234.6 c 0
 344.8 305.8 310.3 340 260 340 c 0
 215 340 176 325 135 309 c 1
 129 312 l 1
 217 606 l 1
 249 603 289 600 325 600 c 0
 376 600 428 603 484 610 c 1
 490 607 l 1
 462 539 l 1
 422 534 389 533 360 533 c 0
 315 533 275 537 240 542 c 1
 185 365 l 1
 208 373 254 380 293 380 c 0
 385 380 431.2 316.9 431.2 238.3 c 0
 431.2 224.6 429.8 210.4 427 196 c 0
 404 78 305 -10 191 -10 c 0
EndSplineSet
AlternateSubs2: "'aalt' Alle Alternativen zeigen 1" five.oldstyle five.superior five.fitted
Substitution2: "'sups' Hochgestellte 1" five.superior
Substitution2: "'sinf' Wissenschaftliche Indices 1" five.inferior
Substitution2: "'pnum' Proportionalziffern 1" five.fitted
Substitution2: "'onum' Minuskelziffern 1" five.taboldstyle
EndChar

StartChar: six
Encoding: 54 54 15
Width: 444
VWidth: 514
Flags: HW
HStem: -9 36<194.731 297.506> 318 40<230.892 339.048> 583 28<424.061 496>
VStem: 81.1 76.1<62.769 277.884> 367.9 84.3<126.712 291.493>
LayerCount: 2
Fore
SplineSet
175 277 m 1
 172 267 169 250 167 240 c 0
 160.2 205.3 157.2 175.9 157.2 151.3 c 0
 157.2 49.6 208 27 249 27 c 0
 295 27 342 63 363 173 c 0
 365.7 186.1 367.9 202.6 367.9 219.7 c 0
 367.9 266.5 351.1 318 280 318 c 0
 259 318 220 317 175 277 c 1
496 583 m 1
 428 576 371 558 313 509 c 0
 258 462 209 391 182 306 c 1
 211 336 270 358 308 358 c 0
 428.5 358 452.2 274.1 452.2 216.2 c 0
 452.2 202 450.8 189.4 449 180 c 0
 435 108 372 -9 232 -9 c 0
 169.1 -9 81.1 21.3 81.1 159.1 c 0
 81.1 183.5 83.8 211.4 90 243 c 0
 109 340 161 435 245 508 c 0
 324 577 399 605 499 611 c 1
 496 583 l 1
EndSplineSet
AlternateSubs2: "'aalt' Alle Alternativen zeigen 1" six.oldstyle six.superior six.fitted
Substitution2: "'sups' Hochgestellte 1" six.superior
Substitution2: "'sinf' Wissenschaftliche Indices 1" six.inferior
Substitution2: "'pnum' Proportionalziffern 1" six.fitted
Substitution2: "'onum' Minuskelziffern 1" six.taboldstyle
EndChar

StartChar: seven
Encoding: 55 55 16
Width: 444
VWidth: 514
Flags: HW
HStem: -13 21G<116 189> 525 75<204.332 432>
LayerCount: 2
Fore
SplineSet
432 525 m 1
 370 527 232 526 160 516 c 1
 165 531 171 550 174 565 c 0
 177 580 176 592 177 607 c 1
 217 601 302 600 445 600 c 0
 475 600 493 605 508 610 c 1
 522 600 l 1
 361 327 277 161 189 -9 c 1
 118 -13 l 1
 116 -7 l 1
 209 143 320 332 432 525 c 1
EndSplineSet
AlternateSubs2: "'aalt' Alle Alternativen zeigen 1" seven.oldstyle seven.superior seven.fitted
Substitution2: "'sups' Hochgestellte 1" seven.superior
Substitution2: "'sinf' Wissenschaftliche Indices 1" seven.inferior
Substitution2: "'pnum' Proportionalziffern 1" seven.fitted
Substitution2: "'onum' Minuskelziffern 1" seven.taboldstyle
EndChar

StartChar: nine
Encoding: 57 57 17
Width: 444
VWidth: 514
Flags: HW
HStem: -11 28<81 152.939> 242 40<237.952 346.108> 573 36<279.494 382.269>
VStem: 124.8 84.3<308.507 473.288> 419.8 76.1<322.116 537.231>
LayerCount: 2
Fore
SplineSet
402 323 m 1
 405 333 408 350 410 360 c 0
 416.8 394.7 419.8 424.1 419.8 448.7 c 0
 419.8 550.4 369 573 328 573 c 0
 282 573 235 537 214 427 c 0
 211.3 413.9 209.1 397.4 209.1 380.3 c 0
 209.1 333.5 225.9 282 297 282 c 0
 318 282 357 283 402 323 c 1
81 17 m 1
 149 24 206 42 264 91 c 0
 319 138 368 209 395 294 c 1
 366 264 307 242 269 242 c 0
 148.5 242 124.8 325.9 124.8 383.8 c 0
 124.8 398 126.2 410.6 128 420 c 0
 142 492 205 609 345 609 c 0
 407.9 609 495.9 578.7 495.9 440.9 c 0
 495.9 416.5 493.2 388.6 487 357 c 0
 468 260 416 165 332 92 c 0
 253 23 178 -5 78 -11 c 1
 81 17 l 1
EndSplineSet
AlternateSubs2: "'aalt' Alle Alternativen zeigen 1" nine.oldstyle nine.superior nine.fitted
Substitution2: "'sups' Hochgestellte 1" nine.superior
Substitution2: "'sinf' Wissenschaftliche Indices 1" nine.inferior
Substitution2: "'pnum' Proportionalziffern 1" nine.fitted
Substitution2: "'onum' Minuskelziffern 1" nine.taboldstyle
Colour: ff00ff
EndChar

StartChar: colon
Encoding: 58 58 18
Width: 220
VWidth: 999
Flags: HW
HStem: 39 112<107.618 169.502> 302 112<163.52 225.405>
VStem: 80.8 168.8
LayerCount: 2
Fore
SplineSet
136.7 356 m 1
 137.5 360 l 1
 152.4 386.5 170.1 401.8 203 414 c 1
 207 414 l 1
 233.8 403.5 246.4 388.2 249.6 360 c 1
 248.7 356 l 1
 231.6 323.8 212.9 309 183.2 302 c 1
 179.2 302 l 1
 149.4 309 138.3 322.5 136.7 356 c 1
80.8 93 m 1
 81.6 97 l 1
 96.5 123.5 114.2 138.8 147.1 151 c 1
 151.1 151 l 1
 177.9 140.5 190.4 125.2 193.6 97 c 1
 192.8 93 l 1
 175.7 60.8 157 46 127.3 39 c 1
 123.3 39 l 1
 93.5 46 82.4 59.5 80.8 93 c 1
EndSplineSet
Colour: ff00ff
EndChar

StartChar: less
Encoding: 60 60 19
Width: 487
VWidth: 999
Flags: HW
HStem: 73 331
LayerCount: 2
Fore
SplineSet
172.8 239 m 1
 465.1 123 l 1
 454.5 73 l 1
 94.7 215 l 1
 104.9 263 l 1
 524.9 404 l 1
 514.2 354 l 1
 172.8 239 l 1
EndSplineSet
EndChar

StartChar: equal
Encoding: 61 61 20
Width: 527
VWidth: 999
Flags: HW
HStem: 144 49<107.023 491.608> 269 49<133.593 518.178>
LayerCount: 2
Fore
SplineSet
528.6 318 m 1
 518.2 269 l 1
 123.2 269 l 1
 133.6 318 l 1
 528.6 318 l 1
502 193 m 1
 491.6 144 l 1
 96.6 144 l 1
 107 193 l 1
 502 193 l 1
EndSplineSet
AlternateSubs2: "'aalt' Alle Alternativen zeigen 1" equal.superior
Substitution2: "'sinf' Wissenschaftliche Indices 1" equal.inferior
Substitution2: "'sups' Hochgestellte 1" equal.superior
EndChar

StartChar: greater
Encoding: 62 62 21
Width: 487
VWidth: 999
Flags: HW
HStem: 71 331
LayerCount: 2
Fore
SplineSet
416.2 236 m 1
 123.8 352 l 1
 134.4 402 l 1
 494.3 260 l 1
 484.1 212 l 1
 64.1 71 l 1
 74.7 121 l 1
 416.2 236 l 1
EndSplineSet
Colour: ff00ff
EndChar

StartChar: question
Encoding: 63 63 22
Width: 405
VWidth: 487
Flags: HW
HStem: -10 112<160.203 222.087> 619 40<263.17 377.258>
VStem: 133.4 112<13.6367 75.2799>
LayerCount: 2
Fore
SplineSet
326.6 619 m 0
 270.6 619 219.2 570 183.6 525 c 1
 170.8 526 l 1
 169 593 l 1
 172.9 597 l 1
 201.8 617.5 271.6 659 344.1 659 c 0
 446.1 659 496.3 599 477 508 c 0
 460.2 429 391.8 385 337.6 351 c 0
 311 334 287.6 318 275 301 c 0
 256.7 276 246.6 252 241.5 228 c 2
 232.1 184 l 2
 230.6 177 225 174 217 174 c 0
 209 174 204.6 177 206.1 184 c 2
 215.9 230 l 2
 225 273 239.6 332 317.1 391 c 0
 365 428 391.1 457 401.1 504 c 0
 414.9 569 383.6 619 326.6 619 c 0
133.4 44 m 1
 134.2 48 l 1
 149.1 74.5 166.8 89.8 199.7 102 c 1
 203.7 102 l 1
 230.5 91.5 243 76.2 246.2 48 c 1
 245.4 44 l 1
 228.3 11.8 209.6 -3 179.9 -10 c 1
 175.9 -10 l 1
 146.1 -3 135 10.5 133.4 44 c 1
EndSplineSet
Colour: ff80cc
EndChar

StartChar: at
Encoding: 64 64 23
Width: 895
VWidth: 999
Flags: HMW
HStem: -158 33<366.698 569.227> 27 43<368.151 451.044> 27 35<536.5 668.322> 379 31<449.098 547.769> 581 30<366.475 546.302>
VStem: 59 80<106.897 345.058> 273 73<90.7683 252.641> 760 79<177.345 388.516>
LayerCount: 2
Fore
SplineSet
636.2 316 m 0
 644.3 354 620.6 379 584.6 379 c 0
 567.6 379 522.7 370 486.1 339 c 0
 424.3 288 393.6 224 380.4 162 c 0
 370.2 114 375.9 70 438.9 70 c 0
 473.9 70 535 127 581.5 200 c 0
 601.1 231 629 282 636.2 316 c 0
598.7 74 m 0
 596.6 64 605.2 62 607.2 62 c 0
 709.2 62 783.2 109 818.5 275 c 0
 862.3 481 707.5 581 582.5 581 c 0
 430.5 581 240.6 478 190.2 241 c 0
 158.3 91 188.4 -125 446.4 -125 c 0
 531.4 -125 598.4 -102 661.5 -59 c 1
 670.6 -77 l 1
 600.8 -123 533.4 -158 420.4 -158 c 0
 181.4 -158 61.1 10 106.4 223 c 0
 152.1 438 373.9 611 598.9 611 c 0
 813.9 611 938.6 469 898.9 282 c 0
 874.7 168 774.7 27 556.7 27 c 0
 527.7 27 526.1 52 529.5 68 c 0
 532.7 83 544.5 106 557.8 131 c 1
 556.1 132 l 1
 496.4 58 436.2 29 401.2 29 c 0
 301.2 29 297 113 305.5 153 c 0
 335.9 296 487.1 410 593.1 410 c 0
 626.1 410 656.5 393 661 367 c 1
 671.1 391 l 1
 726.9 404 l 1
 740.8 399 l 1
 626 141 l 2
 614.3 114 600.1 80.5 598.7 74 c 0
EndSplineSet
EndChar

StartChar: A
Encoding: 65 65 24
Width: 633
Flags: HW
HStem: -3 21G<23.6812 91.3496 91.6812 128.71 503.221 513.181 600.096 606.181> 230 44<246.182 481.982> 638 20G<381.269 503.587>
AnchorPoint: "unten_punkt" 247 -108 basechar 0
AnchorPoint: "unten_anhang" 59.7 8 basechar 0
AnchorPoint: "top_akzent" 491.6 798 basechar 0
AnchorPoint: "top_punkt" 470.8 700 basechar 0
LayerCount: 2
Fore
SplineSet
229.5 228.3 m 1
 175.2 140.8 126.8 58.3 97.4 -3 c 1
 86 0 64 0 53 0 c 0
 42 0 30 0 17.4 -3 c 1
 165.4 218 309.7 436 452.9 658 c 1
 480.9 658 l 1
 526.4 439 585.9 98 614.4 -3 c 1
 598 0 572 0 555 0 c 0
 538 0 522 0 504.4 -3 c 1
 503 19.2 497 97.2 475.8 228.3 c 1
 438.3 229.2 396.9 230 358.9 230 c 0
 324.4 230 267.7 229.2 229.5 228.3 c 1
467.9 275.5 m 1
 455.9 345.2 439.9 427.4 418.9 521.8 c 1
 416.9 521.8 l 1
 368.9 447.2 312.6 360.5 259.3 275.9 c 1
 291 275.5 334.3 274 363.2 274 c 0
 392.9 274 434.9 274.7 467.9 275.5 c 1
EndSplineSet
Position2: "'cpsp' Versalabstaende 1" dx=2 dy=0 dh=5 dv=0
Substitution2: "'c2sc' Versale nach Kapitaelchen 1" a.sc
EndChar

StartChar: B
Encoding: 66 66 25
Width: 592
VWidth: 999
Flags: HW
HStem: -3 44<179.392 410.037> 327 44<267.858 431.539> 604 41<314.953 465.897>
AnchorPoint: "unten_punkt" 245 -108 basechar 0
AnchorPoint: "unten_anhang" 250 0 basechar 0
AnchorPoint: "top_punkt" 430.8 700 basechar 0
AnchorPoint: "top_akzent" 450.6 798 basechar 0
LayerCount: 2
Fore
SplineSet
307.8 559 m 2
 267.9 371 l 1
 339.9 371 l 2
 422.9 371 478 402 490.2 481 c 0
 506.2 584 451.4 604 395.4 604 c 0
 314.4 604 314.9 592.3 307.8 559 c 2
258.5 327 m 1
 207.7 88 l 2
 200.7 55 221.7 41 291.7 41 c 0
 432 41 460 93 470.1 165 c 0
 482.8 256.1 462.5 327 345.5 327 c 2
 258.5 327 l 1
283.1 645 m 0
 327.8 645 362.7 648 397.7 648 c 0
 583.7 648 588.1 561 579.8 493 c 0
 572 429 508 379 448.5 360 c 1
 451 355 l 1
 533 330.1 585 278.9 573.1 184 c 0
 561 87 492.2 -3 301.4 -3 c 0
 212.4 -3 206.6 0 146 0 c 0
 111 0 93.4 -3 93.4 -3 c 1
 93 0 l 1
 112.5 54 129.6 125 145.5 200 c 2
 197.6 445 l 2
 213.5 520 226 588 230.1 645 c 1
 232.7 648 l 1
 232.7 648 249.1 645 283.1 645 c 0
EndSplineSet
Position2: "'cpsp' Versalabstaende 1" dx=2 dy=0 dh=5 dv=0
Substitution2: "'c2sc' Versale nach Kapitaelchen 1" b.sc
EndChar

StartChar: C
Encoding: 67 67 26
Width: 650
VWidth: 999
Flags: HW
HStem: -10 51<283.742 463.911> 611 47<389.719 572.236>
AnchorPoint: "unten_punkt" 345.6 -110 basechar 0
AnchorPoint: "unten_anhang" 360.5 -7 basechar 0
AnchorPoint: "top_punkt" 514.8 700 basechar 0
AnchorPoint: "top_akzent" 535.6 798 basechar 0
LayerCount: 2
Fore
SplineSet
494.9 658 m 0
 616.9 658 693.3 613 693.3 613 c 1
 694.7 610 l 1
 672.5 560.7 665.5 550 651.1 499 c 1
 638.9 498 l 1
 615.3 580 560.9 611 470.9 611 c 0
 388.9 611 254.1 537 211 334 c 0
 180 188 213.7 41 368.7 41 c 0
 461.7 41 514.2 62 601.8 140 c 1
 623.6 121 l 1
 536.7 32 445.9 -10 348.9 -10 c 0
 133.9 -10 69.8 158 104 319 c 0
 145.9 516 325.9 658 494.9 658 c 0
EndSplineSet
Position2: "'cpsp' Versalabstaende 1" dx=2 dy=0 dh=5 dv=0
Substitution2: "'c2sc' Versale nach Kapitaelchen 1" c.sc
EndChar

StartChar: D
Encoding: 68 68 27
Width: 682
VWidth: 999
Flags: HW
HStem: -2 44<175.259 447.445> 604 41<316.628 507.08>
AnchorPoint: "unten_punkt" 256.3 -107 basechar 0
AnchorPoint: "unten_anhang" 279.9 4 basechar 0
AnchorPoint: "top_punkt" 454.8 700 basechar 0
AnchorPoint: "top_akzent" 475.6 798 basechar 0
LayerCount: 2
Fore
SplineSet
204.4 82 m 2
 197.6 50 200.9 42 298.9 42 c 0
 439.9 42 553.5 82 596.4 284 c 0
 629.1 438 609.4 604 393.4 604 c 0
 344.4 604 314.3 599 306.9 564 c 2
 204.4 82 l 2
281.1 645 m 0
 343.4 645 378.4 648 440.7 648 c 0
 632.7 648 744 494 704.5 308 c 0
 652.2 62 461.6 -2 320.6 -2 c 0
 217.6 -2 212.9 0 144 0 c 0
 109 0 91.4 -3 91.4 -3 c 1
 91 0 l 1
 110.5 54 127.6 125 143.5 200 c 2
 195.6 445 l 2
 211.5 520 224 588 228.1 645 c 1
 230.7 648 l 1
 230.7 648 247.1 645 281.1 645 c 0
EndSplineSet
Position2: "'cpsp' Versalabstaende 1" dx=2 dy=0 dh=5 dv=0
Substitution2: "'c2sc' Versale nach Kapitaelchen 1" d.sc
EndChar

StartChar: E
Encoding: 69 69 28
Width: 522
VWidth: 999
Flags: HMW
HStem: -3 69<412.986 474> 0 54<201.479 418.191> 321 42<259.158 458.026> 596 49<308.799 532.289>
DStem2: 138.512 200 224.512 200 0.20791 0.978148<-126.893 145.707 184.522 423.109>
AnchorPoint: "unten_anhang" 279.9 4 basechar 0
AnchorPoint: "unten_punkt" 256.3 -107 basechar 0
AnchorPoint: "top_punkt" 428.8 700 basechar 0
AnchorPoint: "top_akzent" 454.1 805 basechar 0
LayerCount: 2
Fore
SplineSet
224.5 200 m 2
 220.9 183 199.6 78 201.5 54 c 1
 335.5 54 486 66 486 66 c 1
 487.2 62 l 1
 484.5 54 480.3 39 478.2 29 c 0
 476.1 19 476 14 474 0 c 1
 471.4 -3 l 1
 455.8 -1 433 0 412 0 c 2
 139 0 l 2
 104 0 86.4 -3 86.4 -3 c 1
 86 0 l 1
 105.5 54 122.6 125 138.5 200 c 2
 190.6 445 l 2
 206.5 520 219 588 223.1 645 c 1
 225.7 648 l 1
 225.7 648 242.1 645 276.1 645 c 2
 539.1 645 l 2
 560.1 645 583.3 646 599.7 648 c 1
 601.1 645 l 1
 597.1 631 594.2 622 592.5 614 c 0
 590.6 605 589.7 596 589 588 c 1
 586.1 584 l 1
 586.1 584 450.7 596 316.7 596 c 1
 304.6 572 280.2 462 276.6 445 c 2
 259.2 363 l 1
 377.2 363 424.2 368 484.3 373 c 1
 486.6 370 l 1
 482.7 361 479.6 351 477.7 342 c 0
 475.8 333 474.6 323 474.7 314 c 1
 471.1 311 l 1
 403.6 318 298.2 321 250.2 321 c 1
 224.5 200 l 2
EndSplineSet
Position2: "'cpsp' Versalabstaende 1" dx=2 dy=0 dh=5 dv=0
Substitution2: "'c2sc' Versale nach Kapitaelchen 1" e.sc
EndChar

StartChar: F
Encoding: 70 70 29
Width: 477
VWidth: 999
Flags: HW
HStem: -3 21G<88 141 141 194> 321 42<261.158 460.026> 596 49<310.799 534.289>
AnchorPoint: "unten_anhang" 144.8 -1 basechar 0
AnchorPoint: "unten_punkt" 177.4 -111 basechar 0
AnchorPoint: "top_punkt" 435.8 700 basechar 0
AnchorPoint: "top_akzent" 455.6 798 basechar 0
LayerCount: 2
Fore
SplineSet
538.1 645 m 2
 562.1 645 585.3 646 601.7 648 c 1
 603.1 645 l 1
 599.1 631 596.2 622 594.5 614 c 0
 592.6 605 591.7 596 591 588 c 1
 588.1 584 l 1
 588.1 584 452.7 596 318.7 596 c 1
 306.6 572 282.2 462 278.6 445 c 2
 261.2 363 l 1
 379.2 363 426.2 368 486.3 373 c 1
 488.6 370 l 1
 484.7 361 481.6 351 479.7 342 c 0
 477.8 333 476.6 323 476.7 314 c 1
 473.1 311 l 1
 405.6 318 300.2 321 252.2 321 c 1
 226.5 200 l 2
 210.6 125 198.1 57 194 0 c 1
 191.4 -3 l 1
 191.4 -3 175 0 141 0 c 0
 106 0 88.4 -3 88.4 -3 c 1
 88 0 l 1
 107.5 54 124.6 125 140.5 200 c 2
 192.6 445 l 2
 208.5 520 221 588 225.1 645 c 1
 227.7 648 l 1
 227.7 648 244.1 645 278.1 645 c 2
 538.1 645 l 2
EndSplineSet
Position2: "'cpsp' Versalabstaende 1" dx=2 dy=0 dh=5 dv=0
Substitution2: "'c2sc' Versale nach Kapitaelchen 1" f.sc
EndChar

StartChar: G
Encoding: 71 71 30
Width: 681
VWidth: 999
Flags: HW
HStem: -10 46<300.86 508.192> 611 47<399.728 593.817>
AnchorPoint: "unten_anhang" 371.4 2 basechar 0
AnchorPoint: "unten_punkt" 347.4 -111 basechar 0
AnchorPoint: "top_punkt" 517.8 700 basechar 0
AnchorPoint: "top_akzent" 538.6 798 basechar 0
LayerCount: 2
Fore
SplineSet
550.9 117 m 1
 565.4 192 577.2 250 581.3 307 c 1
 583.9 310 l 1
 583.9 310 600.3 307 634.3 307 c 0
 669.3 307 686.9 310 686.9 310 c 1
 687.3 307 l 1
 668 254 657 212 641.1 137 c 2
 639.8 131 l 2
 637.5 120 633.2 93.7 639.6 83 c 1
 639 80 l 1
 559.5 23.4 480.4 -10 363.9 -10 c 0
 162.9 -10 70.5 144 107.3 317 c 0
 154.1 537 320 658 510.9 658 c 0
 632.9 658 709.3 613 709.3 613 c 1
 710.7 610 l 1
 688.5 560.7 681.5 550 667.1 499 c 1
 656.9 498 l 1
 633.3 580 586.9 611 496.9 611 c 0
 361.9 611 251.7 512 214.5 337 c 0
 186.4 205 218.7 36 396.7 36 c 0
 450.7 36 500.9 42 541.7 74 c 1
 550.9 117 l 1
EndSplineSet
Position2: "'cpsp' Versalabstaende 1" dx=2 dy=0 dh=5 dv=0
Substitution2: "'c2sc' Versale nach Kapitaelchen 1" g.sc
EndChar

StartChar: grave
Encoding: 96 96 31
Width: 392
VWidth: 999
Flags: HW
HStem: 538 161
VStem: 237.8 132
LayerCount: 2
Fore
SplineSet
326.6 699 m 1
 369.8 573 l 2
 372.7 563 372.2 556 370.7 549 c 0
 369.6 544 361.4 538 353.4 538 c 0
 347.4 538 341.4 543 328.6 558 c 2
 237.8 667 l 1
 242.1 678 l 1
 251.4 684 278 701 312 701 c 0
 317 701 322.8 700 326.6 699 c 1
EndSplineSet
Substitution2: "'case' Versalformen 1" grave.cap
Colour: ff00ff
EndChar

StartChar: ograve
Encoding: 242 242 32
Width: 490
VWidth: 999
Flags: HW
HStem: -12 36<200 296> 409 33<249 355>
VStem: 78 84<61 275> 384 81<165 381>
LayerCount: 2
Fore
SplineSet
362.5 671 m 1
 405.7 545 l 2
 408.6 535 408.1 528 406.6 521 c 0
 405.5 516 397.3 510 389.3 510 c 0
 383.3 510 377.3 515 364.5 530 c 2
 273.7 639 l 1
 278 650 l 1
 287.3 656 313.9 673 347.9 673 c 0
 352.9 673 358.7 672 362.5 671 c 1
146 346.3 m 0
 191.7 399 260.5 439 340.3 439 c 0
 463.4 439 506 359.6 506 274.2 c 0
 506 184 458.8 86.8 385 33 c 0
 345.5 4.2 297.5 -10 242.9 -10 c 0
 130 -10 74.3 65.6 74.3 155.7 c 0
 74.3 236.8 107 301.4 146 346.3 c 0
326.6 398 m 0
 251 398 193 315 174.5 228 c 0
 170.1 207.4 167.1 183.8 167.1 160.2 c 0
 167.1 95.5 184.4 31 260.6 31 c 0
 288.7 31 327.2 43.5 358.6 83 c 0
 389.1 121.4 416.6 176 416.6 282.5 c 0
 416.6 357.3 388.3 398 326.6 398 c 0
EndSplineSet
Substitution2: "'smcp' Gemeine nach Kapitaelchen 1" ograve.sc
AlternateSubs2: "'aalt' Alle Alternativen zeigen 1" ograve.sc
Colour: ff00ff
EndChar

StartChar: oacute
Encoding: 243 243 33
Width: 490
VWidth: 999
Flags: HW
HStem: -10 41<207.887 327.054> 398 41<259.734 387.619>
VStem: 74.3 92.9<70.8712 260.274> 416.6 89.4<166.716 366.847>
LayerCount: 2
Fore
SplineSet
388.5 666 m 1
 391.7 667 397.9 668 402.9 668 c 0
 409.3 668 434.7 667 453 645 c 1
 453.7 634 l 1
 315.5 525 l 2
 297.3 510 288.5 506 281.5 506 c 0
 274.5 506 268.7 512 270.2 519 c 0
 272.6 530.2 276.7 534.2 287.6 547 c 2
 388.5 666 l 1
146 346.3 m 0
 191.7 399 260.5 439 340.3 439 c 0
 463.4 439 506 359.6 506 274.2 c 0
 506 184 458.8 86.8 385 33 c 0
 345.5 4.2 297.5 -10 242.9 -10 c 0
 130 -10 74.3 65.6 74.3 155.7 c 0
 74.3 236.8 107 301.4 146 346.3 c 0
326.6 398 m 0
 251 398 193 315 174.5 228 c 0
 170.1 207.4 167.2 183.8 167.2 160.2 c 0
 167.2 95.5 184.4 31 260.6 31 c 0
 288.7 31 327.2 43.5 358.6 83 c 0
 389.1 121.4 416.6 176 416.6 282.5 c 0
 416.6 357.3 388.3 398 326.6 398 c 0
EndSplineSet
Substitution2: "'smcp' Gemeine nach Kapitaelchen 1" oacute.sc
AlternateSubs2: "'aalt' Alle Alternativen zeigen 1" oacute.sc
Colour: ff00ff
EndChar

StartChar: ocircumflex
Encoding: 244 244 34
Width: 490
VWidth: 999
Flags: HW
HStem: -10 41<207.887 327.054> 398 41<259.734 387.619>
VStem: 74.3 92.9<70.8712 260.274> 104 253<524 524> 416.6 89.4<166.716 366.847>
LayerCount: 2
Fore
SplineSet
398 653 m 1
 417 606 444.1 564 471.6 524 c 1
 447.6 510 l 1
 414.8 539 387 564 360.7 600 c 1
 315.6 562 278.3 537 234.6 510 c 1
 217.6 524 l 1
 262.1 564 309.2 607 348 653 c 1
 398 653 l 1
146 346.3 m 0
 191.7 399 260.5 439 340.3 439 c 0
 463.4 439 506 359.6 506 274.2 c 0
 506 184 458.8 86.8 385 33 c 0
 345.5 4.2 297.5 -10 242.9 -10 c 0
 130 -10 74.3 65.6 74.3 155.7 c 0
 74.3 236.8 107 301.4 146 346.3 c 0
326.6 398 m 0
 251 398 193 315 174.5 228 c 0
 170.1 207.4 167.2 183.8 167.2 160.2 c 0
 167.2 95.5 184.4 31 260.6 31 c 0
 288.7 31 327.2 43.5 358.6 83 c 0
 389.1 121.4 416.6 176 416.6 282.5 c 0
 416.6 357.3 388.3 398 326.6 398 c 0
EndSplineSet
Substitution2: "'smcp' Gemeine nach Kapitaelchen 1" ocircumflex.sc
AlternateSubs2: "'aalt' Alle Alternativen zeigen 1" ocircumflex.sc
Colour: ff00ff
EndChar

StartChar: otilde
Encoding: 245 245 35
Width: 490
VWidth: 999
Flags: HW
HStem: -10 41<207.887 327.054> 398 41<259.734 387.619> 526 44<369.353 453.597> 574 46<248.457 335.123>
VStem: 74.3 92.9<70.8712 260.274> 204.1 296.1 416.6 89.4<166.716 366.847>
LayerCount: 2
Fore
SplineSet
416.4 570 m 0
 438.4 570 454.5 580 477.4 622 c 1
 500.2 616 l 1
 475.4 556 440 526 394 526 c 0
 372 526 353.5 538 335.5 552 c 0
 319.8 563 303.2 574 286.2 574 c 0
 260.2 574 244 559 227 526 c 1
 204.1 531 l 1
 230.6 590 260 620 303 620 c 0
 333 620 352 606 369 592 c 0
 382.4 580 397.4 570 416.4 570 c 0
146 346.3 m 0
 191.7 399 260.5 439 340.3 439 c 0
 463.4 439 506 359.6 506 274.2 c 0
 506 184 458.8 86.8 385 33 c 0
 345.5 4.2 297.5 -10 242.9 -10 c 0
 130 -10 74.3 65.6 74.3 155.7 c 0
 74.3 236.8 107 301.4 146 346.3 c 0
326.6 398 m 0
 251 398 193 315 174.5 228 c 0
 170.1 207.4 167.2 183.8 167.2 160.2 c 0
 167.2 95.5 184.4 31 260.6 31 c 0
 288.7 31 327.2 43.5 358.6 83 c 0
 389.1 121.4 416.6 176 416.6 282.5 c 0
 416.6 357.3 388.3 398 326.6 398 c 0
EndSplineSet
Substitution2: "'smcp' Gemeine nach Kapitaelchen 1" otilde.sc
AlternateSubs2: "'aalt' Alle Alternativen zeigen 1" otilde.sc
Colour: ff00ff
EndChar

StartChar: odieresis
Encoding: 246 246 36
Width: 490
VWidth: 999
Flags: HW
HStem: -10 41<207.887 327.054> 398 41<259.734 387.619> 529 92<243.8 310.641 243.8 310.641 408.027 473.785 408.027 473.785>
VStem: 74.3 92.9<70.8712 260.274> 231.2 92<541.849 608.151 541.849 608.151> 399.2 92<546.849 613.151 546.849 613.151> 416.6 89.4<166.716 366.847>
LayerCount: 2
Fore
SplineSet
146 346.3 m 0
 191.7 399 260.5 439 340.3 439 c 0
 463.4 439 506 359.6 506 274.2 c 0
 506 184 458.8 86.8 385 33 c 0
 345.5 4.2 297.5 -10 242.9 -10 c 0
 130 -10 74.3 65.6 74.3 155.7 c 0
 74.3 236.8 107 301.4 146 346.3 c 0
326.6 398 m 0
 251 398 193 315 174.5 228 c 0
 170.1 207.4 167.2 183.8 167.2 160.2 c 0
 167.2 95.5 184.4 31 260.6 31 c 0
 288.7 31 327.2 43.5 358.6 83 c 0
 389.1 121.4 416.6 176 416.6 282.5 c 0
 416.6 357.3 388.3 398 326.6 398 c 0
231.2 575 m 0
 236.5 600 262 621 287 621 c 0
 312 621 328.5 600 323.2 575 c 0
 317.9 550 292.4 529 267.4 529 c 0
 242.4 529 225.9 550 231.2 575 c 0
399.2 580 m 0
 404.5 605 430 626 455 626 c 0
 480 626 496.5 605 491.2 580 c 0
 485.9 555 460.4 534 435.4 534 c 0
 410.4 534 393.9 555 399.2 580 c 0
EndSplineSet
Substitution2: "'smcp' Gemeine nach Kapitaelchen 1" odieresis.sc
AlternateSubs2: "'aalt' Alle Alternativen zeigen 1" odieresis.sc
Colour: ff00ff
EndChar

StartChar: divide
Encoding: 247 247 37
Width: 527
VWidth: 999
Flags: HW
HStem: 53.6 93.9<258.2 316.822> 208 49<120.627 505.212> 321.6 93.9<315.166 373.788>
LayerCount: 2
Fore
SplineSet
296.2 366.9 m 1
 297 370.2 l 1
 309.5 392.4 324.3 405.2 351.8 415.5 c 1
 355.2 415.5 l 1
 377.6 406.7 388.1 393.9 390.8 370.2 c 1
 390.1 366.9 l 1
 375.8 339.9 360.1 327.5 335.2 321.6 c 1
 331.9 321.6 l 1
 307 327.5 297.6 338.8 296.2 366.9 c 1
239.3 98.9 m 1
 240 102.2 l 1
 252.5 124.4 267.4 137.2 294.9 147.5 c 1
 298.2 147.5 l 1
 320.6 138.7 331.2 125.9 333.9 102.2 c 1
 333.1 98.9 l 1
 318.8 71.9 303.2 59.5 278.3 53.6 c 1
 274.9 53.6 l 1
 250 59.5 240.7 70.8 239.3 98.9 c 1
515.6 257 m 1
 505.2 208 l 1
 110.2 208 l 1
 120.6 257 l 1
 515.6 257 l 1
EndSplineSet
Colour: ff00ff
EndChar

StartChar: ugrave
Encoding: 249 249 38
Width: 514
VWidth: 999
Flags: HW
HStem: -10 55<195.863 285.561> -3 21<359.362 369.206 435.075 444> 412 20<165.187 215.187 215.187 265.187 428.188 478.188 478.188 528.188>
VStem: 354 90<0 52.0717>
LayerCount: 2
Fore
SplineSet
369.5 671 m 1
 412.7 545 l 2
 415.6 535 415.1 528 413.6 521 c 0
 412.5 516 404.3 510 396.3 510 c 0
 390.3 510 384.3 515 371.5 530 c 2
 280.7 639 l 1
 285 650 l 1
 294.3 656 320.9 673 354.9 673 c 0
 359.9 673 365.7 672 369.5 671 c 1
360.6 64 m 1
 291.8 4 242.9 -10 201.9 -10 c 0
 109 -10 96.6 59.1 110.8 126 c 2
 136.9 249 l 2
 153.1 325 162.1 372 165.2 429 c 1
 167.8 432 l 1
 167.8 432 181.2 429 215.2 429 c 0
 250.2 429 264.8 432 264.8 432 c 1
 265.2 429 l 1
 244.9 376 232.8 324 216.9 249 c 2
 195.9 150 l 2
 177 61 196 45 244.6 45 c 0
 289.4 45 339.7 88.2 372.3 119 c 1
 399.9 249 l 2
 416.1 325 425.1 372 428.2 429 c 1
 430.8 432 l 1
 430.8 432 444.2 429 478.2 429 c 0
 513.2 429 527.8 432 527.8 432 c 1
 528.2 429 l 1
 507.9 376 495.8 324 479.9 249 c 2
 467.8 192 l 2
 451.9 117 445.1 43 444 0 c 1
 441.4 -3 l 1
 428.8 -1 410.1 0 397.5 0 c 0
 383 0 376.1 -1.3 362.4 -3 c 0
 356.4 -3 353.6 -2 354 0 c 2
 362.6 64 l 1
 360.6 64 l 1
EndSplineSet
Substitution2: "'smcp' Gemeine nach Kapitaelchen 1" ugrave.sc
AlternateSubs2: "'aalt' Alle Alternativen zeigen 1" ugrave.sc
Colour: ff00ff
EndChar

StartChar: uacute
Encoding: 250 250 39
Width: 514
VWidth: 999
Flags: HW
HStem: -10 55<195.863 285.561> -3 21<359.362 369.206 435.075 444> 412 20<165.187 215.187 215.187 265.187 428.188 478.188 478.188 528.188>
VStem: 354 90<0 52.0717>
LayerCount: 2
Fore
SplineSet
431.5 666 m 1
 434.7 667 440.9 668 445.9 668 c 0
 452.3 668 477.7 667 496 645 c 1
 496.7 634 l 1
 358.5 525 l 2
 340.3 510 331.5 506 324.5 506 c 0
 317.5 506 311.7 512 313.2 519 c 0
 315.6 530.2 319.7 534.2 330.6 547 c 2
 431.5 666 l 1
360.6 64 m 1
 291.8 4 242.9 -10 201.9 -10 c 0
 109 -10 96.6 59.1 110.8 126 c 2
 136.9 249 l 2
 153.1 325 162.1 372 165.2 429 c 1
 167.8 432 l 1
 167.8 432 181.2 429 215.2 429 c 0
 250.2 429 264.8 432 264.8 432 c 1
 265.2 429 l 1
 244.9 376 232.8 324 216.9 249 c 2
 195.9 150 l 2
 177 61 196 45 244.6 45 c 0
 289.4 45 339.7 88.2 372.3 119 c 1
 399.9 249 l 2
 416.1 325 425.1 372 428.2 429 c 1
 430.8 432 l 1
 430.8 432 444.2 429 478.2 429 c 0
 513.2 429 527.8 432 527.8 432 c 1
 528.2 429 l 1
 507.9 376 495.8 324 479.9 249 c 2
 467.8 192 l 2
 451.9 117 445.1 43 444 0 c 1
 441.4 -3 l 1
 428.8 -1 410.1 0 397.5 0 c 0
 383 0 376.1 -1.3 362.4 -3 c 0
 356.4 -3 353.6 -2 354 0 c 2
 362.6 64 l 1
 360.6 64 l 1
EndSplineSet
Substitution2: "'smcp' Gemeine nach Kapitaelchen 1" uacute.sc
AlternateSubs2: "'aalt' Alle Alternativen zeigen 1" uacute.sc
Colour: ff00ff
EndChar

StartChar: ucircumflex
Encoding: 251 251 40
Width: 514
VWidth: 999
Flags: HW
HStem: -10 55<195.863 285.561> -3 21<359.362 369.206 435.075 444> 412 20<165.187 215.187 215.187 265.187 428.188 478.188 478.188 528.188>
VStem: 122 253<524 524> 354 90<0 52.0717>
LayerCount: 2
Fore
SplineSet
416 653 m 1
 435 606 462.1 564 489.6 524 c 1
 465.6 510 l 1
 432.8 539 405 564 378.7 600 c 1
 333.6 562 296.3 537 252.6 510 c 1
 235.6 524 l 1
 280.1 564 327.2 607 366 653 c 1
 416 653 l 1
360.6 64 m 1
 291.8 4 242.9 -10 201.9 -10 c 0
 109 -10 96.6 59.1 110.8 126 c 2
 136.9 249 l 2
 153.1 325 162.1 372 165.2 429 c 1
 167.8 432 l 1
 167.8 432 181.2 429 215.2 429 c 0
 250.2 429 264.8 432 264.8 432 c 1
 265.2 429 l 1
 244.9 376 232.8 324 216.9 249 c 2
 195.9 150 l 2
 177 61 196 45 244.6 45 c 0
 289.4 45 339.7 88.2 372.3 119 c 1
 399.9 249 l 2
 416.1 325 425.1 372 428.2 429 c 1
 430.8 432 l 1
 430.8 432 444.2 429 478.2 429 c 0
 513.2 429 527.8 432 527.8 432 c 1
 528.2 429 l 1
 507.9 376 495.8 324 479.9 249 c 2
 467.8 192 l 2
 451.9 117 445.1 43 444 0 c 1
 441.4 -3 l 1
 428.8 -1 410.1 0 397.5 0 c 0
 383 0 376.1 -1.3 362.4 -3 c 0
 356.4 -3 353.6 -2 354 0 c 2
 362.6 64 l 1
 360.6 64 l 1
EndSplineSet
Substitution2: "'smcp' Gemeine nach Kapitaelchen 1" ucircumflex.sc
AlternateSubs2: "'aalt' Alle Alternativen zeigen 1" ucircumflex.sc
Colour: ff00ff
EndChar

StartChar: ebreve
Encoding: 277 277 41
Width: 427
VWidth: 999
Flags: HW
HStem: -10 48<219.324 335.623> 207.5 34.5<193.37 301.075> 403 36<279.149 382.995> 501 57<279.751 400.544>
VStem: 97 88.5<74.5961 231.056> 222.1 29.6<596.232 636> 389 75<299.11 398.223>
LayerCount: 2
Fore
SplineSet
251.7 648 m 1
 251.4 595 286.6 558 340.6 558 c 0
 392.6 558 445.4 590 467.7 648 c 1
 492.1 636 l 1
 461.8 550 387.4 501 328.4 501 c 0
 258.4 501 218 551 222.1 636 c 1
 251.7 648 l 1
369 363.6 m 0
 369 390.4 353.6 403 319.5 403 c 0
 272.1 403 208 377 173.4 242 c 1
 290 247 369 278.9 369 363.6 c 0
168.3 207.5 m 1
 167.6 200.1 165.5 175.1 165.5 165.9 c 0
 165.5 77.1 204.5 38 249 38 c 0
 296.9 38 366 84 394.4 134 c 1
 400.5 133 l 1
 403 120 405 93 410.4 82.2 c 1
 371 27 296.2 -10 212.1 -10 c 0
 128 -10 77 60.9 77 142.8 c 0
 77 269.2 165.9 439 342.5 439 c 0
 416.5 439 444 405.4 444 362.4 c 0
 444 324 426 218 168.3 207.5 c 1
EndSplineSet
Colour: ff00ff
EndChar

StartChar: Edotaccent
Encoding: 278 278 42
Width: 522
VWidth: 999
Flags: HW
HStem: -3 69<412.986 474> 0 54<201.479 418.191> 321 42<259.158 458.026> 596 49<308.799 532.289> 689 102<403.074 471.509>
VStem: 386.3 102<705.264 774.736>
LayerCount: 2
Fore
SplineSet
386.3 740 m 0
 392 767 421.1 791 448.1 791 c 0
 475.1 791 494 767 488.3 740 c 0
 482.6 713 453.5 689 426.5 689 c 0
 399.5 689 380.6 713 386.3 740 c 0
224.5 200 m 2
 220.9 183 199.6 78 201.5 54 c 1
 335.5 54 486 66 486 66 c 1
 487.2 62 l 1
 484.5 54 480.3 39 478.2 29 c 0
 476.1 19 476 14 474 0 c 1
 471.4 -3 l 1
 455.8 -1 433 0 412 0 c 2
 139 0 l 2
 104 0 86.4 -3 86.4 -3 c 1
 86 0 l 1
 105.5 54 122.6 125 138.5 200 c 2
 190.6 445 l 2
 206.5 520 219 588 223.1 645 c 1
 225.7 648 l 1
 225.7 648 242.1 645 276.1 645 c 2
 539.1 645 l 2
 560.1 645 583.3 646 599.7 648 c 1
 601.1 645 l 1
 597.1 631 594.2 622 592.5 614 c 0
 590.6 605 589.7 596 589 588 c 1
 586.1 584 l 1
 586.1 584 450.7 596 316.7 596 c 1
 304.6 572 280.2 462 276.6 445 c 2
 259.2 363 l 1
 377.2 363 424.2 368 484.3 373 c 1
 486.6 370 l 1
 482.7 361 479.6 351 477.7 342 c 0
 475.8 333 474.6 323 474.7 314 c 1
 471.1 311 l 1
 403.6 318 298.2 321 250.2 321 c 1
 224.5 200 l 2
EndSplineSet
Position2: "'cpsp' Versalabstaende 1" dx=2 dy=0 dh=5 dv=0
Colour: ff00ff
EndChar

StartChar: edotaccent
Encoding: 279 279 43
Width: 427
VWidth: 999
Flags: HW
HStem: -10 48<219.324 335.623> 207.5 34.5<193.37 301.075> 403 36<279.149 382.995> 480 102<281.735 364.265>
VStem: 97 88.5<74.5961 231.056> 272 102<489.735 572.265> 389 75<299.11 398.223>
LayerCount: 2
Fore
SplineSet
272 531 m 0
 272 558 296 582 323 582 c 0
 350 582 374 558 374 531 c 0
 374 504 350 480 323 480 c 0
 296 480 272 504 272 531 c 0
369 363.6 m 0
 369 390.4 353.6 403 319.5 403 c 0
 272.1 403 208 377 173.4 242 c 1
 290 247 369 278.9 369 363.6 c 0
168.3 207.5 m 1
 167.6 200.1 165.5 175.1 165.5 165.9 c 0
 165.5 77.1 204.5 38 249 38 c 0
 296.9 38 366 84 394.4 134 c 1
 400.5 133 l 1
 403 120 405 93 410.4 82.2 c 1
 371 27 296.2 -10 212.1 -10 c 0
 128 -10 77 60.9 77 142.8 c 0
 77 269.2 165.9 439 342.5 439 c 0
 416.5 439 444 405.4 444 362.4 c 0
 444 324 426 218 168.3 207.5 c 1
EndSplineSet
Colour: ff00ff
EndChar

StartChar: Eogonek
Encoding: 280 280 44
Width: 522
VWidth: 999
Flags: HW
HStem: -224 39<290.833 365.672> -3 69<412.986 474> 0 54<201.479 408.841> 321 42<259.158 458.026> 596 49<308.799 532.289>
LayerCount: 2
Fore
SplineSet
296.4 -224 m 0
 243.4 -224 210 -193 221.5 -139 c 0
 231.6 -91.5 283.9 -33.4 351.2 0 c 1
 139 0 l 2
 104 0 86.4 -3 86.4 -3 c 1
 86 0 l 1
 105.5 54 122.6 125 138.5 200 c 2
 190.6 445 l 2
 206.5 520 219 588 223.1 645 c 1
 225.7 648 l 1
 225.7 648 242.1 645 276.1 645 c 2
 539.1 645 l 2
 560.1 645 583.3 646 599.7 648 c 1
 601.1 645 l 1
 597.1 631 594.2 622 592.5 614 c 0
 590.6 605 589.7 596 589 588 c 1
 586.1 584 l 1
 586.1 584 450.7 596 316.7 596 c 1
 304.6 572 280.2 462 276.6 445 c 2
 259.2 363 l 1
 377.2 363 424.2 368 484.3 373 c 1
 486.6 370 l 1
 482.7 361 479.6 351 477.7 342 c 0
 475.8 333 474.6 323 474.7 314 c 1
 471.1 311 l 1
 403.6 318 298.2 321 250.2 321 c 1
 224.5 200 l 2
 220.9 183 199.6 78 201.5 54 c 1
 335.5 54 486 66 486 66 c 1
 487.2 62 l 1
 484.5 54 480.3 39 478.2 29 c 0
 476.1 19 476 14 474 0 c 1
 471.4 -3 l 1
 461.6 -1.7 449 -0.9 435.7 -0.4 c 1
 360 -6.4 294.6 -77.2 284.2 -126 c 0
 277.4 -158 293.7 -185 329.7 -185 c 0
 359.7 -185 382.8 -170 407.3 -149 c 1
 420.6 -157 l 1
 386.6 -204 332.4 -224 296.4 -224 c 0
EndSplineSet
Position2: "'cpsp' Versalabstaende 1" dx=2 dy=0 dh=5 dv=0
Substitution2: "'c2sc' Versale nach Kapitaelchen 1" eogonek.sc
Colour: ff80cc
EndChar

StartChar: eogonek
Encoding: 281 281 45
Width: 437
VWidth: 999
Flags: HW
HStem: -208 39<240 322> -12 48<201 289> 411 31<276 393>
VStem: 75 83<82 212> 171 61<-162 -77> 398 69<311 404>
LayerCount: 2
Fore
SplineSet
164 211 m 1
 240 218 398 260 398 371 c 0
 398 400 373 411 338 411 c 0
 289 411 198 363 164 211 c 1
468 370 m 0
 468 332 433 219 159 185 c 1
 158 177 158 170 158 165 c 0
 158 74 212 36 257 36 c 0
 305 36 349 64 402 122 c 1
 424 106 l 1
 399 71 372 44 342 24 c 1
 302 -7 232 -69 232 -125 c 0
 232 -148 251 -170 284 -170 c 0
 314 -170 333 -156 358 -134 c 1
 372 -141 l 1
 335 -186 295 -208 254 -208 c 0
 206 -208 171 -186 171 -142 c 0
 171 -93 212 -46 255 -10 c 1
 244 -11 233 -12 221 -12 c 0
 119 -12 75 57 75 142 c 0
 75 269 189 442 360 442 c 0
 441 442 468 405 468 370 c 0
EndSplineSet
AlternateSubs2: "'aalt' Alle Alternativen zeigen 1" eogonek.sc
Substitution2: "'smcp' Gemeine nach Kapitaelchen 1" eogonek.sc
Colour: ff00ff
EndChar

StartChar: Ecaron
Encoding: 282 282 46
Width: 522
VWidth: 999
Flags: HW
HStem: -3 69<412.986 474> 0 54<201.479 418.191> 321 42<259.158 458.026> 596 49<308.799 532.289> 697 21G<405.085 477.766>
LayerCount: 2
Fore
SplineSet
416.2 697 m 1
 394.1 734 365.3 764 335.3 792 c 1
 355.6 812 l 1
 391 795 420.9 776 448.6 751 c 1
 491.1 777 527.2 796 568.6 812 c 1
 579.3 792 l 1
 535.1 763 496.4 731 459.2 697 c 1
 416.2 697 l 1
224.5 200 m 2
 220.9 183 199.6 78 201.5 54 c 1
 335.5 54 486 66 486 66 c 1
 487.2 62 l 1
 484.5 54 480.3 39 478.2 29 c 0
 476.1 19 476 14 474 0 c 1
 471.4 -3 l 1
 455.8 -1 433 0 412 0 c 2
 139 0 l 2
 104 0 86.4 -3 86.4 -3 c 1
 86 0 l 1
 105.5 54 122.6 125 138.5 200 c 2
 190.6 445 l 2
 206.5 520 219 588 223.1 645 c 1
 225.7 648 l 1
 225.7 648 242.1 645 276.1 645 c 2
 539.1 645 l 2
 560.1 645 583.3 646 599.7 648 c 1
 601.1 645 l 1
 597.1 631 594.2 622 592.5 614 c 0
 590.6 605 589.7 596 589 588 c 1
 586.1 584 l 1
 586.1 584 450.7 596 316.7 596 c 1
 304.6 572 280.2 462 276.6 445 c 2
 259.2 363 l 1
 377.2 363 424.2 368 484.3 373 c 1
 486.6 370 l 1
 482.7 361 479.6 351 477.7 342 c 0
 475.8 333 474.6 323 474.7 314 c 1
 471.1 311 l 1
 403.6 318 298.2 321 250.2 321 c 1
 224.5 200 l 2
EndSplineSet
Position2: "'cpsp' Versalabstaende 1" dx=2 dy=0 dh=5 dv=0
Substitution2: "'c2sc' Versale nach Kapitaelchen 1" ecaron.sc
Colour: ff00ff
EndChar

StartChar: ecaron
Encoding: 283 283 47
Width: 427
VWidth: 999
Flags: HW
HStem: -12 48<200 307> 411 31<262 358>
VStem: 83 83<72 230> 365 69<308 407>
LayerCount: 2
Fore
SplineSet
292.1 501 m 1
 273.1 548 245.6 593 218.7 631 c 1
 241.5 644 l 1
 274.3 615 302.1 590 328.4 554 c 1
 373.5 592 412.8 617 455.5 644 c 1
 471.7 631 l 1
 428.4 592 380.9 547 342.1 501 c 1
 292.1 501 l 1
369 363.6 m 0
 369 390.4 353.6 403 319.5 403 c 0
 272.1 403 208 377 173.4 242 c 1
 290 247 369 278.9 369 363.6 c 0
168.3 207.5 m 1
 167.6 200.1 165.5 175.1 165.5 165.9 c 0
 165.5 77.1 204.5 38 249 38 c 0
 296.9 38 366 84 394.4 134 c 1
 400.5 133 l 1
 403 120 405 93 410.4 82.2 c 1
 371 27 296.2 -10 212.1 -10 c 0
 128 -10 77 60.9 77 142.8 c 0
 77 269.2 165.9 439 342.5 439 c 0
 416.5 439 444 405.4 444 362.4 c 0
 444 324 426 218 168.3 207.5 c 1
EndSplineSet
AlternateSubs2: "'aalt' Alle Alternativen zeigen 1" ecaron.sc
Substitution2: "'smcp' Gemeine nach Kapitaelchen 1" ecaron.sc
Colour: ff00ff
EndChar

StartChar: Gcircumflex
Encoding: 284 284 48
Width: 699
VWidth: 999
Flags: HW
HStem: -10 46<309.301 522.365> 611 47<398.219 603.897> 690 21G<394.582 424.471 599.077 636.154>
LayerCount: 2
Fore
SplineSet
556.1 805 m 1
 578.4 769 606.8 738 637.1 711 c 1
 616.7 690 l 1
 581.5 708 551.5 727 523.8 752 c 1
 481.1 725 445.3 707 403.7 690 c 1
 394.1 711 l 1
 437.1 739 474.9 771 513.1 805 c 1
 556.1 805 l 1
570.9 117 m 1
 585.4 192 597.2 250 601.3 307 c 1
 603.9 310 l 1
 603.9 310 620.3 307 654.3 307 c 0
 689.3 307 706.9 310 706.9 310 c 1
 707.3 307 l 1
 688 254 677 212 661.1 137 c 2
 659.8 131 l 2
 657.5 120 653.2 93.7 659.6 83 c 1
 659 80 l 1
 579.5 23.4 490.4 -10 373.9 -10 c 0
 172.9 -10 60.5 134 97.3 307 c 0
 144.1 527 348.9 658 520.9 658 c 0
 642.9 658 729.3 613 729.3 613 c 1
 730.7 610 l 1
 708.5 560.7 701.5 550 687.1 499 c 1
 676.9 498 l 1
 653.3 580 586.9 611 496.9 611 c 0
 361.9 611 241.7 502 204.5 327 c 0
 176.4 195 228.7 36 406.7 36 c 0
 460.7 36 520.9 42 561.7 74 c 1
 570.9 117 l 1
EndSplineSet
Position2: "'cpsp' Versalabstaende 1" dx=2 dy=0 dh=5 dv=0
Colour: ff00ff
EndChar

StartChar: gcircumflex
Encoding: 285 285 49
Width: 458
VWidth: 999
Flags: HW
HStem: -237 39<121 307> -12 56<140 299> 125 28<218 304> 415 27<245 330> 418 41<427 507>
VStem: 9 60<-160 -67> 81 56<49 114> 118 73<178 349> 361 72<218 390> 387 55<-133 -46>
LayerCount: 2
Fore
SplineSet
367 685 m 1
 386 638 413.1 596 440.6 556 c 1
 416.6 542 l 1
 383.8 571 356 596 329.7 632 c 1
 284.6 594 247.3 569 203.6 542 c 1
 186.6 556 l 1
 231.1 596 278.2 639 317 685 c 1
 367 685 l 1
149 -5 m 1
 131 -18 114 -28 103 -42 c 0
 85 -64 74 -91 74 -121 c 0
 74 -176 146 -195 177 -195 c 0
 224.3 -195 309 -192 351 -166 c 0
 367 -156.1 375 -143 375 -121 c 0
 375 -105 367 -76 342 -59 c 0
 303 -33 237 -17 168 -6 c 0
 162 -5 155 -6 149 -5 c 1
276 138 m 0
 247 138 206.5 147 192 161 c 1
 172 146 144 120 144 99 c 0
 144 76 169 63 207 54 c 0
 278 38 359 24 399 -4 c 0
 434 -28 441 -71 441 -95 c 0
 441 -147 411 -182 375 -202 c 0
 319 -233 205 -238 154 -238 c 0
 77 -238 1 -206.5 1 -150 c 0
 1 -107 13 -76 40 -45 c 0
 58 -24 83 -9 110 6 c 1
 92 17 79 43 79 70 c 0
 79 117 121 155 165 177 c 1
 140 199 121 240 121 284 c 0
 121 381 206 439 296 439 c 0
 326 439 362 431 380 431 c 0
 415 431 445 445 445 480 c 0
 445 489 442 497 434 506 c 1
 435 510 l 1
 452.4 514.5 470.4 522.2 483 533 c 1
 487 532 l 1
 499 514 503 495 503 474 c 0
 503 438 476 407 432 407 c 0
 424 407 414.8 407.3 411 408 c 1
 408 406 l 1
 432 382 453 342 453 304 c 0
 453 195 365 138 276 138 c 0
375 298 m 0
 375 359 343 400 289 400 c 0
 229 400 199 345 199 288 c 0
 199 233 227 177 285 177 c 0
 327 177 375 218 375 298 c 0
EndSplineSet
Colour: ff00ff
EndChar

StartChar: Gbreve
Encoding: 286 286 50
Width: 699
VWidth: 999
Flags: HW
HStem: -10 46<309.301 522.365> 611 47<398.219 603.897> 693 52<455.885 601.752>
VStem: 407.3 28<772.38 806>
LayerCount: 2
Fore
SplineSet
679.3 806 m 1
 658.2 735 585.3 693 519.3 693 c 0
 446.3 693 397.4 736 407.3 806 c 1
 435.3 806 l 1
 435 767 477.4 745 530.4 745 c 0
 579.4 745 636 767 651.3 806 c 1
 679.3 806 l 1
570.9 117 m 1
 585.4 192 597.2 250 601.3 307 c 1
 603.9 310 l 1
 603.9 310 620.3 307 654.3 307 c 0
 689.3 307 706.9 310 706.9 310 c 1
 707.3 307 l 1
 688 254 677 212 661.1 137 c 2
 659.8 131 l 2
 657.5 120 653.2 93.7 659.6 83 c 1
 659 80 l 1
 579.5 23.4 490.4 -10 373.9 -10 c 0
 172.9 -10 60.5 134 97.3 307 c 0
 144.1 527 348.9 658 520.9 658 c 0
 642.9 658 729.3 613 729.3 613 c 1
 730.7 610 l 1
 708.5 560.7 701.5 550 687.1 499 c 1
 676.9 498 l 1
 653.3 580 586.9 611 496.9 611 c 0
 361.9 611 241.7 502 204.5 327 c 0
 176.4 195 228.7 36 406.7 36 c 0
 460.7 36 520.9 42 561.7 74 c 1
 570.9 117 l 1
EndSplineSet
Position2: "'cpsp' Versalabstaende 1" dx=2 dy=0 dh=5 dv=0
Substitution2: "'c2sc' Versale nach Kapitaelchen 1" gbreve.sc
Colour: ff00ff
EndChar

StartChar: gbreve
Encoding: 287 287 51
Width: 458
VWidth: 999
Flags: HW
HStem: -237 39<121 307> -12 56<140 299> 125 28<218 304> 415 27<245 330> 418 41<427 507> 497 57<268 393>
VStem: 9 60<-160 -67> 81 56<49 114> 118 73<178 349> 212 30<578 636> 361 72<218 390> 387 55<-133 -46>
LayerCount: 2
Fore
SplineSet
231.7 644 m 1
 231.4 591 266.6 554 320.6 554 c 0
 372.6 554 425.4 586 447.7 644 c 1
 472.1 632 l 1
 441.8 546 367.4 497 308.4 497 c 0
 238.4 497 198 547 202.1 632 c 1
 231.7 644 l 1
149 -5 m 1
 131 -18 114 -28 103 -42 c 0
 85 -64 74 -91 74 -121 c 0
 74 -176 146 -195 177 -195 c 0
 224.3 -195 309 -192 351 -166 c 0
 367 -156.1 375 -143 375 -121 c 0
 375 -105 367 -76 342 -59 c 0
 303 -33 237 -17 168 -6 c 0
 162 -5 155 -6 149 -5 c 1
276 138 m 0
 247 138 206.5 147 192 161 c 1
 172 146 144 120 144 99 c 0
 144 76 169 63 207 54 c 0
 278 38 359 24 399 -4 c 0
 434 -28 441 -71 441 -95 c 0
 441 -147 411 -182 375 -202 c 0
 319 -233 205 -238 154 -238 c 0
 77 -238 1 -206.5 1 -150 c 0
 1 -107 13 -76 40 -45 c 0
 58 -24 83 -9 110 6 c 1
 92 17 79 43 79 70 c 0
 79 117 121 155 165 177 c 1
 140 199 121 240 121 284 c 0
 121 381 206 439 296 439 c 0
 326 439 362 431 380 431 c 0
 415 431 445 445 445 480 c 0
 445 489 442 497 434 506 c 1
 435 510 l 1
 452.4 514.5 470.4 522.2 483 533 c 1
 487 532 l 1
 499 514 503 495 503 474 c 0
 503 438 476 407 432 407 c 0
 424 407 414.8 407.3 411 408 c 1
 408 406 l 1
 432 382 453 342 453 304 c 0
 453 195 365 138 276 138 c 0
375 298 m 0
 375 359 343 400 289 400 c 0
 229 400 199 345 199 288 c 0
 199 233 227 177 285 177 c 0
 327 177 375 218 375 298 c 0
EndSplineSet
AlternateSubs2: "'aalt' Alle Alternativen zeigen 1" gbreve.sc
Substitution2: "'smcp' Gemeine nach Kapitaelchen 1" gbreve.sc
Colour: ff00ff
EndChar

StartChar: Gdotaccent
Encoding: 288 288 52
Width: 699
VWidth: 999
Flags: HW
HStem: -10 46<309.301 522.365> 611 47<398.219 603.897> 702 102<500.838 569.273>
VStem: 484.1 102<718.264 787.736>
LayerCount: 2
Fore
SplineSet
484.1 753 m 0
 489.8 780 518.9 804 545.9 804 c 0
 572.9 804 591.8 780 586.1 753 c 0
 580.4 726 551.2 702 524.2 702 c 0
 497.2 702 478.4 726 484.1 753 c 0
570.9 117 m 1
 585.4 192 597.2 250 601.3 307 c 1
 603.9 310 l 1
 603.9 310 620.3 307 654.3 307 c 0
 689.3 307 706.9 310 706.9 310 c 1
 707.3 307 l 1
 688 254 677 212 661.1 137 c 2
 659.8 131 l 2
 657.5 120 653.2 93.7 659.6 83 c 1
 659 80 l 1
 579.5 23.4 490.4 -10 373.9 -10 c 0
 172.9 -10 60.5 134 97.3 307 c 0
 144.1 527 348.9 658 520.9 658 c 0
 642.9 658 729.3 613 729.3 613 c 1
 730.7 610 l 1
 708.5 560.7 701.5 550 687.1 499 c 1
 676.9 498 l 1
 653.3 580 586.9 611 496.9 611 c 0
 361.9 611 241.7 502 204.5 327 c 0
 176.4 195 228.7 36 406.7 36 c 0
 460.7 36 520.9 42 561.7 74 c 1
 570.9 117 l 1
EndSplineSet
Position2: "'cpsp' Versalabstaende 1" dx=2 dy=0 dh=5 dv=0
Colour: ff00ff
EndChar

StartChar: gdotaccent
Encoding: 289 289 53
Width: 458
VWidth: 999
Flags: HW
HStem: -238 43<104.643 268.808> -15 62<144.479 280.677> -12 66<176.21 348.361> 136 44<212.762 321.705> 391 58<422.347 526.747> 395 44<243.264 354.815> 519 102<311.939 380.375>
VStem: 295.2 102<535.264 604.736>
LayerCount: 2
Fore
SplineSet
262.9 568.4 m 0
 262.9 595.4 286.9 619.4 313.9 619.4 c 0
 340.9 619.4 364.9 595.4 364.9 568.4 c 0
 364.9 541.4 340.9 517.4 313.9 517.4 c 0
 286.9 517.4 262.9 541.4 262.9 568.4 c 0
149 -5 m 1
 131 -18 114 -28 103 -42 c 0
 85 -64 74 -91 74 -121 c 0
 74 -176 146 -195 177 -195 c 0
 224.3 -195 309 -192 351 -166 c 0
 367 -156.1 375 -143 375 -121 c 0
 375 -105 367 -76 342 -59 c 0
 303 -33 237 -17 168 -6 c 0
 162 -5 155 -6 149 -5 c 1
276 138 m 0
 247 138 206.5 147 192 161 c 1
 172 146 144 120 144 99 c 0
 144 76 169 63 207 54 c 0
 278 38 359 24 399 -4 c 0
 434 -28 441 -71 441 -95 c 0
 441 -147 411 -182 375 -202 c 0
 319 -233 205 -238 154 -238 c 0
 77 -238 1 -206.5 1 -150 c 0
 1 -107 13 -76 40 -45 c 0
 58 -24 83 -9 110 6 c 1
 92 17 79 43 79 70 c 0
 79 117 121 155 165 177 c 1
 140 199 121 240 121 284 c 0
 121 381 206 439 296 439 c 0
 326 439 362 431 380 431 c 0
 415 431 445 445 445 480 c 0
 445 489 442 497 434 506 c 1
 435 510 l 1
 452.4 514.5 470.4 522.2 483 533 c 1
 487 532 l 1
 499 514 503 495 503 474 c 0
 503 438 476 407 432 407 c 0
 424 407 414.8 407.3 411 408 c 1
 408 406 l 1
 432 382 453 342 453 304 c 0
 453 195 365 138 276 138 c 0
375 298 m 0
 375 359 343 400 289 400 c 0
 229 400 199 345 199 288 c 0
 199 233 227 177 285 177 c 0
 327 177 375 218 375 298 c 0
EndSplineSet
Colour: ff00ff
EndChar

StartChar: Gcommaaccent
Encoding: 290 290 54
Width: 681
VWidth: 999
Flags: HW
HStem: -12 37<326 511> 271 36<523 595 687 741> 621 37<401 586>
VStem: 98 91<164 367> 678 31<448 521>
DStem2: 570 74 657 111 0.199368 0.979925<48.8994 167.574>
LayerCount: 2
Fore
SplineSet
366.3 -62 m 0
 404.3 -62 421.1 -96 410 -148 c 0
 397.2 -208 341.9 -238 283 -247 c 1
 278.3 -241 278.2 -232 280.1 -223 c 1
 331.4 -212 362.5 -188 366.3 -170 c 0
 370.6 -150 358.5 -146 340.9 -144 c 1
 324.5 -141 301.4 -132 307.1 -105 c 0
 312.2 -81 337.3 -62 366.3 -62 c 0
550.9 117 m 1
 565.4 192 577.2 250 581.3 307 c 1
 583.9 310 l 1
 583.9 310 600.3 307 634.3 307 c 0
 669.3 307 686.9 310 686.9 310 c 1
 687.3 307 l 1
 668 254 657 212 641.1 137 c 2
 639.8 131 l 2
 637.5 120 633.2 93.7 639.6 83 c 1
 639 80 l 1
 559.5 23.4 480.4 -10 363.9 -10 c 0
 162.9 -10 70.5 144 107.3 317 c 0
 154.1 537 320 658 510.9 658 c 0
 632.9 658 709.3 613 709.3 613 c 1
 710.7 610 l 1
 688.5 560.7 681.5 550 667.1 499 c 1
 656.9 498 l 1
 633.3 580 586.9 611 496.9 611 c 0
 361.9 611 251.7 512 214.5 337 c 0
 186.4 205 218.7 36 396.7 36 c 0
 450.7 36 500.9 42 541.7 74 c 1
 550.9 117 l 1
EndSplineSet
Position2: "'cpsp' Versalabstaende 1" dx=2 dy=0 dh=5 dv=0
Colour: ff00ff
EndChar

StartChar: gcommaaccent
Encoding: 291 291 55
Width: 458
VWidth: 999
Flags: HW
HStem: -237 39<121 307> -12 56<140 299> 125 28<218 304> 415 27<245 330> 418 41<427 507> 512 82<321 372> 681 10<361 408>
VStem: 9 60<-160 -67> 81 56<49 114> 118 73<178 349> 361 72<218 390> 387 55<-133 -46>
LayerCount: 2
Fore
SplineSet
313.5 511 m 0
 274.5 511 259.3 548 267 584 c 0
 272.1 608 283.7 630 304 650 c 0
 325.4 671.1 357.1 688 396.2 693 c 1
 399.3 689 398.4 680 396.9 673 c 1
 337.4 661 310.6 629 305.7 606 c 0
 301.5 586.4 307.7 593 331.9 593 c 0
 371.9 593 376.8 569 373.2 552 c 0
 369.8 536 348.5 511 313.5 511 c 0
149 -5 m 1
 131 -18 114 -28 103 -42 c 0
 85 -64 74 -91 74 -121 c 0
 74 -176 146 -195 177 -195 c 0
 224.3 -195 309 -192 351 -166 c 0
 367 -156.1 375 -143 375 -121 c 0
 375 -105 367 -76 342 -59 c 0
 303 -33 237 -17 168 -6 c 0
 162 -5 155 -6 149 -5 c 1
276 138 m 0
 247 138 206.5 147 192 161 c 1
 172 146 144 120 144 99 c 0
 144 76 169 63 207 54 c 0
 278 38 359 24 399 -4 c 0
 434 -28 441 -71 441 -95 c 0
 441 -147 411 -182 375 -202 c 0
 319 -233 205 -238 154 -238 c 0
 77 -238 1 -206.5 1 -150 c 0
 1 -107 13 -76 40 -45 c 0
 58 -24 83 -9 110 6 c 1
 92 17 79 43 79 70 c 0
 79 117 121 155 165 177 c 1
 140 199 121 240 121 284 c 0
 121 381 206 439 296 439 c 0
 326 439 362 431 380 431 c 0
 415 431 445 445 445 480 c 0
 445 489 442 497 434 506 c 1
 435 510 l 1
 452.4 514.5 470.4 522.2 483 533 c 1
 487 532 l 1
 499 514 503 495 503 474 c 0
 503 438 476 407 432 407 c 0
 424 407 414.8 407.3 411 408 c 1
 408 406 l 1
 432 382 453 342 453 304 c 0
 453 195 365 138 276 138 c 0
375 298 m 0
 375 359 343 400 289 400 c 0
 229 400 199 345 199 288 c 0
 199 233 227 177 285 177 c 0
 327 177 375 218 375 298 c 0
EndSplineSet
Colour: ff00ff
EndChar

StartChar: Hcircumflex
Encoding: 292 292 56
Width: 690
VWidth: 999
Flags: HW
HStem: -1 29<54 55 55 142 231 306 306 306 461 462 462 549 638 713 713 713> 324 39<282 602> 618 29<164 164 164 238 328 415 415 416 571 571 571 646 735 822 822 823>
DStem2: 150 72 231 72 0.173403 0.984851<1.95932 270.293 309.949 521.685> 558 72 638 72 0.173403 0.984851<1.95932 256.322 295.978 521.685>
LayerCount: 2
Fore
SplineSet
595.6 445 m 2
 611.5 520 624 588 628.1 645 c 1
 630.7 648 l 1
 630.7 648 647.1 645 681.1 645 c 0
 716.1 645 733.7 648 733.7 648 c 1
 734.1 645 l 1
 714.8 592 697.5 520 681.6 445 c 2
 629.5 200 l 2
 613.6 125 601.1 57 597 0 c 1
 594.4 -3 l 1
 594.4 -3 578 0 544 0 c 0
 509 0 491.4 -3 491.4 -3 c 1
 491 0 l 1
 510.5 54 527.6 125 543.5 200 c 2
 569.2 321 l 1
 257.2 321 l 1
 231.5 200 l 2
 215.6 125 203.1 57 199 0 c 1
 196.4 -3 l 1
 196.4 -3 180 0 146 0 c 0
 111 0 93.4 -3 93.4 -3 c 1
 93 0 l 1
 112.5 54 129.6 125 145.5 200 c 2
 197.6 445 l 2
 213.5 520 226 588 230.1 645 c 1
 232.7 648 l 1
 232.7 648 249.1 645 283.1 645 c 0
 318.1 645 335.7 648 335.7 648 c 1
 336.1 645 l 1
 316.8 592 299.5 520 283.6 445 c 2
 266.2 363 l 1
 578.2 363 l 1
 595.6 445 l 2
524.8 803 m 1
 547.1 767 575.5 736 605.8 709 c 1
 585.4 688 l 1
 550.2 706 520.3 725 492.6 750 c 1
 449.9 723 414 705 372.4 688 c 1
 362.8 709 l 1
 405.8 737 443.6 769 481.8 803 c 1
 524.8 803 l 1
EndSplineSet
Position2: "'cpsp' Versalabstaende 1" dx=2 dy=0 dh=5 dv=0
Colour: ff00ff
EndChar

StartChar: hcircumflex
Encoding: 293 293 57
Width: 514
VWidth: 999
Flags: HW
HStem: -12 53<390 444> 393 49<342 430> 646 27<161 213> 688 10<263 309>
DStem2: 73 0 151 12 0.22547 0.97425<29.8731 653.491> 354 114 431 122 0.25147 0.967865<-36.3554 239.649>
LayerCount: 2
Fore
SplineSet
418.8 832 m 1
 441.1 796 469.5 765 499.8 738 c 1
 479.4 717 l 1
 444.2 735 414.3 754 386.6 779 c 1
 343.9 752 308 734 266.4 717 c 1
 256.8 738 l 1
 299.8 766 337.6 798 375.8 832 c 1
 418.8 832 l 1
390.3 180 m 2
 412.6 285 l 2
 429.8 366 414.2 382 358.2 382 c 0
 329.2 382 280.7 356 222.7 309 c 1
 195.3 180 l 2
 179.1 103.8 170.6 57 167 0 c 1
 164.4 -3 l 1
 164.4 -3 151.3 0 117 0 c 0
 82 0 67.4 -3 67.4 -3 c 1
 67 0 l 1
 86.9 53.5 99.5 105.5 115.3 180 c 2
 179.1 481 l 2
 195.3 557 209.9 633.3 211.3 676 c 1
 213.9 679 l 1
 255 682 276 688 303.2 698 c 1
 309.5 698 311.6 695 310.1 688 c 0
 291.4 625.5 279.1 575 263.4 501 c 2
 233.5 360 l 1
 314.7 427 376.3 439 415.3 439 c 0
 487.3 439 514.3 387 492.4 284 c 2
 470.3 180 l 2
 454.1 103.8 445.6 57 442 0 c 1
 439.4 -3 l 1
 439.4 -3 426.3 0 392 0 c 0
 357 0 342.4 -3 342.4 -3 c 1
 342 0 l 1
 361.9 53.5 374.5 105.5 390.3 180 c 2
EndSplineSet
Colour: ff00ff
EndChar

StartChar: Hbar
Encoding: 294 294 58
Width: 700
VWidth: 999
Flags: HW
HStem: -3 21G<93 146 146 199 501 554 554 607> 512 34<157.056 764.829> 628 20G<230.099 283.099 283.099 336.099 638.099 691.099 691.099 744.099>
LayerCount: 2
Fore
SplineSet
579.2 321 m 1
 257.2 321 l 1
 231.5 200 l 2
 215.6 125 203.1 57 199 0 c 1
 196.4 -3 l 1
 196.4 -3 180 0 146 0 c 0
 111 0 93.4 -3 93.4 -3 c 1
 93 0 l 1
 112.5 54 129.6 125 145.5 200 c 2
 197.6 445 l 2
 202.5 468 207 490.4 211.1 512 c 1
 149.8 512 l 1
 157.1 546 l 1
 217.3 546 l 1
 223.4 581.7 227.9 614.9 230.1 645 c 1
 232.7 648 l 1
 232.7 648 249.1 645 283.1 645 c 0
 318.1 645 335.7 648 335.7 648 c 1
 336.1 645 l 1
 325.8 616.6 316.1 582.8 306.8 546 c 1
 625.3 546 l 1
 631.4 581.7 635.9 614.9 638.1 645 c 1
 640.7 648 l 1
 640.7 648 657.1 645 691.1 645 c 0
 726.1 645 743.7 648 743.7 648 c 1
 744.1 645 l 1
 733.8 616.6 724.1 582.8 714.8 546 c 1
 772.1 546 l 1
 764.8 512 l 1
 706.5 512 l 1
 701.4 490.2 696.4 467.8 691.6 445 c 2
 639.5 200 l 2
 623.6 125 611.1 57 607 0 c 1
 604.4 -3 l 1
 604.4 -3 588 0 554 0 c 0
 519 0 501.4 -3 501.4 -3 c 1
 501 0 l 1
 520.5 54 537.6 125 553.5 200 c 2
 579.2 321 l 1
588.2 363 m 1
 605.6 445 l 2
 610.5 468 615 490.4 619.1 512 c 1
 298.5 512 l 1
 293.4 490.2 288.4 467.8 283.6 445 c 2
 266.2 363 l 1
 588.2 363 l 1
EndSplineSet
Position2: "'cpsp' Versalabstaende 1" dx=2 dy=0 dh=5 dv=0
Colour: ff80cc
EndChar

StartChar: hbar
Encoding: 295 295 59
Width: 520
VWidth: 999
Flags: HW
HStem: -3 21G<73 123 123 173 348 398 398 448> 382 57<329.145 457.312> 530 39<146.944 453.655> 678 20G<298.763 315.531>
VStem: 215.4 103.8<618.643 670>
LayerCount: 2
Fore
SplineSet
396.3 180 m 2
 418.6 285 l 2
 435.8 366 420.2 382 364.2 382 c 0
 335.2 382 286.7 356 228.7 309 c 1
 201.3 180 l 2
 185.1 103.8 176.6 57 173 0 c 1
 170.4 -3 l 1
 170.4 -3 157.3 0 123 0 c 0
 88 0 73.4 -3 73.4 -3 c 1
 73 0 l 1
 92.9 53.5 105.5 105.5 121.3 180 c 2
 185.2 481 l 2
 188.7 497.7 192.2 514.1 195.3 530 c 1
 138.7 530 l 1
 146.9 569 l 1
 202.6 569 l 1
 209.8 609.4 214.6 644.6 215.4 670 c 1
 218.1 673 l 1
 259.2 676 285.2 688 312.4 698 c 1
 318.7 698 320.7 695 319.2 688 c 0
 305.4 647.2 294.9 610.7 284.8 569 c 1
 461.9 569 l 1
 453.7 530 l 1
 275.8 530 l 1
 273.7 520.7 271.6 511.1 269.5 501 c 2
 239.5 360 l 1
 320.7 427 382.3 439 421.3 439 c 0
 493.3 439 520.3 387 498.4 284 c 2
 476.3 180 l 2
 460.1 103.8 451.6 57 448 0 c 1
 445.4 -3 l 1
 445.4 -3 432.3 0 398 0 c 0
 363 0 348.4 -3 348.4 -3 c 1
 348 0 l 1
 367.9 53.5 380.5 105.5 396.3 180 c 2
EndSplineSet
Colour: ff80cc
EndChar

StartChar: Itilde
Encoding: 296 296 60
Width: 293
VWidth: 999
Flags: HW
HStem: -3 21G<96 149 149 202> 628 20G<233.099 286.099 286.099 339.099> 697 44<323.497 407.742> 745 46<202.601 289.268>
LayerCount: 2
Fore
SplineSet
370.5 741 m 0
 392.5 741 408.7 751 431.6 793 c 1
 454.3 787 l 1
 429.5 727 394.2 697 348.2 697 c 0
 326.2 697 307.7 709 289.7 723 c 0
 274 734 257.4 745 240.4 745 c 0
 214.4 745 198.2 730 181.2 697 c 1
 158.2 702 l 1
 184.7 761 214.1 791 257.1 791 c 0
 287.1 791 306.2 777 323.2 763 c 0
 336.6 751 351.5 741 370.5 741 c 0
200.6 445 m 2
 216.5 520 229 588 233.1 645 c 1
 235.7 648 l 1
 235.7 648 252.1 645 286.1 645 c 0
 321.1 645 338.7 648 338.7 648 c 1
 339.1 645 l 1
 319.8 592 302.5 520 286.6 445 c 2
 234.5 200 l 2
 218.6 125 206.1 57 202 0 c 1
 199.4 -3 l 1
 199.4 -3 183 0 149 0 c 0
 114 0 96.4 -3 96.4 -3 c 1
 96 0 l 1
 115.5 54 132.6 125 148.5 200 c 2
 200.6 445 l 2
EndSplineSet
Position2: "'cpsp' Versalabstaende 1" dx=2 dy=0 dh=5 dv=0
Colour: ff00ff
EndChar

StartChar: itilde
Encoding: 297 297 61
Width: 268
VWidth: 999
Flags: HW
HStem: -3 21G<84 134 134 184> 419 20G<254.75 271.312> 526 44<274.181 349.286> 574 46<165.712 242.947>
VStem: 171.4 103.8<361.258 411>
LayerCount: 2
Fore
SplineSet
316.3 570 m 0
 336.1 570 350.8 580 372.3 622 c 1
 392.6 616 l 1
 369 556 336.6 526 295.2 526 c 0
 275.4 526 259 538 243.1 552 c 0
 229.2 563 214.5 574 199.2 574 c 0
 175.8 574 160.9 559 144.9 526 c 1
 124.4 531 l 1
 149.5 590 176.6 620 215.3 620 c 0
 242.3 620 259.1 606 274.1 592 c 0
 286 580 299.2 570 316.3 570 c 0
144 235 m 2
 159.9 310 170.3 368 171.4 411 c 1
 174 414 l 1
 214.6 417 241.2 429 268.3 439 c 1
 274.3 439 276.7 436 275.2 429 c 0
 254.2 368 243.3 326 227.4 251 c 2
 212.3 180 l 2
 196.1 104 188.1 57 184 0 c 1
 181.4 -3 l 1
 181.4 -3 168 0 134 0 c 0
 99 0 84.4 -3 84.4 -3 c 1
 84 0 l 1
 103.5 54 116.4 105 132.3 180 c 2
 144 235 l 2
EndSplineSet
Colour: ff00ff
EndChar

StartChar: Imacron
Encoding: 298 298 62
Width: 293
VWidth: 999
Flags: HW
HStem: -3 21G<96 149 149 202> 628 20G<233.099 286.099 286.099 339.099> 733 44<169.596 447.892>
LayerCount: 2
Fore
SplineSet
420.8 733 m 2
 176.8 733 l 2
 167.8 733 165.5 741 167 748 c 0
 169.6 760 184.2 777 195.2 777 c 2
 440.2 777 l 2
 450.2 777 452.5 769 451.2 763 c 0
 448.6 751 433.8 733 420.8 733 c 2
200.6 445 m 2
 216.5 520 229 588 233.1 645 c 1
 235.7 648 l 1
 235.7 648 252.1 645 286.1 645 c 0
 321.1 645 338.7 648 338.7 648 c 1
 339.1 645 l 1
 319.8 592 302.5 520 286.6 445 c 2
 234.5 200 l 2
 218.6 125 206.1 57 202 0 c 1
 199.4 -3 l 1
 199.4 -3 183 0 149 0 c 0
 114 0 96.4 -3 96.4 -3 c 1
 96 0 l 1
 115.5 54 132.6 125 148.5 200 c 2
 200.6 445 l 2
EndSplineSet
Position2: "'cpsp' Versalabstaende 1" dx=2 dy=0 dh=5 dv=0
Colour: ff00ff
EndChar

StartChar: imacron
Encoding: 299 299 63
Width: 268
VWidth: 999
Flags: HW
HStem: -3 21G<84 134 134 184> 419 20G<254.75 271.312> 538 44<128.639 379.092>
VStem: 171.4 103.8<361.258 411>
LayerCount: 2
Fore
SplineSet
354.3 538 m 2
 134.7 538 l 2
 126.6 538 124.6 546 126.1 553 c 0
 128.7 565 142.2 582 152.1 582 c 2
 372.6 582 l 2
 381.6 582 383.5 574 382.2 568 c 0
 379.7 556 366 538 354.3 538 c 2
144 235 m 2
 159.9 310 170.3 368 171.4 411 c 1
 174 414 l 1
 214.6 417 241.2 429 268.3 439 c 1
 274.3 439 276.7 436 275.2 429 c 0
 254.2 368 243.3 326 227.4 251 c 2
 212.3 180 l 2
 196.1 104 188.1 57 184 0 c 1
 181.4 -3 l 1
 181.4 -3 168 0 134 0 c 0
 99 0 84.4 -3 84.4 -3 c 1
 84 0 l 1
 103.5 54 116.4 105 132.3 180 c 2
 144 235 l 2
EndSplineSet
Colour: ff00ff
EndChar

StartChar: Ibreve
Encoding: 300 300 64
Width: 293
VWidth: 999
Flags: HW
HStem: -3 21G<96 149 149 202> 628 20G<233.099 286.099 286.099 339.099> 692 52<232.673 378.54>
VStem: 184.1 28<771.38 805>
LayerCount: 2
Fore
SplineSet
456.1 805 m 1
 435 734 362.1 692 296.1 692 c 0
 223.1 692 174.2 735 184.1 805 c 1
 212.1 805 l 1
 211.8 766 254.1 744 307.1 744 c 0
 356.1 744 412.8 766 428.1 805 c 1
 456.1 805 l 1
200.6 445 m 2
 216.5 520 229 588 233.1 645 c 1
 235.7 648 l 1
 235.7 648 252.1 645 286.1 645 c 0
 321.1 645 338.7 648 338.7 648 c 1
 339.1 645 l 1
 319.8 592 302.5 520 286.6 445 c 2
 234.5 200 l 2
 218.6 125 206.1 57 202 0 c 1
 199.4 -3 l 1
 199.4 -3 183 0 149 0 c 0
 114 0 96.4 -3 96.4 -3 c 1
 96 0 l 1
 115.5 54 132.6 125 148.5 200 c 2
 200.6 445 l 2
EndSplineSet
Position2: "'cpsp' Versalabstaende 1" dx=2 dy=0 dh=5 dv=0
Colour: ff00ff
EndChar

StartChar: ibreve
Encoding: 301 301 65
Width: 268
VWidth: 999
Flags: HW
HStem: -12 55<154 222> 377 27<120 160> 432 10<257 275> 502 57<199 313>
VStem: 150 27<584 642>
DStem2: 124 113 200 122 0.228543 0.973534<-39.8436 255.088>
LayerCount: 2
Fore
SplineSet
167.5 650 m 1
 167.3 597 198.9 560 247.5 560 c 0
 294.3 560 341.8 592 361.9 650 c 1
 383.9 638 l 1
 356.6 552 289.7 503 236.6 503 c 0
 173.6 503 137.2 553 140.9 638 c 1
 167.5 650 l 1
144 235 m 2
 159.9 310 171.3 373 172.4 416 c 1
 175 419 l 1
 215.6 422 240.2 429 267.3 439 c 1
 273.3 439 275.7 436 274.2 429 c 0
 253.5 368 243.3 326 227.4 251 c 2
 212.3 180 l 2
 196.1 104 188.1 57 184 0 c 1
 181.4 -3 l 1
 181.4 -3 168 0 134 0 c 0
 99 0 84.4 -3 84.4 -3 c 1
 84 0 l 1
 103.5 54 116.4 105 132.3 180 c 2
 144 235 l 2
EndSplineSet
Colour: ff00ff
EndChar

StartChar: Iogonek
Encoding: 302 302 66
Width: 293
VWidth: 999
Flags: HW
HStem: -225 39<38.6204 113.621> -3 21G<96 149 149 202> 628 20G<233.099 286.099 286.099 339.099>
LayerCount: 2
Fore
SplineSet
44.2 -225 m 0
 -8.8 -225 -42.3 -194 -30.8 -140 c 0
 -20.8 -93.2 30.3 -36 96.3 -2.4 c 1
 96 0 l 1
 115.5 54 132.6 125 148.5 200 c 2
 200.6 445 l 2
 216.5 520 229 588 233.1 645 c 1
 235.7 648 l 1
 235.7 648 252.1 645 286.1 645 c 0
 321.1 645 338.7 648 338.7 648 c 1
 339.1 645 l 1
 319.8 592 302.5 520 286.6 445 c 2
 234.5 200 l 2
 218.6 125 206.1 57 202 0 c 1
 199.4 -3 l 1
 199.4 -3 194.6 -2.1 184.8 -1.3 c 1
 108.5 -6.6 42.4 -77.9 32 -127 c 0
 25.2 -159 41.5 -186 77.5 -186 c 0
 107.5 -186 131.6 -171 155.1 -150 c 1
 168.4 -158 l 1
 134.4 -205 80.2 -225 44.2 -225 c 0
EndSplineSet
Position2: "'cpsp' Versalabstaende 1" dx=2 dy=0 dh=5 dv=0
Colour: ff80cc
EndChar

StartChar: iogonek
Encoding: 303 303 67
Width: 268
VWidth: 999
Flags: HW
HStem: -225 39<16.5764 91.0415> -3 21G<84 134 134 184> 419 20G<254.75 271.312> 519 102<220.939 289.375>
VStem: 171.4 103.8<361.258 411>
LayerCount: 2
Fore
SplineSet
22.2 -225 m 0
 -31.8 -225 -64.3 -194 -52.8 -140 c 0
 -42.3 -90.5 13.6 -29.4 85.1 3.1 c 1
 104 56 116.7 106.4 132.3 180 c 2
 144 235 l 2
 159.9 310 170.3 368 171.4 411 c 1
 174 414 l 1
 214.6 417 241.2 429 268.3 439 c 1
 274.3 439 276.7 436 275.2 429 c 0
 254.2 368 243.3 326 227.4 251 c 2
 212.3 180 l 2
 196.1 104 188.1 57 184 0 c 1
 181.4 -3 l 1
 181.4 -3 176.7 -2 165.9 -1.1 c 1
 88 -4.1 20.6 -77.1 10 -127 c 0
 3.2 -159 19.5 -186 55.5 -186 c 0
 84.5 -186 108.6 -171 132.1 -150 c 1
 146.4 -158 l 1
 112.4 -205 57.2 -225 22.2 -225 c 0
204.2 570 m 0
 209.9 597 239 621 266 621 c 0
 293 621 311.9 597 306.2 570 c 0
 300.5 543 271.3 519 244.3 519 c 0
 217.3 519 198.5 543 204.2 570 c 0
EndSplineSet
Colour: ff80cc
EndChar

StartChar: Idotaccent
Encoding: 304 304 68
Width: 293
VWidth: 999
Flags: HW
HStem: -3 21G<96 149 149 202> 628 20G<233.099 286.099 286.099 339.099> 699 102<271.2 339.635>
VStem: 96.4 260.1
LayerCount: 2
Fore
SplineSet
254.4 750 m 0
 260.1 777 289.3 801 316.3 801 c 0
 343.3 801 362.2 777 356.5 750 c 0
 350.8 723 321.6 699 294.6 699 c 0
 267.6 699 248.7 723 254.4 750 c 0
200.6 445 m 2
 216.5 520 229 588 233.1 645 c 1
 235.7 648 l 1
 235.7 648 252.1 645 286.1 645 c 0
 321.1 645 338.7 648 338.7 648 c 1
 339.1 645 l 1
 319.8 592 302.5 520 286.6 445 c 2
 234.5 200 l 2
 218.6 125 206.1 57 202 0 c 1
 199.4 -3 l 1
 199.4 -3 183 0 149 0 c 0
 114 0 96.4 -3 96.4 -3 c 1
 96 0 l 1
 115.5 54 132.6 125 148.5 200 c 2
 200.6 445 l 2
EndSplineSet
Substitution2: "'c2sc' Versale nach Kapitaelchen 1" idotaccent.sc
Position2: "'cpsp' Versalabstaende 1" dx=2 dy=0 dh=5 dv=0
Colour: ff00ff
EndChar

StartChar: afii10057
Encoding: 1032 1032 69
Width: 385
VWidth: 999
Flags: HW
HStem: -10 60<59.8406 172.65> 628 20G<337.099 390.099 390.099 443.099>
AnchorPoint: "top_akzent" 423.3 806 basechar 0
AnchorPoint: "top_punkt" 404.7 723 basechar 0
LayerCount: 2
Fore
SplineSet
264.8 258 m 2
 304.6 445 l 2
 320.5 520 333 588 337.1 645 c 1
 339.7 648 l 1
 339.7 648 356.1 645 390.1 645 c 0
 425.1 645 442.7 648 442.7 648 c 1
 443.1 645 l 1
 423.8 592 406.5 520 390.6 445 c 2
 355.5 280 l 2
 331.2 165.5 314.7 135 247 66 c 0
 194.5 12 135.9 -10 72.9 -10 c 0
 53.9 -10 36.7 -6 29.8 -1 c 1
 29.4 2 l 1
 44.4 21 62.2 57 74.9 84 c 1
 86.1 85 l 1
 92.8 65 107.6 50 136.6 50 c 0
 215.6 50 246.1 170 264.8 258 c 2
EndSplineSet
EndChar

StartChar: afii10061
Encoding: 1036 1036 70
Width: 632
VWidth: 999
Flags: HW
HStem: -3 20G<96 149 149 202 450.333 477.862 585.862 596> 569 89<585.951 682.41> 628 20G<233.099 286.099 286.099 339.099> 698 21G<446.864 455.864>
LayerCount: 2
Fore
SplineSet
601.3 820 m 1
 627.1 806.7 644.1 789.3 652.2 768 c 1
 495.9 710 l 2
 473 701 460.4 698 451.4 698 c 0
 442.4 698 437.9 705 439.6 713 c 0
 441.1 720 444.1 725 459 734 c 2
 601.3 820 l 1
200.6 445 m 2
 216.5 520 229 588 233.1 645 c 1
 235.7 648 l 1
 235.7 648 252.1 645 286.1 645 c 0
 321.1 645 338.7 648 338.7 648 c 1
 339.1 645 l 1
 319.8 592 302.5 520 286.6 445 c 2
 267.9 357.1 l 1
 357.7 360.1 380.4 443.6 459.9 531 c 0
 516.4 593.1 588.9 658 666.9 658 c 0
 693.9 658 697.2 655 721.7 648 c 1
 725.5 642 l 1
 677.1 551 l 1
 664.5 548 l 1
 647.5 562 631.9 569 603.9 569 c 0
 580.9 569 540.9 550 494.7 502 c 0
 437.7 442.8 404.6 360 357.3 340 c 1
 356.6 337 l 1
 426 325 440.2 297 479.4 237 c 0
 543.8 140 530.9 89 596 0 c 1
 592.1 -4 l 1
 579.5 -2 541 0 516 0 c 0
 490 0 489.5 -2 466.1 -4 c 1
 434.5 73 423.8 117 406.9 169 c 0
 381.9 245.8 364.3 303.2 258.2 311.6 c 1
 234.5 200 l 2
 218.6 125 206.1 57 202 0 c 1
 199.4 -3 l 1
 199.4 -3 183 0 149 0 c 0
 114 0 96.4 -3 96.4 -3 c 1
 96 0 l 1
 115.5 54 132.6 125 148.5 200 c 2
 200.6 445 l 2
EndSplineSet
LCarets2: 1 0 
Colour: ff00ff
EndChar

StartChar: uni040D
Encoding: 1037 1037 71
Width: 700
VWidth: 999
Flags: HW
HStem: -3 21G<96 149 149 202 502 555 555 608> 628 20G<233.099 286.099 286.099 339.099 639.099 692.099 692.099 745.099> 698 21G<564.364 572.364>
LayerCount: 2
Fore
SplineSet
472.9 818 m 1
 576 734 l 2
 585.3 726 588.1 720 586.6 713 c 0
 584.9 705 576.4 698 568.4 698 c 0
 560.4 698 547 701 527.9 710 c 2
 387.3 773 l 1
 409.3 790.7 436.2 806.4 472.9 818 c 1
200.6 445 m 2
 216.5 520 229 588 233.1 645 c 1
 235.7 648 l 1
 235.7 648 252.1 645 286.1 645 c 0
 321.1 645 338.7 648 338.7 648 c 1
 339.1 645 l 1
 319.8 592 302.5 520 286.6 445 c 2
 234.5 200 l 2
 230.2 179.9 226.2 160.2 222.5 141.2 c 1
 627.9 555.5 l 1
 633.2 587.6 637.1 617.6 639.1 645 c 1
 641.7 648 l 1
 641.7 648 658.1 645 692.1 645 c 0
 727.1 645 744.7 648 744.7 648 c 1
 745.1 645 l 1
 725.8 592 708.5 520 692.6 445 c 2
 640.5 200 l 2
 624.6 125 612.1 57 608 0 c 1
 605.4 -3 l 1
 605.4 -3 589 0 555 0 c 0
 520 0 502.4 -3 502.4 -3 c 1
 502 0 l 1
 521.5 54 538.6 125 554.5 200 c 2
 606.6 445 l 2
 610.7 464.4 614.6 483.4 618.2 501.8 c 1
 212.9 87.5 l 1
 207.8 56.2 203.9 26.9 202 0 c 1
 199.4 -3 l 1
 199.4 -3 183 0 149 0 c 0
 114 0 96.4 -3 96.4 -3 c 1
 96 0 l 1
 115.5 54 132.6 125 148.5 200 c 2
 200.6 445 l 2
EndSplineSet
LCarets2: 1 0 
Colour: ff00ff
EndChar

StartChar: afii10062
Encoding: 1038 1038 72
Width: 580
VWidth: 999
Flags: HW
HStem: -22 67<128.324 228.056> 628 20G<191.917 195.068 289.917 299.832 589.354 619.417 685.491 692.417> 697 31<424.167 515.202>
VStem: 183.7 115<569.496 648> 351.1 66.9<733.198 800.685>
LayerCount: 2
Fore
SplineSet
466.7 728 m 0
 499.7 728 526.4 745 530 762 c 0
 531.1 767 531.3 773 531.7 775 c 0
 534.9 790 548.1 805 571.1 805 c 0
 598.1 805 605.1 791 601.1 772 c 0
 590 720 526.2 697 460.2 697 c 0
 394.2 697 340 720 351.1 772 c 0
 355.1 791 368.1 805 395.1 805 c 0
 418.1 805 424.9 790 421.7 775 c 0
 421.3 773 419.1 767 418 762 c 0
 414.4 745 433.7 728 466.7 728 c 0
376.2 161 m 2
 305.4 54.1 239.3 -22 149.3 -22 c 0
 107.3 -22 66.2 1 73 33 c 0
 79 61 98.9 84 130.9 84 c 0
 144.9 84 165.4 77 172.8 65 c 0
 177.9 56 190.6 45 204.6 45 c 0
 247.3 45 271.2 81.1 308 138.3 c 1
 264.6 339.9 206.4 567.8 183.7 648 c 1
 200.1 645 226.1 645 243.1 645 c 0
 260.1 645 281.1 645 298.7 648 c 1
 300.9 618 324.1 470.1 374.8 242.5 c 1
 466.7 386.9 564.9 546.4 613.7 648 c 1
 625.1 645 652.1 645 663.1 645 c 0
 674.1 645 686.1 645 698.7 648 c 1
 376.2 161 l 2
EndSplineSet
LCarets2: 1 0 
Colour: ff00ff
EndChar

StartChar: afii10020
Encoding: 1043 1043 73
Width: 481
VWidth: 999
Flags: HW
HStem: -3 21G<88 142 142 195> 579 21G<318.621 600.921> 591 54<310.835 536.575>
LayerCount: 2
Fore
SplineSet
279.6 445 m 2
 227.5 200 l 2
 211.6 125 198.3 53 195 0 c 1
 193.4 -3 l 1
 193.4 -3 177 0 142 0 c 0
 108 0 89.4 -3 89.4 -3 c 1
 88 0 l 1
 108.1 57 125.6 125 141.5 200 c 2
 193.6 445 l 2
 209.5 520 222.6 591 226.1 645 c 1
 227.7 648 l 1
 227.7 648 245.1 645 279.1 645 c 2
 552.1 645 l 2
 573.1 645 596.3 646 612.7 648 c 1
 614.1 645 l 1
 610.1 631 608 626 605.9 616 c 0
 603.8 606 601.6 591 600.9 583 c 1
 598.1 579 l 1
 598.1 579 452.6 591 318.6 591 c 1
 306.5 567 283.2 462 279.6 445 c 2
EndSplineSet
Colour: ff00ff
EndChar

StartChar: afii10021
Encoding: 1044 1044 74
Width: 708
VWidth: 999
Flags: HW
HStem: 0 44<206.807 465.308> 601 44<399.792 577.746>
LayerCount: 2
Fore
SplineSet
434.4 44 m 2
 452.4 44 460.6 50 465.5 59 c 0
 477.6 83 499.9 183 503.5 200 c 2
 555.6 445 l 2
 559.2 462 579.9 564 578 588 c 1
 572.9 597 569.7 601 554.7 601 c 2
 440.7 601 l 2
 413.7 601 401.6 591 394.3 566 c 0
 364.8 465 327.8 361 301.3 293 c 0
 254.4 176 208.4 77 203.9 56 c 0
 201.3 44 214.4 44 228.4 44 c 2
 434.4 44 l 2
178 0 m 2
 98 0 72.2 -65 45.7 -138 c 1
 43 -141 l 1
 11 -141 l 1
 9.7 -138 l 1
 29.3 11 l 2
 31.4 21 38.2 29 63.8 32 c 0
 84.4 34.4 104.8 32 122 47 c 0
 153.5 73 186.8 145 252 301 c 1
 298.2 415 332.1 518 345.5 581 c 0
 350.2 603 351.8 625 353.1 645 c 1
 354.7 648 l 1
 354.7 648 381.1 645 415.1 645 c 2
 641.1 645 l 2
 675.1 645 693.7 648 693.7 648 c 1
 694.1 645 l 1
 674.6 591 657.5 520 641.6 445 c 2
 589.5 200 l 2
 566.1 90 561.4 35 594.8 32 c 0
 619.4 30 622.4 21 620.3 11 c 2
 576.7 -138 l 1
 574 -141 l 1
 542 -141 l 1
 540.7 -138 l 1
 545.2 -65 547 0 467 0 c 2
 178 0 l 2
EndSplineSet
EndChar

StartChar: afii10024
Encoding: 1046 1046 75
Width: 924
VWidth: 999
Flags: HW
HStem: -4 22G<35 43.8623 146.362 188.333 409 462 462 515 750.333 776.362 878.862 889> 569 89<192.234 306.979 886.903 977.249> 628 20G<546.099 599.099 599.099 652.099>
LayerCount: 2
Fore
SplineSet
284.9 169 m 0
 247.8 117 219.5 73 157.1 -4 c 1
 135.5 -2 136 0 111 0 c 0
 88 0 50.5 -2 37.1 -4 c 1
 35 0 l 1
 133.9 89 142.8 140 244.4 237 c 0
 307.2 297 331 325 402.6 337 c 1
 403.3 340 l 1
 366.6 360 369.2 443 339.7 502 c 0
 315.9 550 285.9 569 263.9 569 c 0
 236.9 569 219.5 562 197.5 548 c 1
 187.1 551 l 1
 178.5 642 l 1
 184.7 648 l 1
 211.2 655 214.9 658 240.9 658 c 0
 314.9 658 357.1 593 384.9 531 c 0
 424.2 443.7 411.4 360.3 494.9 357.1 c 1
 513.6 445 l 2
 529.5 520 542 588 546.1 645 c 1
 548.7 648 l 1
 548.7 648 565.1 645 599.1 645 c 0
 634.1 645 651.7 648 651.7 648 c 1
 652.1 645 l 1
 632.8 592 615.5 520 599.6 445 c 2
 580.9 357.1 l 1
 665.7 360.3 688.5 443.7 764.9 531 c 0
 819.1 593 888.9 658 962.9 658 c 0
 988.9 658 991.2 655 1014.7 648 c 1
 1018.5 642 l 1
 971.1 551 l 1
 959.5 548 l 1
 943.5 562 928.9 569 901.9 569 c 0
 879.9 569 841.9 550 797.7 502 c 0
 743.2 443 710.6 360 665.3 340 c 1
 664.6 337 l 1
 731 325 743.2 297 780.4 237 c 0
 840.8 140 827.9 89 889 0 c 1
 885.1 -4 l 1
 872.5 -2 836 0 813 0 c 0
 788 0 787.5 -2 765.1 -4 c 1
 735.5 73 725.8 117 710.9 169 c 0
 687.9 245.8 671.3 303.1 571.2 311.6 c 1
 547.5 200 l 2
 531.6 125 519.1 57 515 0 c 1
 512.4 -3 l 1
 512.4 -3 496 0 462 0 c 0
 427 0 409.4 -3 409.4 -3 c 1
 409 0 l 1
 428.5 54 445.6 125 461.5 200 c 2
 485.2 311.6 l 1
 381.5 303.1 340.6 245.8 284.9 169 c 0
EndSplineSet
Colour: ff80cc
EndChar

StartChar: afii10025
Encoding: 1047 1047 76
Width: 542
VWidth: 999
Flags: HW
HStem: -12 37<182.33 334.084> 336 37<233.396 390.364> 469 21G<149.114 199.298> 624 34<295.67 439.465>
VStem: 61.1 83.4<57.7387 156.984>
LayerCount: 2
Fore
SplineSet
253.3 25 m 0
 323.3 25 419.4 68 442.4 176 c 0
 453.2 227 437.4 336 320.4 336 c 2
 247.4 336 l 2
 236.4 336 230.9 343 233.2 354 c 0
 235.5 365 244.3 373 255.3 373 c 2
 302.3 373 l 2
 421.3 373 470.9 451 482.6 506 c 0
 496.8 573 443.6 624 381.6 624 c 0
 258.6 624 219.9 550 178.7 469 c 1
 149.1 471 l 1
 206.3 646 l 1
 293.3 646 330.9 658 390.9 658 c 0
 483.9 658 584.9 611 564.7 516 c 0
 547.9 437 494.2 387 416.5 360 c 1
 483.2 340 560.5 299 537.8 192 c 0
 505.7 41 360.4 -12 242.4 -12 c 0
 161.4 -12 119 19 93.1 43 c 0
 70.6 64 55.4 91 61.1 118 c 0
 66.6 144 82.1 165 105.1 165 c 0
 133.1 165 140.3 152 144.5 120 c 0
 152.5 59 177.3 25 253.3 25 c 0
EndSplineSet
EndChar

StartChar: afii10026
Encoding: 1048 1048 77
Width: 700
VWidth: 999
Flags: HW
HStem: -3 21G<96 149 149 202 502 555 555 608> 628 20G<233.099 286.099 286.099 339.099 639.099 692.099 692.099 745.099>
LayerCount: 2
Fore
SplineSet
200.6 445 m 2
 216.5 520 229 588 233.1 645 c 1
 235.7 648 l 1
 235.7 648 252.1 645 286.1 645 c 0
 321.1 645 338.7 648 338.7 648 c 1
 339.1 645 l 1
 319.8 592 302.5 520 286.6 445 c 2
 234.5 200 l 2
 230.2 179.9 226.2 160.2 222.5 141.2 c 1
 627.9 555.5 l 1
 633.2 587.6 637.1 617.6 639.1 645 c 1
 641.7 648 l 1
 641.7 648 658.1 645 692.1 645 c 0
 727.1 645 744.7 648 744.7 648 c 1
 745.1 645 l 1
 725.8 592 708.5 520 692.6 445 c 2
 640.5 200 l 2
 624.6 125 612.1 57 608 0 c 1
 605.4 -3 l 1
 605.4 -3 589 0 555 0 c 0
 520 0 502.4 -3 502.4 -3 c 1
 502 0 l 1
 521.5 54 538.6 125 554.5 200 c 2
 606.6 445 l 2
 610.7 464.4 614.6 483.4 618.2 501.8 c 1
 212.9 87.5 l 1
 207.8 56.2 203.9 26.9 202 0 c 1
 199.4 -3 l 1
 199.4 -3 183 0 149 0 c 0
 114 0 96.4 -3 96.4 -3 c 1
 96 0 l 1
 115.5 54 132.6 125 148.5 200 c 2
 200.6 445 l 2
EndSplineSet
EndChar

StartChar: afii10027
Encoding: 1049 1049 78
Width: 700
VWidth: 999
Flags: HW
HStem: -3 21G<96 149 149 202 502 555 555 608> 628 20G<233.099 286.099 286.099 339.099 639.099 692.099 692.099 745.099> 697 31<463.167 554.202>
VStem: 390.1 66.9<733.198 800.685>
LayerCount: 2
Fore
SplineSet
505.7 728 m 0
 538.7 728 565.4 745 569 762 c 0
 570.1 767 570.3 773 570.7 775 c 0
 573.9 790 587.1 805 610.1 805 c 0
 637.1 805 644.1 791 640.1 772 c 0
 629 720 565.2 697 499.2 697 c 0
 433.2 697 379 720 390.1 772 c 0
 394.1 791 407.1 805 434.1 805 c 0
 457.1 805 463.9 790 460.7 775 c 0
 460.3 773 458.1 767 457 762 c 0
 453.4 745 472.7 728 505.7 728 c 0
200.6 445 m 2
 216.5 520 229 588 233.1 645 c 1
 235.7 648 l 1
 235.7 648 252.1 645 286.1 645 c 0
 321.1 645 338.7 648 338.7 648 c 1
 339.1 645 l 1
 319.8 592 302.5 520 286.6 445 c 2
 234.5 200 l 2
 230.2 179.9 226.2 160.2 222.5 141.2 c 1
 627.9 555.5 l 1
 633.2 587.6 637.1 617.6 639.1 645 c 1
 641.7 648 l 1
 641.7 648 658.1 645 692.1 645 c 0
 727.1 645 744.7 648 744.7 648 c 1
 745.1 645 l 1
 725.8 592 708.5 520 692.6 445 c 2
 640.5 200 l 2
 624.6 125 612.1 57 608 0 c 1
 605.4 -3 l 1
 605.4 -3 589 0 555 0 c 0
 520 0 502.4 -3 502.4 -3 c 1
 502 0 l 1
 521.5 54 538.6 125 554.5 200 c 2
 606.6 445 l 2
 610.7 464.4 614.6 483.4 618.2 501.8 c 1
 212.9 87.5 l 1
 207.8 56.2 203.9 26.9 202 0 c 1
 199.4 -3 l 1
 199.4 -3 183 0 149 0 c 0
 114 0 96.4 -3 96.4 -3 c 1
 96 0 l 1
 115.5 54 132.6 125 148.5 200 c 2
 200.6 445 l 2
EndSplineSet
LCarets2: 1 0 
Colour: ff00ff
EndChar

StartChar: afii10033
Encoding: 1055 1055 79
Width: 708
VWidth: 999
Flags: HW
HStem: -3 21G<90 144 144 197 511 564 564 618> 601 44<320.398 637.746>
LayerCount: 2
Fore
SplineSet
701.1 645 m 2
 735.1 645 753.7 648 753.7 648 c 1
 754.1 645 l 1
 734.6 591 717.5 520 701.6 445 c 2
 649.5 200 l 2
 633.6 125 622.1 57 618 0 c 1
 615.4 -3 l 1
 615.4 -3 598 0 564 0 c 0
 529 0 511.4 -3 511.4 -3 c 1
 511 0 l 1
 530.3 53 547.6 125 563.5 200 c 2
 615.6 445 l 2
 619.2 462 639.9 564 638 588 c 1
 632.9 597 629.7 601 614.7 601 c 2
 348.7 601 l 2
 333.7 601 328.9 597 320 588 c 1
 307.9 564 285.2 462 281.6 445 c 2
 229.5 200 l 2
 213.6 125 200.3 53 197 0 c 1
 195.4 -3 l 1
 195.4 -3 179 0 144 0 c 0
 110 0 91.4 -3 91.4 -3 c 1
 90 0 l 1
 110.1 57 127.6 125 143.5 200 c 2
 195.6 445 l 2
 211.5 520 224.6 591 228.1 645 c 1
 229.7 648 l 1
 229.7 648 247.1 645 281.1 645 c 2
 701.1 645 l 2
EndSplineSet
Colour: ff00ff
EndChar

StartChar: afii10034
Encoding: 1056 1056 80
Width: 522
VWidth: 999
Flags: HW
HStem: -3 21G<93 146 146 199> 282 34<258.727 409.313> 618 34<304.197 471.719>
LayerCount: 2
Fore
SplineSet
311 574 m 2
 258.3 326 l 1
 269.8 319 300.2 316 325.2 316 c 0
 422.2 316 477.5 360 500.5 468 c 0
 527.5 595 469.4 618 400.4 618 c 0
 328.4 618 317.2 603 311 574 c 2
197.6 445 m 2
 213.5 520 226 588 230.1 645 c 1
 232.7 648 l 1
 232.7 648 249.1 645 283.1 645 c 0
 313.1 645 388.6 652 414.6 652 c 0
 599.6 652 613.8 545 601.3 486 c 0
 583.2 401 504.9 282 322.9 282 c 0
 287.9 282 271.6 285 251.1 292 c 1
 231.5 200 l 2
 215.6 125 203.1 57 199 0 c 1
 196.4 -3 l 1
 196.4 -3 180 0 146 0 c 0
 111 0 93.4 -3 93.4 -3 c 1
 93 0 l 1
 112.5 54 129.6 125 145.5 200 c 2
 197.6 445 l 2
EndSplineSet
Colour: ff00ff
EndChar

StartChar: afii10035
Encoding: 1057 1057 81
Width: 650
VWidth: 999
Flags: HW
HStem: -10 51<283.742 466.244> 611 47<398.123 587.897>
LayerCount: 2
Fore
SplineSet
504.9 658 m 0
 626.9 658 713.3 613 713.3 613 c 1
 714.7 610 l 1
 692.5 560.7 685.5 550 671.1 499 c 1
 660.9 498 l 1
 637.3 580 570.9 611 480.9 611 c 0
 398.9 611 254.1 537 211 334 c 0
 180 188 213.7 41 368.7 41 c 0
 461.7 41 534.2 62 621.8 140 c 1
 641.6 125 l 1
 554.7 36 445.9 -10 348.9 -10 c 0
 133.9 -10 69.8 154 104 315 c 0
 145.9 512 335.9 658 504.9 658 c 0
EndSplineSet
Colour: ff00ff
EndChar

StartChar: afii10036
Encoding: 1058 1058 82
Width: 540
VWidth: 999
Flags: HW
HStem: -3 21G<217 270 270 323> 574 74<152.099 213.113 601.085 647.857> 586 59<155.471 343.559 437.871 644.96>
LayerCount: 2
Fore
SplineSet
321.6 445 m 2
 325.2 462 345.5 562 343.6 586 c 1
 209.6 586 139 574 139 574 c 1
 137.9 578 l 1
 143.1 593 148.1 617 152.1 645 c 1
 154.7 648 l 1
 170.3 646 193.1 645 214.1 645 c 2
 600.1 645 l 2
 621.1 645 644.3 646 660.7 648 c 1
 662.1 645 l 1
 654.1 617 649.1 593 647.9 578 c 1
 645 574 l 1
 645 574 579.6 586 445.6 586 c 1
 433.5 562 411.2 462 407.6 445 c 2
 355.5 200 l 2
 339.6 125 327.1 57 323 0 c 1
 320.4 -3 l 1
 320.4 -3 304 0 270 0 c 0
 235 0 217.4 -3 217.4 -3 c 1
 217 0 l 1
 236.5 54 253.6 125 269.5 200 c 2
 321.6 445 l 2
EndSplineSet
Colour: ff00ff
EndChar

StartChar: afii10037
Encoding: 1059 1059 83
Width: 580
VWidth: 999
Flags: HW
HStem: -22 67<128.324 228.056> 628 20G<191.917 195.068 289.917 299.832 589.354 619.417 685.491 692.417>
VStem: 183.7 115<569.496 648>
LayerCount: 2
Fore
SplineSet
376.2 161 m 2
 305.4 54.1 239.3 -22 149.3 -22 c 0
 107.3 -22 66.2 1 73 33 c 0
 79 61 98.9 84 130.9 84 c 0
 144.9 84 165.4 77 172.8 65 c 0
 177.9 56 190.6 45 204.6 45 c 0
 247.3 45 271.2 81.1 308 138.3 c 1
 264.6 339.9 206.4 567.8 183.7 648 c 1
 200.1 645 226.1 645 243.1 645 c 0
 260.1 645 281.1 645 298.7 648 c 1
 300.9 618 324.1 470.1 374.8 242.5 c 1
 466.7 386.9 564.9 546.4 613.7 648 c 1
 625.1 645 652.1 645 663.1 645 c 0
 674.1 645 686.1 645 698.7 648 c 1
 376.2 161 l 2
EndSplineSet
EndChar

StartChar: afii10039
Encoding: 1061 1061 84
Width: 571
VWidth: 999
Flags: HW
HStem: -3 21G<28.1812 241.888 406.365 446.681 474.13 544.681> 628 20G<193.917 257.983 289.417 313.272 529.085 596.917 626.094 669.917>
LayerCount: 2
Fore
SplineSet
553.4 -3 m 1
 536 0 514 0 496 0 c 0
 478 0 456 0 437.4 -3 c 1
 405.6 100.1 378.2 182.6 339.6 282.7 c 1
 263 194.9 182.6 98.1 106.4 -3 c 1
 96 0 77 0 65 0 c 0
 54 0 34 0 22.4 -3 c 1
 157.7 149.6 251.7 254.2 320.8 330.7 c 1
 287 415.3 244.6 514.7 185.7 648 c 1
 202.1 645 224.1 645 241.1 645 c 0
 258.1 645 280.1 645 298.7 648 c 1
 314.4 589.8 341.2 519.1 387.5 404.5 c 1
 487 514.7 519.2 551.7 591.7 648 c 1
 602.1 645 622.1 645 633.1 645 c 0
 644.1 645 664.1 645 675.7 648 c 1
 621.4 589.2 521.4 486.4 406.3 358.1 c 1
 443.5 266.7 491.5 150.3 553.4 -3 c 1
EndSplineSet
Colour: ff00ff
EndChar

StartChar: afii10040
Encoding: 1062 1062 85
Width: 639
VWidth: 999
Flags: HW
HStem: 0 44<195.595 462.308> 628 20G<215.099 269.099 269.099 322.099 585.099 638.099 638.099 692.099>
VStem: 585.1 107<576.447 645>
LayerCount: 2
Fore
SplineSet
586.5 200 m 2
 563.1 90 557.7 35 590.8 32 c 0
 615.2 29.8 618.4 20.7 616.3 11 c 2
 572.7 -138 l 1
 570 -141 l 1
 538 -141 l 1
 536.7 -138 l 1
 541.2 -65.4 542.7 0 463 0 c 2
 132 0 l 2
 98 0 79.4 -3 79.4 -3 c 1
 79 0 l 1
 98.5 54 115.6 125 131.5 200 c 2
 183.6 445 l 2
 199.5 520 211 588 215.1 645 c 1
 217.7 648 l 1
 217.7 648 235.1 645 269.1 645 c 0
 304.1 645 321.7 648 321.7 648 c 1
 322.1 645 l 1
 302.8 592 285.5 520 269.6 445 c 2
 217.5 200 l 2
 213.9 183 193.6 83 195.5 59 c 0
 196.6 50 202.4 44 220.4 44 c 2
 431.4 44 l 2
 449.4 44 457.6 50 462.5 59 c 0
 474.6 83 496.9 183 500.5 200 c 2
 552.6 445 l 2
 568.5 520 581.8 592 585.1 645 c 1
 586.7 648 l 1
 586.7 648 603.1 645 638.1 645 c 0
 672.1 645 690.7 648 690.7 648 c 1
 692.1 645 l 1
 672 588 654.5 520 638.6 445 c 2
 586.5 200 l 2
EndSplineSet
EndChar

StartChar: afii10041
Encoding: 1063 1063 86
Width: 633
VWidth: 999
Flags: HW
HStem: -3 21G<436 489 489 542> 244 64<282.025 420.429> 628 20G<221.099 274.099 274.099 327.099 573.099 626.099 626.099 679.099>
LayerCount: 2
Fore
SplineSet
274.6 445 m 2
 268.6 417 l 2
 251.2 335 285.5 308 357.5 308 c 0
 386 308 449.3 311.9 521 353 c 1
 540.6 445 l 2
 556.5 520 569 588 573.1 645 c 1
 575.7 648 l 1
 575.7 648 592.1 645 626.1 645 c 0
 661.1 645 678.7 648 678.7 648 c 1
 679.1 645 l 1
 659.8 592 642.5 520 626.6 445 c 2
 574.5 200 l 2
 558.6 125 546.1 57 542 0 c 1
 539.4 -3 l 1
 539.4 -3 523 0 489 0 c 0
 454 0 436.4 -3 436.4 -3 c 1
 436 0 l 1
 455.5 54 472.6 125 488.5 200 c 2
 511.7 308.9 l 1
 429.3 259.5 359.1 244 301.9 244 c 0
 187.9 244 162.7 323 183.7 422 c 2
 188.6 445 l 2
 204.5 520 217 588 221.1 645 c 1
 223.7 648 l 1
 223.7 648 240.1 645 274.1 645 c 0
 309.1 645 326.7 648 326.7 648 c 1
 327.1 645 l 1
 307.8 592 290.5 520 274.6 445 c 2
EndSplineSet
EndChar

StartChar: afii10042
Encoding: 1064 1064 87
Width: 960
VWidth: 999
Flags: HW
HStem: 0 44<209.595 441.308 543.595 777.308> 628 20G<229.099 283.099 283.099 336.099 563.099 617.099 617.099 670.099 900.099 953.099 953.099 1007.1>
LayerCount: 2
Fore
SplineSet
901.5 200 m 2
 885.9 125 873.1 57 869 0 c 1
 866.4 -3 l 1
 866.4 -3 850 0 816 0 c 2
 147 0 l 2
 112 0 93.4 -3 93.4 -3 c 1
 93 0 l 1
 112.5 54 129.6 125 145.5 200 c 2
 197.6 445 l 2
 213.5 520 225 588 229.1 645 c 1
 231.7 648 l 1
 231.7 648 249.1 645 283.1 645 c 0
 318.1 645 335.7 648 335.7 648 c 1
 336.1 645 l 1
 316.8 592 299.5 520 283.6 445 c 2
 231.5 200 l 2
 227.9 183 207.6 83 209.5 59 c 0
 210.6 50 216.4 44 234.4 44 c 2
 410.4 44 l 2
 428.4 44 436.6 50 441.5 59 c 0
 453.6 83 475.9 183 479.5 200 c 2
 531.6 445 l 2
 547.5 520 559 588 563.1 645 c 1
 565.7 648 l 1
 565.7 648 583.1 645 617.1 645 c 0
 652.1 645 669.7 648 669.7 648 c 1
 670.1 645 l 1
 650.8 592 633.5 520 617.6 445 c 2
 565.5 200 l 2
 561.9 183 541.6 83 543.5 59 c 0
 544.6 50 550.4 44 568.4 44 c 2
 746.4 44 l 2
 764.4 44 772.6 50 777.5 59 c 0
 789.6 83 811.9 183 815.5 200 c 2
 867.6 445 l 2
 883.5 520 896.8 592 900.1 645 c 1
 901.7 648 l 1
 901.7 648 918.1 645 953.1 645 c 0
 987.1 645 1005.7 648 1005.7 648 c 1
 1007.1 645 l 1
 987 588 969.5 520 953.6 445 c 2
 901.5 200 l 2
EndSplineSet
EndChar

StartChar: afii10043
Encoding: 1065 1065 88
Width: 948
VWidth: 999
Flags: HW
HStem: 0 44<209.595 441.308 543.595 777.308> 628 20G<229.099 283.099 283.099 336.099 563.099 617.099 617.099 670.099 900.099 953.099 953.099 1007.1>
VStem: 900.1 107<576.447 645>
LayerCount: 2
Fore
SplineSet
147 0 m 2
 112 0 93.4 -3 93.4 -3 c 1
 93 0 l 1
 112.5 54 129.6 125 145.5 200 c 2
 197.6 445 l 2
 213.5 520 225 588 229.1 645 c 1
 231.7 648 l 1
 231.7 648 249.1 645 283.1 645 c 0
 318.1 645 335.7 648 335.7 648 c 1
 336.1 645 l 1
 316.8 592 299.5 520 283.6 445 c 2
 231.5 200 l 2
 227.9 183 207.6 83 209.5 59 c 0
 210.6 50 216.4 44 234.4 44 c 2
 410.4 44 l 2
 428.4 44 436.6 50 441.5 59 c 0
 453.6 83 475.9 183 479.5 200 c 2
 531.6 445 l 2
 547.5 520 559 588 563.1 645 c 1
 565.7 648 l 1
 565.7 648 583.1 645 617.1 645 c 0
 652.1 645 669.7 648 669.7 648 c 1
 670.1 645 l 1
 650.8 592 633.5 520 617.6 445 c 2
 565.5 200 l 2
 561.9 183 541.6 83 543.5 59 c 0
 544.6 50 550.4 44 568.4 44 c 2
 746.4 44 l 2
 764.4 44 772.6 50 777.5 59 c 0
 789.6 83 811.9 183 815.5 200 c 2
 867.6 445 l 2
 883.5 520 896.8 592 900.1 645 c 1
 901.7 648 l 1
 901.7 648 918.1 645 953.1 645 c 0
 987.1 645 1005.7 648 1005.7 648 c 1
 1007.1 645 l 1
 987 588 969.5 520 953.6 445 c 2
 901.5 200 l 2
 878.1 90 872.7 35 905.8 32 c 0
 930.2 29.8 933.4 20.7 931.3 11 c 2
 887.7 -138 l 1
 885 -141 l 1
 853 -141 l 1
 851.7 -138 l 1
 856.2 -65.4 857.7 0 778 0 c 2
 147 0 l 2
EndSplineSet
EndChar

StartChar: afii10044
Encoding: 1066 1066 89
Width: 717
VWidth: 999
Flags: HW
HStem: -2 35<335.993 511.496> 329 44<427.283 583.938> 569 21G<171.795 377.495> 581 64<190.471 377.495>
LayerCount: 2
Fore
SplineSet
417.9 329 m 1
 365.9 84 l 2
 358.9 51 357 33 412 33 c 0
 564 33 612.7 121 625.9 183 c 0
 638.7 243 630.9 329 502.9 329 c 2
 417.9 329 l 1
439.1 645 m 2
 477.1 645 494.7 648 494.7 648 c 1
 495.1 645 l 1
 475.8 592 460.6 520 442.6 445 c 1
 427.3 373 l 1
 485.3 373 l 2
 731.3 373 738.8 272 719.9 183 c 0
 684.4 16 523.6 -2 402.6 -2 c 0
 366.6 -2 336 0 307 0 c 0
 273 0 252.4 -3 252.4 -3 c 1
 252 0 l 1
 271.5 54 288.6 125 304.5 200 c 2
 356.6 445 l 2
 360 462 379.4 557 377.5 581 c 1
 243.5 581 172.9 569 172.9 569 c 1
 171.8 573 l 1
 177 588 183.1 617 187.1 645 c 1
 189.7 648 l 1
 205.3 646 228.1 645 249.1 645 c 2
 439.1 645 l 2
EndSplineSet
EndChar

StartChar: afii10045
Encoding: 1067 1067 90
Width: 786
VWidth: 999
Flags: HW
HStem: -2 35<204.625 351.445> 329 44<268.283 424.938> 628 20G<229.099 283.099 283.099 336.099 725.312 778.312 778.312 831.312>
LayerCount: 2
Fore
SplineSet
692.8 446 m 2
 708.7 521 721.2 589 725.3 646 c 1
 727.9 649 l 1
 727.9 649 744.3 646 778.3 646 c 0
 813.3 646 830.9 649 830.9 649 c 1
 831.3 646 l 1
 812 593 794.7 521 778.8 446 c 2
 726.7 201 l 2
 710.8 126 698.3 58 694.2 1 c 1
 691.6 -2 l 1
 691.6 -2 675.2 1 641.2 1 c 0
 606.2 1 588.6 -2 588.6 -2 c 1
 588.2 1 l 1
 607.7 55 624.8 126 640.7 201 c 2
 692.8 446 l 2
148 0 m 0
 114 0 93.4 -3 93.4 -3 c 1
 93 0 l 1
 112.5 54 129.6 125 145.5 200 c 2
 197.6 445 l 2
 213.5 520 225 588 229.1 645 c 1
 231.7 648 l 1
 231.7 648 249.1 645 283.1 645 c 0
 318.1 645 335.7 648 335.7 648 c 1
 336.1 645 l 1
 316.8 592 299.5 520 283.6 445 c 2
 268.3 373 l 1
 326.3 373 l 2
 572.3 373 579.8 272 560.9 183 c 0
 525.4 16 364.6 -2 243.6 -2 c 0
 207.6 -2 177 0 148 0 c 0
258.9 329 m 1
 206.9 84 l 2
 199.9 51 198 33 253 33 c 0
 405 33 453.7 121 466.9 183 c 0
 479.7 243 471.9 329 343.9 329 c 2
 258.9 329 l 1
EndSplineSet
Colour: ff00ff
EndChar

StartChar: afii10046
Encoding: 1068 1068 91
Width: 558
VWidth: 999
Flags: HW
HStem: -2 35<176.993 352.495> 329 44<268.283 424.938> 628 20G<229.099 283.099 283.099 336.099>
LayerCount: 2
Fore
SplineSet
148 0 m 0
 114 0 93.4 -3 93.4 -3 c 1
 93 0 l 1
 112.5 54 129.6 125 145.5 200 c 2
 197.6 445 l 2
 213.5 520 225 588 229.1 645 c 1
 231.7 648 l 1
 231.7 648 249.1 645 283.1 645 c 0
 318.1 645 335.7 648 335.7 648 c 1
 336.1 645 l 1
 316.8 592 299.5 520 283.6 445 c 2
 268.3 373 l 1
 326.3 373 l 2
 572.3 373 579.8 272 560.9 183 c 0
 525.4 16 364.6 -2 243.6 -2 c 0
 207.6 -2 177 0 148 0 c 0
258.9 329 m 1
 206.9 84 l 2
 199.9 51 198 33 253 33 c 0
 405 33 453.7 121 466.9 183 c 0
 479.7 243 471.9 329 343.9 329 c 2
 258.9 329 l 1
EndSplineSet
EndChar

StartChar: afii10047
Encoding: 1069 1069 92
Width: 604
VWidth: 999
Flags: HMW
HStem: -12 34<194 359> 273 56<309 422> 311 49<155 284> 621 37<189 346>
VStem: 472 89<186 307 344 460>
LayerCount: 2
Fore
SplineSet
537.3 307 m 1
 475.1 273 431 273 418 273 c 0
 356 273 321.1 311 262.1 311 c 0
 224.1 311 204.7 295 196.7 295 c 0
 192.7 295 188.4 298 190.3 307 c 0
 195.6 332 264.5 360 323.5 360 c 0
 389.5 360 411.9 329 469.9 329 c 0
 498.9 329 523.2 335 544.1 344 c 1
 577.9 550 484 621 403 621 c 0
 308 621 212.8 540 168.5 454 c 1
 139.4 458 l 1
 161.7 511 179.6 558 193.3 613 c 1
 251.9 616 313.9 658 418.9 658 c 0
 583.9 658 677.9 550 631.8 333 c 0
 585 113 442.4 -12 272.4 -12 c 0
 186.4 -12 137 19 111.1 43 c 0
 88.6 64 74.2 95 79.9 122 c 0
 85.4 148 101.1 165 119.1 165 c 0
 148.1 165 157.3 152 160.5 120 c 0
 169.2 48 218.5 21 290.5 21 c 0
 417.5 21 507 169 537.3 307 c 1
EndSplineSet
EndChar

StartChar: afii10048
Encoding: 1070 1070 93
Width: 905
VWidth: 999
Flags: HW
HStem: -12 39<528.063 670.297> -3 21G<96 149 149 202> 302 44<260.545 349.192> 619 39<620.896 773.584> 628 20G<233.099 286.099 286.099 339.099>
LayerCount: 2
Fore
SplineSet
693.6 619 m 0
 609.6 619 495.1 537 450.5 327 c 0
 409.7 135 489.7 27 597.7 27 c 0
 700.7 27 797.9 131 835.9 310 c 0
 880.1 518 818.6 619 693.6 619 c 0
200.6 445 m 2
 216.5 520 229 588 233.1 645 c 1
 235.7 648 l 1
 235.7 648 252.1 645 286.1 645 c 0
 321.1 645 338.7 648 338.7 648 c 1
 339.1 645 l 1
 319.8 592 302.5 520 286.6 445 c 2
 265.5 346 l 1
 359.5 346 l 1
 410.5 525 556.9 658 712.9 658 c 0
 880.9 658 978 527 935.9 329 c 0
 893.4 129 749.4 -12 571.4 -12 c 0
 413.4 -12 310 108 349.2 302 c 1
 256.2 302 l 1
 234.5 200 l 2
 218.6 125 206.1 57 202 0 c 1
 199.4 -3 l 1
 199.4 -3 183 0 149 0 c 0
 114 0 96.4 -3 96.4 -3 c 1
 96 0 l 1
 115.5 54 132.6 125 148.5 200 c 2
 200.6 445 l 2
EndSplineSet
EndChar

StartChar: afii10049
Encoding: 1071 1071 94
Width: 561
VWidth: 999
Flags: HW
HStem: -3 21G<0 11.6812 112.181 130.475 370 423 423 476> 286 44<336.832 440.791> 613 39<342.801 529.37>
VStem: 370 106<0 68.5547>
LayerCount: 2
Fore
SplineSet
427.3 613 m 0
 366.3 613 294.7 596 269.6 478 c 0
 243 353 305.1 330 402.1 330 c 2
 450.1 330 l 1
 500.9 569 l 2
 507.1 598 498.3 613 427.3 613 c 0
283 300 m 1
 263.9 305.1 250.3 311.3 238.6 318 c 0
 190.3 345 155.4 397 172.8 479 c 0
 183.4 529 209.2 570 252.4 604 c 0
 310 649 373.6 652 436.6 652 c 0
 461.6 652 530.1 645 560.1 645 c 0
 594.1 645 611.7 648 611.7 648 c 1
 613.1 645 l 1
 593 588 576.5 520 560.6 445 c 2
 508.5 200 l 2
 492.6 125 479.5 54 476 0 c 1
 474.4 -3 l 1
 474.4 -3 458 0 423 0 c 0
 389 0 371.4 -3 371.4 -3 c 1
 370 0 l 1
 390.1 57 406.6 125 422.5 200 c 2
 440.8 286 l 1
 415.9 286 394.2 286.6 375.1 287.6 c 1
 339.6 254.7 302.1 214.9 266.4 176 c 0
 200.1 104 139.6 31 121.4 -3 c 1
 103 0 73 0 54 0 c 0
 34 0 22 0 1.4 -3 c 1
 0 0 l 1
 62.1 56.7 201.3 215.9 283 300 c 1
EndSplineSet
EndChar

StartChar: afii10089
Encoding: 1095 1095 95
Width: 510
VWidth: 999
Flags: HW
HStem: -3 21G<323 373 373 423> 137 44<206.323 335.651> 412 20G<148.187 198.187 198.187 248.187 414.187 464.187 464.187 514.187>
VStem: 148.2 100<363.167 429> 414.2 100<362.048 429>
LayerCount: 2
Fore
SplineSet
129.9 291 m 0
 145.9 366.5 144.9 376 148.2 429 c 1
 149.8 432 l 1
 149.8 432 163.2 429 198.2 429 c 0
 232.2 429 246.8 432 246.8 432 c 1
 248.2 429 l 1
 228.1 372 226.2 368 210.3 293 c 0
 193.7 215 193.5 181 255.5 181 c 0
 303.5 181 342.4 192.5 380.4 223 c 1
 386.1 250 l 2
 401.2 321 411.7 375 414.2 429 c 1
 415.8 432 l 1
 415.8 432 429.2 429 464.2 429 c 0
 498.2 429 512.8 432 512.8 432 c 1
 514.2 429 l 1
 493.1 372 483 325 466.1 250 c 2
 451 179 l 2
 435.1 104 426.1 57 423 0 c 1
 420.4 -3 l 1
 420.4 -3 407 0 373 0 c 0
 338 0 323.4 -3 323.4 -3 c 1
 323 0 l 1
 343.4 53.9 355.2 104.8 370.9 178.5 c 1
 326.8 150.5 292.1 137 233.1 137 c 0
 135.1 137 107.4 185 129.9 291 c 0
EndSplineSet
EndChar

StartChar: afii10090
Encoding: 1096 1096 96
Width: 807
VWidth: 999
Flags: HW
HStem: 0 41<196.716 366.064 462.716 635.506> 412 20G<178.187 228.187 228.187 278.187 444.187 494.187 494.187 544.187 710.187 761.187 761.187 811.187>
LayerCount: 2
Fore
SplineSet
751.5 200 m 2
 735.7 125.5 722.5 54 719 0 c 1
 717.4 -3 l 1
 717.4 -3 700 0 666 0 c 2
 140 0 l 2
 106 0 87.4 -3 87.4 -3 c 1
 87 0 l 1
 106.5 54 123.6 125 139.5 200 c 2
 150.1 250 l 2
 166 325 175.1 372 178.2 429 c 1
 180.8 432 l 1
 180.8 432 194.2 429 228.2 429 c 0
 263.2 429 277.8 432 277.8 432 c 1
 278.2 429 l 1
 257.7 375 245.8 324 230.1 250 c 2
 219.5 200 l 2
 215.9 183 194.6 78 196.5 54 c 1
 201.6 45 204.7 41 219.7 41 c 2
 337.7 41 l 2
 352.7 41 357.6 45 366.5 54 c 1
 378.6 78 401.9 183 405.5 200 c 2
 416.1 250 l 2
 432 325 441.1 372 444.2 429 c 1
 446.8 432 l 1
 446.8 432 460.2 429 494.2 429 c 0
 529.2 429 543.8 432 543.8 432 c 1
 544.2 429 l 1
 523.7 375 511.8 324 496.1 250 c 2
 485.5 200 l 2
 481.9 183 460.6 78 462.5 54 c 1
 467.6 45 470.7 41 485.7 41 c 2
 617.7 41 l 2
 632.7 41 623.6 45 632.5 54 c 1
 644.6 78 667.9 183 671.5 200 c 2
 681.9 249 l 2
 698.1 325 706.6 372 710.2 429 c 1
 712.8 432 l 1
 712.8 432 726.9 429 761.2 429 c 0
 796.2 429 810.8 432 810.8 432 c 1
 811.2 429 l 1
 791.3 375.5 777.9 324.1 761.9 249 c 2
 751.5 200 l 2
EndSplineSet
EndChar

StartChar: afii10091
Encoding: 1097 1097 97
Width: 813
VWidth: 999
Flags: HW
HStem: 0 41<196.716 366.064 462.716 635.246> 412 20G<178.187 228.187 228.187 278.187 444.187 494.187 494.187 544.187 710.187 761.187 761.187 811.187>
LayerCount: 2
Fore
SplineSet
140 0 m 2
 106 0 87.4 -3 87.4 -3 c 1
 87 0 l 1
 106.5 54 123.6 125 139.5 200 c 2
 150.1 250 l 2
 166 325 175.1 372 178.2 429 c 1
 180.8 432 l 1
 180.8 432 194.2 429 228.2 429 c 0
 263.2 429 277.8 432 277.8 432 c 1
 278.2 429 l 1
 257.7 375 245.8 324 230.1 250 c 2
 219.5 200 l 2
 215.9 183 194.6 78 196.5 54 c 1
 201.6 45 204.7 41 219.7 41 c 2
 337.7 41 l 2
 352.7 41 357.6 45 366.5 54 c 1
 378.6 78 401.9 183 405.5 200 c 2
 416.1 250 l 2
 432 325 441.1 372 444.2 429 c 1
 446.8 432 l 1
 446.8 432 460.2 429 494.2 429 c 0
 529.2 429 543.8 432 543.8 432 c 1
 544.2 429 l 1
 523.7 375 511.8 324 496.1 250 c 2
 485.5 200 l 2
 481.9 183 460.6 78 462.5 54 c 1
 467.6 45 470.7 41 485.7 41 c 2
 617.7 41 l 2
 632.7 41 623.6 45 632.5 54 c 1
 644.6 78 667.9 183 671.5 200 c 2
 681.9 249 l 2
 698.1 325 706.6 372 710.2 429 c 1
 712.8 432 l 1
 712.8 432 726.9 429 761.2 429 c 0
 796.2 429 810.8 432 810.8 432 c 1
 811.2 429 l 1
 791.3 375.5 777.9 324.1 761.9 249 c 2
 751.5 200 l 2
 728.1 90 722.7 35 755.8 32 c 0
 780.2 29.8 783.4 20.7 781.3 11 c 2
 740.4 -125 l 1
 737.8 -128 l 1
 705.8 -128 l 1
 704.4 -125 l 1
 708.9 -52.4 707.7 0 628 0 c 2
 140 0 l 2
EndSplineSet
EndChar

StartChar: afii10092
Encoding: 1098 1098 98
Width: 539
VWidth: 999
Flags: HW
HStem: -2 36<262.62 414.783> 219 37<327.414 443.806> 374 55<126.31 269.496>
LayerCount: 2
Fore
SplineSet
454.8 126 m 0
 466.1 179 457.6 219 386.6 219 c 2
 319.6 219 l 1
 289.8 79 l 2
 282.4 44 297.2 34 343.2 34 c 0
 393.2 34 437.4 44 454.8 126 c 0
246.1 250 m 2
 261.2 321 269.5 374 269.5 374 c 1
 144.5 374 111.2 363 111.2 363 c 1
 109.8 366 l 1
 114.8 380 119.7 403 123.2 429 c 1
 125.6 431 l 1
 140.4 430 161.2 429 180.2 429 c 2
 324.2 429 l 2
 358.2 429 372.8 432 372.8 432 c 1
 374.2 429 l 1
 353.1 372 344 334 328.1 259 c 2
 327.4 256 l 1
 384.4 256 l 2
 480.4 256 556.9 230 536.9 136 c 0
 519 52 445.6 -2 334.6 -2 c 0
 294.8 -2 272.8 0 233 0 c 0
 198 0 183.4 -3 183.4 -3 c 1
 183 0 l 1
 203.5 54 215.3 105 231 179 c 2
 246.1 250 l 2
EndSplineSet
EndChar

StartChar: afii10093
Encoding: 1099 1099 99
Width: 681
VWidth: 999
Flags: HW
HStem: -2 36<198.388 322.747> 219 37<235.414 351.806> 412 20G<182.187 232.187 232.187 282.187 587.187 637.187 637.187 687.187>
VStem: 182.2 100<362.802 429> 587.2 100<362.048 429>
LayerCount: 2
Fore
SplineSet
559.1 250 m 2
 574.2 321 584.7 375 587.2 429 c 1
 588.8 432 l 1
 588.8 432 602.2 429 637.2 429 c 0
 671.2 429 685.8 432 685.8 432 c 1
 687.2 429 l 1
 666.1 372 656 325 639.1 250 c 2
 624 179 l 2
 608.1 104 599.1 57 596 0 c 1
 593.4 -3 l 1
 593.4 -3 580 0 546 0 c 0
 511 0 496.4 -3 496.4 -3 c 1
 496 0 l 1
 516.5 54 528.3 105 544 179 c 2
 559.1 250 l 2
362.8 126 m 0
 374.1 179 365.6 219 294.6 219 c 2
 227.6 219 l 1
 197.8 79 l 2
 190.4 44 205.2 34 251.2 34 c 0
 301.2 34 345.4 44 362.8 126 c 0
236.1 259 m 2
 235.4 256 l 1
 292.4 256 l 2
 388.4 256 464.9 230 444.9 136 c 0
 427 52 353.6 -2 242.6 -2 c 0
 202.8 -2 180.8 0 141 0 c 0
 106 0 91.4 -3 91.4 -3 c 1
 91 0 l 1
 111.5 54 123.3 105 139 179 c 2
 154.1 250 l 2
 169.2 321 179.7 375 182.2 429 c 1
 183.8 432 l 1
 183.8 432 197.2 429 232.2 429 c 0
 266.2 429 280.8 432 280.8 432 c 1
 282.2 429 l 1
 261.1 372 252 334 236.1 259 c 2
EndSplineSet
Colour: ff00ff
EndChar

StartChar: afii10094
Encoding: 1100 1100 100
Width: 447
VWidth: 999
Flags: HW
HStem: -2 36<170.62 322.783> 219 37<235.414 351.806> 412 20G<182.187 232.187 232.187 282.187>
VStem: 182.2 100<362.802 429>
LayerCount: 2
Fore
SplineSet
362.8 126 m 0
 374.1 179 365.6 219 294.6 219 c 2
 227.6 219 l 1
 197.8 79 l 2
 190.4 44 205.2 34 251.2 34 c 0
 301.2 34 345.4 44 362.8 126 c 0
236.1 259 m 2
 235.4 256 l 1
 292.4 256 l 2
 388.4 256 464.9 230 444.9 136 c 0
 427 52 353.6 -2 242.6 -2 c 0
 202.8 -2 180.8 0 141 0 c 0
 106 0 91.4 -3 91.4 -3 c 1
 91 0 l 1
 111.5 54 123.3 105 139 179 c 2
 154.1 250 l 2
 169.2 321 179.7 375 182.2 429 c 1
 183.8 432 l 1
 183.8 432 197.2 429 232.2 429 c 0
 266.2 429 280.8 432 280.8 432 c 1
 282.2 429 l 1
 261.1 372 252 334 236.1 259 c 2
EndSplineSet
EndChar

StartChar: afii10095
Encoding: 1101 1101 101
Width: 434
VWidth: 999
Flags: HMW
HStem: -10 31<133.489 237.744> 180 49<160.832 302.074> 207 41<92.6331 188.46> 408 31<122.738 236.146>
VStem: 314 77<116.594 208 230.421 318.818>
LayerCount: 2
Fore
SplineSet
363.2 236 m 1
 371.7 309 358.7 408 268.7 408 c 0
 188.7 408 155.6 351 128.6 290 c 1
 102.5 294 l 1
 117.9 338 128.1 372 141.8 427 c 1
 211.8 427 214.3 439 285.3 439 c 0
 408.3 439 462.2 335 438.8 225 c 0
 405.4 68 281.9 -10 175.9 -10 c 0
 93.9 -10 44.2 34 55.3 86 c 0
 58.3 100 73.4 115 91.4 115 c 0
 102.4 115 123.6 111 121.6 78 c 0
 120.4 44 146.5 21 189.5 21 c 0
 283.5 21 341.6 130 358.2 208 c 1
 333.6 196 297.3 180 266.3 180 c 0
 222.3 180 199 207 164 207 c 0
 152 207 140.9 202 132.9 202 c 0
 126.9 202 127.9 211 128.7 215 c 0
 131.9 230 180.7 248 223.7 248 c 0
 268.7 248 281.7 229 319.7 229 c 0
 335.7 229 350.1 231 363.2 236 c 1
EndSplineSet
EndChar

StartChar: afii10096
Encoding: 1102 1102 102
Width: 686
VWidth: 999
Flags: HW
HStem: -10 40<427.193 535.014> -3 21G<83 133 133 183> 198 39<221.376 310.086> 401 38<480.549 586.423> 412 20G<174.187 224.187 224.187 274.187>
VStem: 174.2 100<362.048 429>
LayerCount: 2
Fore
SplineSet
534.2 401 m 0
 460.2 401 419.5 313 401 226 c 0
 384.6 149 387.4 30 481.4 30 c 0
 522.4 30 575.2 53 603.3 185 c 0
 634.3 331 612.2 401 534.2 401 c 0
146.1 250 m 2
 161.2 321 171.7 375 174.2 429 c 1
 175.8 432 l 1
 175.8 432 189.2 429 224.2 429 c 0
 258.2 429 272.8 432 272.8 432 c 1
 274.2 429 l 1
 253.1 372 243 325 226.1 250 c 2
 223.4 237 l 1
 319.4 237 l 1
 354.7 356 437.3 439 552.3 439 c 0
 696.3 439 717.2 321 695.1 217 c 0
 673.8 117 594.9 -10 455.9 -10 c 0
 327.9 -10 290.6 97 310.1 198 c 1
 215.1 198 l 1
 211 179 l 2
 195.1 104 186.1 57 183 0 c 1
 180.4 -3 l 1
 180.4 -3 167 0 133 0 c 0
 98 0 83.4 -3 83.4 -3 c 1
 83 0 l 1
 103.5 54 115.3 105 131 179 c 2
 146.1 250 l 2
EndSplineSet
EndChar

StartChar: afii10097
Encoding: 1103 1103 103
Width: 429
VWidth: 999
Flags: HW
HStem: -3 30<11.1123 30.9512> 195 35<244.952 309.448> 402 30<234.83 371.863>
VStem: 258 100<0 66.1255>
LayerCount: 2
Fore
SplineSet
316.9 230 m 1
 345.8 366 l 2
 352.6 398 338.4 402 299.4 402 c 0
 225.4 402 201.2 368 191.2 321 c 0
 180.6 271 194.9 230 251.9 230 c 2
 316.9 230 l 1
401.4 251 m 2
 385.8 178 l 2
 370.9 108 360.5 54 358 0 c 1
 356.4 -3 l 1
 356.4 -3 343 0 308 0 c 0
 274 0 259.4 -3 259.4 -3 c 1
 258 0 l 1
 279.1 57 288.2 95 303.9 169 c 2
 309.4 195 l 1
 284.4 195 l 2
 244.4 195 209.9 145 176.9 84 c 0
 154.2 43 118.2 1 83 0 c 2
 9.4 -3 l 1
 7 0 l 1
 11 19 l 2
 12.5 26 18.7 27 22.7 27 c 2
 31 28 l 2
 58.6 31 106.8 98 128.9 136 c 0
 153.6 177 179.1 198 208.4 204 c 1
 153.4 204 88.8 239 103.9 310 c 0
 110.1 339 147.8 432 308.8 432 c 0
 345.8 432 363.2 429 399.2 429 c 0
 434.2 429 448.8 432 448.8 432 c 1
 449.2 429 l 1
 428.7 375 416.9 324 401.4 251 c 2
EndSplineSet
EndChar

StartChar: uni04AE
Encoding: 1198 1198 104
Width: 591
VWidth: 999
Flags: HW
HStem: -3 21G<246.681 248.844 333.681 345.032> 628 20G<161.917 167.359 258.917 283.758 580.799 694.917>
LayerCount: 2
Fore
SplineSet
395 285.6 m 1
 374.8 186.5 347.5 44.9 341.4 -3 c 1
 326 0 305 0 290 0 c 0
 275 0 255 0 238.4 -3 c 1
 255.9 52.5 283.5 177.5 304.4 275.1 c 1
 280.2 340.2 180.9 588 153.7 648 c 1
 170.1 645 193.1 645 210.1 645 c 0
 227.1 645 250.1 645 267.7 648 c 1
 299 542.6 337.4 448.7 377.5 340.2 c 1
 454.6 431.1 544.9 543.2 617.7 648 c 1
 629.1 645 646.1 645 659.1 645 c 0
 671.1 645 688.1 645 701.7 648 c 1
 541.8 463.5 453 365.5 395 285.6 c 1
EndSplineSet
Colour: ff00ff
EndChar

StartChar: uni04C0
Encoding: 1216 1216 105
Width: 293
VWidth: 999
Flags: HW
HStem: -3 21G<96 149 149 202> 628 20G<233.099 286.099 286.099 339.099>
VStem: 96.4 242.4
LayerCount: 2
Fore
SplineSet
200.6 445 m 2
 216.5 520 229 588 233.1 645 c 1
 235.7 648 l 1
 235.7 648 252.1 645 286.1 645 c 0
 321.1 645 338.8 648 338.8 648 c 1
 339.1 645 l 1
 319.8 592 302.5 520 286.6 445 c 2
 234.5 200 l 2
 218.6 125 206.1 57 202 0 c 1
 199.4 -3 l 1
 199.4 -3 183 0 149 0 c 0
 114 0 96.4 -3 96.4 -3 c 1
 96 0 l 1
 115.5 54 132.6 125 148.5 200 c 2
 200.6 445 l 2
EndSplineSet
Colour: ff00ff
EndChar

StartChar: uni04D0
Encoding: 1232 1232 106
Width: 633
VWidth: 999
Flags: HW
HStem: -3 21G<23.6812 91.3497 91.6812 128.711 503.22 513.181 600.096 606.181> 230 44<246.183 481.982> 638 20G<381.268 503.587> 698 31<443.38 534.415>
VStem: 370.3 66.9<734.198 801.685>
LayerCount: 2
Fore
SplineSet
486 729 m 0
 519 729 545.6 746 549.2 763 c 0
 550.3 768 550.5 774 550.9 776 c 0
 554.1 791 567.3 806 590.3 806 c 0
 617.3 806 624.3 792 620.3 773 c 0
 609.2 721 545.4 698 479.4 698 c 0
 413.4 698 359.2 721 370.3 773 c 0
 374.3 792 387.3 806 414.3 806 c 0
 437.3 806 444.1 791 440.9 776 c 0
 440.5 774 438.3 768 437.2 763 c 0
 433.6 746 453 729 486 729 c 0
229.5 228.3 m 1
 175.2 140.8 126.8 58.3 97.4 -3 c 1
 86 0 64 0 53 0 c 0
 42 0 30 0 17.4 -3 c 1
 165.4 218 309.7 436 452.9 658 c 1
 480.9 658 l 1
 526.4 439 585.9 98 614.4 -3 c 1
 598 0 572 0 555 0 c 0
 538 0 522 0 504.4 -3 c 1
 503 19.2 497 97.2 475.8 228.3 c 1
 438.3 229.2 396.9 230 358.9 230 c 0
 324.4 230 267.7 229.2 229.5 228.3 c 1
467.9 275.5 m 1
 455.9 345.2 439.9 427.4 418.9 521.8 c 1
 416.9 521.8 l 1
 368.9 447.2 312.6 360.5 259.3 275.9 c 1
 291 275.5 334.3 274 363.2 274 c 0
 392.9 274 434.9 274.7 467.9 275.5 c 1
EndSplineSet
LCarets2: 1 0 
Colour: ff00ff
EndChar

StartChar: uni04D1
Encoding: 1233 1233 107
Width: 461
VWidth: 999
Flags: HW
HStem: -10 51<151.395 245.011 325.374 412.357> 394 45<226.622 343.853> 489 31<285.235 360.136>
VStem: 210.4 68.2<524.742 602.849>
LayerCount: 2
Fore
SplineSet
452.6 577 m 0
 440.9 522 375.9 489 311.9 489 c 0
 246.9 489 198.9 522 210.4 576 c 0
 214.2 594 233.4 609 256.4 609 c 0
 278.4 609 287.5 595 284.1 579 c 0
 283.5 576 283 574 281.4 571 c 0
 279.8 568 279 565 278.6 563 c 0
 273.9 541 289.5 520 319.5 520 c 0
 348.5 520 373.8 540 378.5 562 c 0
 379.1 565 379.8 568 379.4 571 c 0
 378.8 573 379.3 575 379.9 578 c 0
 383.5 595 403.4 609 421.4 609 c 0
 445.4 609 456.6 596 452.6 577 c 0
339.4 223 m 1
 254.9 202 l 2
 176.9 183 154.3 147 144.7 102 c 0
 138.1 71 155.7 41 197.7 41 c 0
 225.7 41 262.4 63 292.9 84 c 0
 302.2 90 309.6 97 312.4 110 c 2
 339.4 223 l 1
384.2 76 m 0
 379.9 56 382.6 45 393.6 45 c 0
 407.6 45 423.5 59 434 66 c 1
 436.6 64 l 1
 448.1 43 l 1
 408.6 3 379.9 -10 348.9 -10 c 0
 301.9 -10 299.8 32 301.2 48 c 1
 299.2 48 l 1
 239.6 3 209.9 -10 157.9 -10 c 0
 87.9 -10 47.1 24 62.8 98 c 0
 77.3 166 149.8 220 250.7 243 c 2
 343.1 264 l 2
 346.3 265 350.2 269 351.7 276 c 0
 375.7 389 320.7 394 286.7 394 c 0
 241.7 394 190.4 350 154.8 305 c 1
 142 306 l 1
 140.3 373 l 1
 144.1 377 l 1
 172.6 398 233.3 439 305.3 439 c 0
 377.3 439 459.6 412 430.9 277 c 0
 428.6 266 390.4 105 384.2 76 c 0
EndSplineSet
LCarets2: 1 0 
Colour: ff00ff
EndChar

StartChar: uni04D2
Encoding: 1234 1234 108
Width: 633
VWidth: 999
Flags: HW
HStem: -3 21G<23.6812 91.3497 91.6812 128.711 503.22 513.181 600.096 606.181> 230 44<246.183 481.982> 638 20G<381.268 503.587> 712 92<376.698 443.538 536.698 603.538>
VStem: 364.1 92<724.849 791.151> 524.1 92<724.849 791.151>
LayerCount: 2
Fore
SplineSet
364.1 758 m 0
 369.4 783 394.9 804 419.9 804 c 0
 444.9 804 461.4 783 456.1 758 c 0
 450.8 733 425.3 712 400.3 712 c 0
 375.3 712 358.8 733 364.1 758 c 0
524.1 758 m 0
 529.4 783 554.9 804 579.9 804 c 0
 604.9 804 621.4 783 616.1 758 c 0
 610.8 733 585.3 712 560.3 712 c 0
 535.3 712 518.8 733 524.1 758 c 0
229.5 228.3 m 1
 175.2 140.8 126.8 58.3 97.4 -3 c 1
 86 0 64 0 53 0 c 0
 42 0 30 0 17.4 -3 c 1
 165.4 218 309.7 436 452.9 658 c 1
 480.9 658 l 1
 526.4 439 585.9 98 614.4 -3 c 1
 598 0 572 0 555 0 c 0
 538 0 522 0 504.4 -3 c 1
 503 19.2 497 97.2 475.8 228.3 c 1
 438.3 229.2 396.9 230 358.9 230 c 0
 324.4 230 267.7 229.2 229.5 228.3 c 1
467.9 275.5 m 1
 455.9 345.2 439.9 427.4 418.9 521.8 c 1
 416.9 521.8 l 1
 368.9 447.2 312.6 360.5 259.3 275.9 c 1
 291 275.5 334.3 274 363.2 274 c 0
 392.9 274 434.9 274.7 467.9 275.5 c 1
EndSplineSet
LCarets2: 1 0 
Colour: ff00ff
EndChar

StartChar: uni04D3
Encoding: 1235 1235 109
Width: 461
VWidth: 999
Flags: HW
HStem: -10 51<151.395 245.011 325.374 412.357> 394 45<226.622 343.853> 527 92<221.374 288.216 381.374 448.216>
VStem: 208.8 92<539.849 606.151> 368.8 92<539.849 606.151>
LayerCount: 2
Fore
SplineSet
208.8 573 m 0
 214.1 598 239.6 619 264.6 619 c 0
 289.6 619 306.1 598 300.8 573 c 0
 295.5 548 270 527 245 527 c 0
 220 527 203.5 548 208.8 573 c 0
368.8 573 m 0
 374.1 598 399.6 619 424.6 619 c 0
 449.6 619 466.1 598 460.8 573 c 0
 455.5 548 430 527 405 527 c 0
 380 527 363.5 548 368.8 573 c 0
339.4 223 m 1
 254.9 202 l 2
 176.9 183 154.3 147 144.7 102 c 0
 138.1 71 155.7 41 197.7 41 c 0
 225.7 41 262.4 63 292.9 84 c 0
 302.2 90 309.6 97 312.4 110 c 2
 339.4 223 l 1
384.2 76 m 0
 379.9 56 382.6 45 393.6 45 c 0
 407.6 45 423.5 59 434 66 c 1
 436.6 64 l 1
 448.1 43 l 1
 408.6 3 379.9 -10 348.9 -10 c 0
 301.9 -10 299.8 32 301.2 48 c 1
 299.2 48 l 1
 239.6 3 209.9 -10 157.9 -10 c 0
 87.9 -10 47.1 24 62.8 98 c 0
 77.3 166 149.8 220 250.7 243 c 2
 343.1 264 l 2
 346.3 265 350.2 269 351.7 276 c 0
 375.7 389 320.7 394 286.7 394 c 0
 241.7 394 190.4 350 154.8 305 c 1
 142 306 l 1
 140.3 373 l 1
 144.1 377 l 1
 172.6 398 233.3 439 305.3 439 c 0
 377.3 439 459.6 412 430.9 277 c 0
 428.6 266 390.4 105 384.2 76 c 0
EndSplineSet
LCarets2: 1 0 
Colour: ff00ff
EndChar

StartChar: uni04D4
Encoding: 1236 1236 110
Width: 802
VWidth: 999
Flags: HW
HStem: 0 55.6<514.544 750.627> 280 44<286.811 522.61> 291 42<532.781 731.01> 594.3 50.7<548.453 816.078>
VStem: 469.9 72.3<410.456 533.5>
LayerCount: 2
Fore
SplineSet
281.2 278.5 m 1
 207.1 171.8 140.2 69.1 97.4 -3 c 1
 86 0 64 0 53 0 c 0
 42 0 30 0 17.4 -3 c 1
 166.5 200 308.2 410 503.3 645.7 c 1
 503.4 645.3 l 1
 505.7 648 l 1
 505.7 648 522.1 645 556.1 645 c 2
 769.1 645 l 2
 790.1 645 813.3 646 829.7 648 c 1
 831.1 645 l 1
 827.1 631 824.2 622 822.5 614 c 0
 820.6 605 819.7 596 819 588 c 1
 816.1 584 l 1
 816.1 584 741 594.3 635.3 594.3 c 0
 559.8 594.3 543.7 585.3 540.4 545.5 c 1
 539.6 475.1 540.1 402.4 541.4 333 c 1
 653.6 333.2 709.3 338.1 767.9 343 c 1
 770.3 340 l 1
 766.4 331 763.2 321 761.3 312 c 0
 759.4 303 758.3 293 758.4 284 c 1
 754.7 281 l 1
 694.7 287.2 597 290.3 542.3 290.9 c 1
 544.4 199.9 547.9 116.9 551.4 55.8 c 1
 651.9 59.2 766 66 766 66 c 1
 767.2 62 l 1
 764.5 54 760.3 39 758.2 29 c 0
 756.1 19 756 14 754 0 c 1
 751.4 -3 l 1
 735.8 -1 713 0 692 0 c 2
 555 0 l 1
 553.5 0 l 1
 500 0 l 2
 483 0 467 0 449.4 -3 c 1
 457 32.7 461.5 117.3 465.3 279.4 c 1
 443.2 279.8 420.8 280 399.5 280 c 0
 368.2 280 318.6 279.3 281.2 278.5 c 1
466.3 324.7 m 1
 467.5 384.7 468.7 453.9 469.9 533.5 c 1
 467.9 533.5 l 1
 418 469.5 365.1 397.6 314.3 325.7 c 1
 343.8 325.1 379.1 324 403.9 324 c 0
 421.8 324 444.1 324.3 466.3 324.7 c 1
EndSplineSet
Colour: ff00ff
EndChar

StartChar: uni04D5
Encoding: 1237 1237 111
Width: 687
VWidth: 999
Flags: HW
HStem: -10 50<147.207 268.296 451.24 568.683> 218 40<254.165 341.699 429.84 613.074> 394 45<225.672 344.866 506.877 613.452>
LayerCount: 2
Fore
SplineSet
341.7 215 m 1
 206.1 203 154.3 157 143.5 106 c 0
 133.9 61 153.5 40 200.5 40 c 0
 236.5 40 284 61 306.3 100 c 0
 316.5 117.9 331.1 165 341.7 215 c 1
429.8 258 m 1
 571.5 266 614 245 627 306 c 0
 633.8 338 620.7 394 572.7 394 c 0
 509.7 394 455.9 343 429.8 258 c 1
285.7 394 m 0
 241.2 394 189.4 350 153.8 305 c 1
 141 306 l 1
 139.3 373 l 1
 143.1 377 l 1
 172 397.5 231.8 439 304.3 439 c 0
 328.3 439 403.6 436 426.4 369 c 1
 469 414 526.3 439 583.3 439 c 0
 697.3 439 718.9 343 711.7 309 c 0
 705.1 278.1 694 254 670.4 237 c 1
 630.5 217.3 557.4 225.4 420.3 218 c 1
 397.8 112 432.4 44 507.4 44 c 0
 561.4 44 607.4 77 644.8 112 c 1
 658.9 84 l 1
 618.4 30 547.9 -10 481.9 -10 c 0
 390.9 -10 367.2 34 352.5 59 c 1
 297.1 15 242.9 -10 187.9 -10 c 0
 82.9 -10 46 33 60.5 101 c 0
 78.1 184 177.6 243 350.2 255 c 1
 368.9 348.6 358.5 394 285.7 394 c 0
EndSplineSet
Colour: ff00ff
EndChar

StartChar: uni04D6
Encoding: 1238 1238 112
Width: 522
VWidth: 999
Flags: HW
HStem: -3 69<412.986 474> 0 54<201.479 418.191> 321 42<259.158 458.026> 596 49<308.799 532.289> 698 31<386.38 477.415>
VStem: 313.3 66.9<734.198 801.685>
LayerCount: 2
Fore
SplineSet
429 729 m 0
 462 729 488.6 746 492.2 763 c 0
 493.3 768 493.5 774 493.9 776 c 0
 497.1 791 510.3 806 533.3 806 c 0
 560.3 806 567.3 792 563.3 773 c 0
 552.2 721 488.4 698 422.4 698 c 0
 356.4 698 302.2 721 313.3 773 c 0
 317.3 792 330.3 806 357.3 806 c 0
 380.3 806 387.1 791 383.9 776 c 0
 383.5 774 381.3 768 380.2 763 c 0
 376.6 746 396 729 429 729 c 0
224.5 200 m 2
 220.9 183 199.6 78 201.5 54 c 1
 335.5 54 486 66 486 66 c 1
 487.2 62 l 1
 484.5 54 480.3 39 478.2 29 c 0
 476.1 19 476 14 474 0 c 1
 471.4 -3 l 1
 455.8 -1 433 0 412 0 c 2
 139 0 l 2
 104 0 86.4 -3 86.4 -3 c 1
 86 0 l 1
 105.5 54 122.6 125 138.5 200 c 2
 190.6 445 l 2
 206.5 520 219 588 223.1 645 c 1
 225.7 648 l 1
 225.7 648 242.1 645 276.1 645 c 2
 539.1 645 l 2
 560.1 645 583.3 646 599.7 648 c 1
 601.1 645 l 1
 597.1 631 594.2 622 592.5 614 c 0
 590.6 605 589.7 596 589 588 c 1
 586.1 584 l 1
 586.1 584 450.7 596 316.7 596 c 1
 304.6 572 280.2 462 276.6 445 c 2
 259.2 363 l 1
 377.2 363 424.2 368 484.3 373 c 1
 486.6 370 l 1
 482.7 361 479.6 351 477.7 342 c 0
 475.8 333 474.6 323 474.7 314 c 1
 471.1 311 l 1
 403.6 318 298.2 321 250.2 321 c 1
 224.5 200 l 2
EndSplineSet
LCarets2: 1 0 
Colour: ff00ff
EndChar

StartChar: uni04D7
Encoding: 1239 1239 113
Width: 442
VWidth: 999
Flags: HW
HStem: -10 59<212.538 337.62> 243 44<186.004 385.311> 399 40<256.349 371.904> 489 31<300.235 375.136>
VStem: 225.4 68.2<524.742 602.849>
LayerCount: 2
Fore
SplineSet
467.6 577 m 0
 455.9 522 390.9 489 326.9 489 c 0
 261.9 489 213.9 522 225.4 576 c 0
 229.2 594 248.4 609 271.4 609 c 0
 293.4 609 302.5 595 299.1 579 c 0
 298.5 576 298 574 296.4 571 c 0
 294.8 568 294 565 293.6 563 c 0
 288.9 541 304.5 520 334.5 520 c 0
 363.5 520 388.8 540 393.5 562 c 0
 394.1 565 394.8 568 394.4 571 c 0
 393.8 573 394.3 575 394.9 578 c 0
 398.5 595 418.4 609 436.4 609 c 0
 460.4 609 471.6 596 467.6 577 c 0
186 287 m 1
 367 287 l 2
 377 287 382.1 292 384 301 c 0
 399.9 376 359.8 399 323.8 399 c 0
 300.8 399 225.1 391 186 287 c 1
418.3 105 m 1
 432.8 79 l 1
 383.7 27 314.9 -10 242.9 -10 c 0
 105.9 -10 51.9 84 76.3 199 c 0
 108.6 351 237.3 439 332.3 439 c 0
 464.3 439 482.2 344 464.3 260 c 0
 462 249 453.7 243 442.7 243 c 2
 173.7 243 l 1
 142 94 219.4 49 275.4 49 c 0
 330.4 49 375.2 67 418.3 105 c 1
EndSplineSet
LCarets2: 1 0 
Colour: ff00ff
EndChar

StartChar: uni04D8
Encoding: 1240 1240 114
Width: 644
VWidth: 999
Flags: HW
HStem: -12 34<253.47 401.028> 216 44<167.912 556.912> 624 34<340.534 498.443>
LayerCount: 2
Fore
SplineSet
208.2 523 m 1
 190.3 547 l 1
 285 621 339.9 658 449.9 658 c 0
 664.9 658 714.1 485 680.3 326 c 0
 638.9 131 506.4 -12 313.4 -12 c 0
 121.4 -12 78.1 118 97.3 260 c 1
 575.3 260 l 1
 578.6 271 581.1 283 584.1 297 c 0
 623.6 483 561.6 624 426.6 624 c 0
 333.6 624 272.3 575 208.2 523 c 1
167.9 216 m 1
 171.3 86 229.7 22 327.7 22 c 0
 433.7 22 517.6 116 556.9 216 c 1
 167.9 216 l 1
EndSplineSet
Colour: ff00ff
EndChar

StartChar: afii10846
Encoding: 1241 1241 115
Width: 442
VWidth: 999
Flags: HW
HStem: -11 40<147.07 262.626> 141 44<133.663 332.971> 379 59<181.354 306.436>
LayerCount: 2
Fore
SplineSet
333 141 m 1
 152 141 l 2
 142 141 136.9 136 135 127 c 0
 119.1 52 159.2 29 195.2 29 c 0
 218.2 29 293.9 37 333 141 c 1
100.7 323 m 1
 86.2 349 l 1
 135.3 401 204.1 438 276.1 438 c 0
 413.1 438 467.1 344 442.7 229 c 0
 410.4 77 281.7 -11 186.7 -11 c 0
 54.7 -11 36.8 84 54.7 168 c 0
 57 179 65.3 185 76.3 185 c 2
 345.3 185 l 1
 377 334 299.6 379 243.6 379 c 0
 188.6 379 143.8 361 100.7 323 c 1
EndSplineSet
Colour: ff00ff
EndChar

StartChar: uni04DA
Encoding: 1242 1242 116
Width: 644
VWidth: 999
Flags: HW
HStem: -12 34<253.47 401.028> 216 44<167.912 556.912> 624 34<340.534 498.443> 704 96<356.831 424.854 545.831 613.854>
VStem: 342.8 96<718.25 785.75> 531.8 96<718.25 785.75>
LayerCount: 2
Fore
SplineSet
531.8 752 m 0
 537.3 778 564 800 590 800 c 0
 616 800 633.3 778 627.8 752 c 0
 622.3 726 595.6 704 569.6 704 c 0
 543.6 704 526.3 726 531.8 752 c 0
342.8 752 m 0
 348.3 778 375 800 401 800 c 0
 427 800 444.3 778 438.8 752 c 0
 433.3 726 406.6 704 380.6 704 c 0
 354.6 704 337.3 726 342.8 752 c 0
208.2 523 m 1
 190.3 547 l 1
 285 621 339.9 658 449.9 658 c 0
 664.9 658 714.1 485 680.3 326 c 0
 638.9 131 506.4 -12 313.4 -12 c 0
 121.4 -12 78.1 118 97.3 260 c 1
 575.3 260 l 1
 578.6 271 581.1 283 584.1 297 c 0
 623.6 483 561.6 624 426.6 624 c 0
 333.6 624 272.3 575 208.2 523 c 1
167.9 216 m 1
 171.3 86 229.7 22 327.7 22 c 0
 433.7 22 517.6 116 556.9 216 c 1
 167.9 216 l 1
EndSplineSet
LCarets2: 1 0 
Colour: ff00ff
EndChar

StartChar: uni04DB
Encoding: 1243 1243 117
Width: 442
VWidth: 999
Flags: HW
HStem: -11 40<147.07 262.626> 141 44<133.663 332.971> 379 59<181.354 306.436> 527 92<221.374 288.216 381.374 448.216>
VStem: 208.8 92<539.849 606.151> 368.8 92<539.849 606.151>
LayerCount: 2
Fore
SplineSet
208.8 573 m 0
 214.1 598 239.6 619 264.6 619 c 0
 289.6 619 306.1 598 300.8 573 c 0
 295.5 548 270 527 245 527 c 0
 220 527 203.5 548 208.8 573 c 0
368.8 573 m 0
 374.1 598 399.6 619 424.6 619 c 0
 449.6 619 466.1 598 460.8 573 c 0
 455.5 548 430 527 405 527 c 0
 380 527 363.5 548 368.8 573 c 0
333 141 m 1
 152 141 l 2
 142 141 136.9 136 135 127 c 0
 119.1 52 159.2 29 195.2 29 c 0
 218.2 29 293.9 37 333 141 c 1
100.7 323 m 1
 86.2 349 l 1
 135.3 401 204.1 438 276.1 438 c 0
 413.1 438 467.1 344 442.7 229 c 0
 410.4 77 281.7 -11 186.7 -11 c 0
 54.7 -11 36.8 84 54.7 168 c 0
 57 179 65.3 185 76.3 185 c 2
 345.3 185 l 1
 377 334 299.6 379 243.6 379 c 0
 188.6 379 143.8 361 100.7 323 c 1
EndSplineSet
LCarets2: 1 0 
Colour: ff00ff
EndChar

StartChar: uni04E0
Encoding: 1248 1248 118
Width: 608
VWidth: 999
Flags: HW
HStem: -211 37<186.577 317.707> 605 40<267.214 574.597>
VStem: 165.8 25.6<478.453 500.588>
LayerCount: 2
Fore
SplineSet
304.1 645 m 2
 659.1 645 l 2
 680.1 645 685.8 639 684.1 631 c 0
 682 621 672.6 605 660.4 590 c 2
 428.2 288 l 1
 556.5 261 598.4 162 574.8 51 c 0
 545.3 -88 387.2 -211 227.2 -211 c 0
 147.2 -211 4.6 -176 18.6 -110 c 0
 23.5 -87 39.2 -60 73.2 -60 c 0
 100.2 -60 125.3 -74 133.8 -95 c 0
 155.4 -144 199 -174 254 -174 c 0
 341 -174 463.7 -53 483.9 42 c 0
 517.7 201 414.2 255 345.2 255 c 0
 329.2 255 318.2 255 303.6 252 c 1
 574.6 605 l 1
 325.6 605 l 1
 251.4 604 204.8 521 191.4 477 c 1
 165.8 479 l 1
 226.8 667 l 1
 248.7 662 280.1 645 304.1 645 c 2
EndSplineSet
Colour: ff00ff
EndChar

StartChar: uni04E1
Encoding: 1249 1249 119
Width: 416
VWidth: 999
Flags: HW
HStem: -235 35<110.919 204.186> 103 34<245.12 287.944> 395 34<189.027 378.96>
VStem: 11.8 76.4<-181.625 -110.816>
LayerCount: 2
Fore
SplineSet
149.7 107 m 1
 379 395 l 1
 234 395 l 2
 204 395 165.5 374 130 301 c 1
 104.6 304 l 1
 123 353 138.4 397 149 442 c 1
 174 442 l 1
 174.7 436 182.2 429 197.2 429 c 2
 400.2 429 l 2
 429.2 429 466.5 435 468.5 435 c 0
 475.5 435 481 433 480.2 429 c 0
 479.3 425 471 414 449.3 387 c 2
 245.1 137 l 1
 341.1 137 410.8 84 388.3 -22 c 0
 363 -141 258 -235 135 -235 c 0
 50 -235 5 -174 11.8 -142 c 0
 15.6 -124 29.5 -106 51.5 -106 c 0
 74.5 -106 85.3 -116 88.2 -140 c 0
 91.5 -162 110.5 -200 150.5 -200 c 0
 200.5 -200 280.9 -146 303.9 -38 c 0
 325.4 63 302.9 103 224.9 103 c 0
 213.9 103 182.4 96 163.6 92 c 1
 149.7 107 l 1
EndSplineSet
Colour: ff00ff
EndChar

StartChar: uni04E6
Encoding: 1254 1254 120
Width: 721
VWidth: 999
Flags: HW
HStem: -10 44<300.443 475.261> 614 44<388.579 570.774> 704 96<382.831 450.854 571.831 639.854>
VStem: 368.8 96<718.25 785.75> 557.8 96<718.25 785.75>
LayerCount: 2
Fore
SplineSet
557.8 752 m 0
 563.3 778 590 800 616 800 c 0
 642 800 659.3 778 653.8 752 c 0
 648.3 726 621.6 704 595.6 704 c 0
 569.6 704 552.3 726 557.8 752 c 0
368.8 752 m 0
 374.3 778 401 800 427 800 c 0
 453 800 470.3 778 464.8 752 c 0
 459.3 726 432.6 704 406.6 704 c 0
 380.6 704 363.3 726 368.8 752 c 0
475.5 614 m 0
 379.5 614 259.1 537 214.5 327 c 0
 173.7 135 266.2 34 386.2 34 c 0
 500.2 34 603.9 131 641.9 310 c 0
 686.1 518 616.5 614 475.5 614 c 0
748.9 329 m 0
 706.4 129 547.9 -10 356.9 -10 c 0
 184.9 -10 66 113 107.9 310 c 0
 149.6 506 318.9 658 497.9 658 c 0
 677.9 658 791 527 748.9 329 c 0
EndSplineSet
LCarets2: 1 0 
Colour: ff00ff
EndChar

StartChar: uni04E7
Encoding: 1255 1255 121
Width: 510
VWidth: 999
Flags: HW
HStem: -10 41<214.883 340.478> 398 41<267.059 398.372> 528 92<262.587 329.428 422.587 489.428>
VStem: 250 92<540.849 607.151> 410 92<540.849 607.151>
LayerCount: 2
Fore
SplineSet
79.6 205 m 0
 108.7 342 219.3 439 350.3 439 c 0
 507.3 439 541.6 318 519.5 214 c 0
 496.8 107 395.9 -10 252.9 -10 c 0
 114.9 -10 56.2 95 79.6 205 c 0
334.6 398 m 0
 248.6 398 193 315 174.5 228 c 0
 158.1 151 171.6 31 275.6 31 c 0
 320.6 31 397.3 63 423.7 187 c 0
 454.9 334 419.6 398 334.6 398 c 0
250 574 m 0
 255.3 599 280.8 620 305.8 620 c 0
 330.8 620 347.3 599 342 574 c 0
 336.7 549 311.2 528 286.2 528 c 0
 261.2 528 244.7 549 250 574 c 0
410 574 m 0
 415.3 599 440.8 620 465.8 620 c 0
 490.8 620 507.3 599 502 574 c 0
 496.7 549 471.2 528 446.2 528 c 0
 421.2 528 404.7 549 410 574 c 0
EndSplineSet
LCarets2: 1 0 
Colour: ff00ff
EndChar

StartChar: uni04E8
Encoding: 1256 1256 122
Width: 721
VWidth: 999
Flags: HW
HStem: -10 44<300.443 475.261> 266 57<460.616 594.876> 312 58<251.82 402.997> 614 44<388.579 570.774>
LayerCount: 2
Fore
SplineSet
748.9 329 m 0
 706.4 129 547.9 -10 356.9 -10 c 0
 184.9 -10 66 113 107.9 310 c 0
 149.6 506 318.9 658 497.9 658 c 0
 677.9 658 791 527 748.9 329 c 0
650.5 358.6 m 1
 674.3 533 605 614 475.5 614 c 0
 380.2 614 260.9 538.2 215.5 331.8 c 1
 260.1 357.9 317.4 370 351.6 370 c 0
 449.6 370 469.7 323 532.7 323 c 0
 564.3 323 613.1 335.4 650.5 358.6 c 1
643.2 316.3 m 1
 592.9 277.6 540.4 266 502.5 266 c 0
 410.5 266 396.3 312 321.3 312 c 0
 294.4 312 246.4 307.7 208 289.2 c 1
 186.3 121.7 274.3 34 386.2 34 c 0
 500.2 34 603.9 131 641.9 310 c 0
 642.3 312.1 642.8 314.2 643.2 316.3 c 1
EndSplineSet
Colour: ff00ff
EndChar

StartChar: uni04E9
Encoding: 1257 1257 123
Width: 510
VWidth: 999
Flags: HMW
HStem: -12 36<202 328> 179 49<204 349> 207 42<118 238> 409 33<183 304>
VStem: 44 79<124 320> 377 79<113 318>
AnchorPoint: "unten_punkt" 223.3 -107 basechar 0
AnchorPoint: "top_punkt" 361.9 550 basechar 0
AnchorPoint: "top_akzent" 373.1 645 basechar 0
LayerCount: 2
Fore
SplineSet
426.6 219 m 1
 404.8 206 353 179 312 179 c 0
 269 179 241 207 206 207 c 0
 198.4 207 182.6 204.2 170.3 202.1 c 1
 162 126.8 182.7 31 275.6 31 c 0
 320.6 31 397.3 63 423.7 187 c 0
 454.9 334 419.6 398 334.6 398 c 0
 249.4 398 194 316.6 175 230.5 c 1
 200.2 240.5 238.6 249 265.9 249 c 0
 310.9 249 328.7 229 366.7 229 c 0
 388.7 229 412.4 237 428.9 244 c 1
 426.6 219 l 1
79.6 205 m 0
 108.7 342 219.3 439 350.3 439 c 0
 507.3 439 541.6 318 519.5 214 c 0
 496.8 107 395.9 -10 252.9 -10 c 0
 114.9 -10 56.2 95 79.6 205 c 0
EndSplineSet
Colour: ff80cc
EndChar

StartChar: uni04EA
Encoding: 1258 1258 124
Width: 721
VWidth: 999
Flags: HW
HStem: -10 44<300.443 475.261> 266 57<460.616 594.876> 312 58<251.82 402.997> 614 44<388.579 570.774> 706 96<380.257 448.279 569.257 637.279>
VStem: 366.3 96<720.25 787.75> 555.3 96<720.25 787.75>
LayerCount: 2
Fore
SplineSet
555.3 754 m 0
 560.8 780 587.5 802 613.5 802 c 0
 639.5 802 656.8 780 651.3 754 c 0
 645.8 728 619.1 706 593.1 706 c 0
 567.1 706 549.8 728 555.3 754 c 0
366.3 754 m 0
 371.8 780 398.5 802 424.5 802 c 0
 450.5 802 467.8 780 462.3 754 c 0
 456.8 728 430.1 706 404.1 706 c 0
 378.1 706 360.8 728 366.3 754 c 0
748.9 329 m 0
 706.4 129 547.9 -10 356.9 -10 c 0
 184.9 -10 66 113 107.9 310 c 0
 149.6 506 318.9 658 497.9 658 c 0
 677.9 658 791 527 748.9 329 c 0
650.5 358.6 m 1
 674.3 533 605 614 475.5 614 c 0
 380.2 614 260.9 538.2 215.5 331.8 c 1
 260.1 357.9 317.4 370 351.6 370 c 0
 449.6 370 469.7 323 532.7 323 c 0
 564.3 323 613.1 335.4 650.5 358.6 c 1
643.2 316.3 m 1
 592.9 277.6 540.4 266 502.5 266 c 0
 410.5 266 396.3 312 321.3 312 c 0
 294.4 312 246.4 307.7 208 289.2 c 1
 186.3 121.7 274.3 34 386.2 34 c 0
 500.2 34 603.9 131 641.9 310 c 0
 642.3 312.1 642.8 314.2 643.2 316.3 c 1
EndSplineSet
LCarets2: 1 0 
Colour: ff00ff
EndChar

StartChar: uni04EB
Encoding: 1259 1259 125
Width: 510
VWidth: 999
Flags: HW
HStem: -10 41<214.883 340.478> 179 50<252.73 391.62> 207 42<165.553 272.928> 398 41<267.059 398.372> 527 92<264.374 331.216 424.374 491.216>
VStem: 251.8 92<539.849 606.151> 411.8 92<539.849 606.151>
LayerCount: 2
Fore
SplineSet
426.6 219 m 1
 404.8 206 353 179 312 179 c 0
 269 179 241 207 206 207 c 0
 198.4 207 182.6 204.2 170.3 202.1 c 1
 162 126.8 182.7 31 275.6 31 c 0
 320.6 31 397.3 63 423.7 187 c 0
 454.9 334 419.6 398 334.6 398 c 0
 249.4 398 194 316.6 175 230.5 c 1
 200.2 240.5 238.6 249 265.9 249 c 0
 310.9 249 328.7 229 366.7 229 c 0
 388.7 229 412.4 237 428.9 244 c 1
 426.6 219 l 1
79.6 205 m 0
 108.7 342 219.3 439 350.3 439 c 0
 507.3 439 541.6 318 519.5 214 c 0
 496.8 107 395.9 -10 252.9 -10 c 0
 114.9 -10 56.2 95 79.6 205 c 0
251.8 573 m 0
 257.1 598 282.6 619 307.6 619 c 0
 332.6 619 349.1 598 343.8 573 c 0
 338.5 548 313 527 288 527 c 0
 263 527 246.5 548 251.8 573 c 0
411.8 573 m 0
 417.1 598 442.6 619 467.6 619 c 0
 492.6 619 509.1 598 503.8 573 c 0
 498.5 548 473 527 448 527 c 0
 423 527 406.5 548 411.8 573 c 0
EndSplineSet
LCarets2: 1 0 
Colour: ff00ff
EndChar

StartChar: uni04EF
Encoding: 1263 1263 126
Width: 486
VWidth: 999
Flags: HW
HStem: -237 21G<48.9428 74.2235 122.943 159.908> 412 20G<116.505 120.287 204.005 217.392 447.798 482.505 536.203 554.505> 538 44<230.148 508.444>
VStem: 109.8 101<337.428 432>
LayerCount: 2
Fore
SplineSet
109.8 432 m 1
 123.2 429 148.2 429 161.2 429 c 0
 175.2 429 197.2 429 210.8 432 c 1
 223.9 317.8 247.4 206.5 271.3 87.6 c 1
 273.3 87.6 l 1
 343.9 191.2 417.7 319 477.8 432 c 1
 487.2 429 506.2 429 516.2 429 c 0
 526.2 429 549.2 429 559.8 432 c 1
 512.6 365 192.2 -112 127.6 -237 c 1
 118.2 -234 89.7 -232 79.7 -232 c 0
 69.7 -232 54.2 -234 43.6 -237 c 1
 104.8 -161.7 153.9 -93.8 201.8 -19.1 c 1
 186.6 76 130.7 343.2 109.8 432 c 1
481.4 538 m 2
 237.4 538 l 2
 228.4 538 226 546 227.5 553 c 0
 230.1 565 244.7 582 255.7 582 c 2
 500.7 582 l 2
 510.7 582 513 574 511.7 568 c 0
 509.2 556 494.4 538 481.4 538 c 2
EndSplineSet
LCarets2: 1 0 
Colour: ff00ff
EndChar

StartChar: uni04F1
Encoding: 1265 1265 127
Width: 486
VWidth: 999
Flags: HW
HStem: -237 21G<48.9428 74.2235 122.943 159.908> 412 20G<116.505 120.287 204.005 217.392 447.798 482.505 536.203 554.505> 527 92<269.374 336.216 429.374 496.216>
VStem: 109.8 101<337.428 432> 256.8 92<539.849 606.151> 416.8 92<539.849 606.151>
LayerCount: 2
Fore
SplineSet
109.8 432 m 1
 123.2 429 148.2 429 161.2 429 c 0
 175.2 429 197.2 429 210.8 432 c 1
 223.9 317.8 247.4 206.5 271.3 87.6 c 1
 273.3 87.6 l 1
 343.9 191.2 417.7 319 477.8 432 c 1
 487.2 429 506.2 429 516.2 429 c 0
 526.2 429 549.2 429 559.8 432 c 1
 512.6 365 192.2 -112 127.6 -237 c 1
 118.2 -234 89.7 -232 79.7 -232 c 0
 69.7 -232 54.2 -234 43.6 -237 c 1
 104.8 -161.7 153.9 -93.8 201.8 -19.1 c 1
 186.6 76 130.7 343.2 109.8 432 c 1
256.8 573 m 0
 262.1 598 287.6 619 312.6 619 c 0
 337.6 619 354.1 598 348.8 573 c 0
 343.5 548 318 527 293 527 c 0
 268 527 251.5 548 256.8 573 c 0
416.8 573 m 0
 422.1 598 447.6 619 472.6 619 c 0
 497.6 619 514.1 598 508.8 573 c 0
 503.5 548 478 527 453 527 c 0
 428 527 411.5 548 416.8 573 c 0
EndSplineSet
LCarets2: 1 0 
Colour: ff00ff
EndChar

StartChar: uni04F3
Encoding: 1267 1267 128
Width: 486
VWidth: 999
Flags: HW
HStem: -237 21G<48.9428 74.2235 122.943 159.908> 412 20G<116.505 120.287 204.005 217.392 447.798 482.505 536.203 554.505> 637 20G<411.649 424.086 538.587 555.062>
VStem: 109.8 101<337.428 432>
LayerCount: 2
Fore
SplineSet
109.8 432 m 1
 123.2 429 148.2 429 161.2 429 c 0
 175.2 429 197.2 429 210.8 432 c 1
 223.9 317.8 247.4 206.5 271.3 87.6 c 1
 273.3 87.6 l 1
 343.9 191.2 417.7 319 477.8 432 c 1
 487.2 429 506.2 429 516.2 429 c 0
 526.2 429 549.2 429 559.8 432 c 1
 512.6 365 192.2 -112 127.6 -237 c 1
 118.2 -234 89.7 -232 79.7 -232 c 0
 69.7 -232 54.2 -234 43.6 -237 c 1
 104.8 -161.7 153.9 -93.8 201.8 -19.1 c 1
 186.6 76 130.7 343.2 109.8 432 c 1
574.7 615 m 0
 573.4 609 571 602 563.7 596 c 2
 426.3 486 l 2
 423.9 484 421.9 484 419.9 484 c 0
 414.9 484 406.9 489 408.6 497 c 0
 408.8 498 409.3 500 410.5 501 c 2
 518 640 l 2
 524.9 649 532.6 652 544.6 652 c 0
 565.6 652 578.7 633.6 574.7 615 c 0
444 621 m 0
 442.9 616 440.7 610 435.6 605 c 2
 307.9 484 l 2
 305.5 482 302.2 481 299.2 481 c 0
 293.2 481 286.3 486 288 494 c 0
 288.2 495 288.4 496 289.6 497 c 2
 384.7 643 l 2
 393.5 656 409.6 657 413.6 657 c 0
 434.5 657 448.4 641.5 444 621 c 0
EndSplineSet
LCarets2: 1 0 
Colour: ff00ff
EndChar

StartChar: uni1E00
Encoding: 7680 7680 129
Width: 633
VWidth: 999
Flags: HW
HStem: -215 27<238.225 303.461> -76 27<256.405 321.926> -3 21G<23.6812 91.3497 91.6812 128.711 503.22 513.181 600.096 606.181> 230 44<246.183 481.982> 638 20G<381.268 503.587>
LayerCount: 2
Fore
SplineSet
291.8 -76 m 0
 260.8 -76 236.3 -102 229.9 -132 c 0
 223.9 -160 237 -188 268 -188 c 0
 299 -188 323.9 -160 329.9 -132 c 0
 336.5 -101 321.8 -76 291.8 -76 c 0
192.9 -132 m 0
 202.7 -86 251.6 -49 297.6 -49 c 0
 343.6 -49 376.9 -85 366.9 -132 c 0
 357.3 -177 310.3 -215 262.3 -215 c 0
 216.3 -215 183.1 -178 192.9 -132 c 0
229.5 228.3 m 1
 175.2 140.8 126.8 58.3 97.4 -3 c 1
 86 0 64 0 53 0 c 0
 42 0 30 0 17.4 -3 c 1
 165.4 218 309.7 436 452.9 658 c 1
 480.9 658 l 1
 526.4 439 585.9 98 614.4 -3 c 1
 598 0 572 0 555 0 c 0
 538 0 522 0 504.4 -3 c 1
 503 19.2 497 97.2 475.8 228.3 c 1
 438.3 229.2 396.9 230 358.9 230 c 0
 324.4 230 267.7 229.2 229.5 228.3 c 1
467.9 275.5 m 1
 455.9 345.2 439.9 427.4 418.9 521.8 c 1
 416.9 521.8 l 1
 368.9 447.2 312.6 360.5 259.3 275.9 c 1
 291 275.5 334.3 274 363.2 274 c 0
 392.9 274 434.9 274.7 467.9 275.5 c 1
EndSplineSet
LCarets2: 1 0 
Colour: ff00ff
EndChar

StartChar: uni1E01
Encoding: 7681 7681 130
Width: 461
VWidth: 999
Flags: HW
HStem: -216 27<154.012 219.248> -77 27<172.192 237.713> -10 51<151.395 245.011 325.374 412.357> 394 45<226.622 343.853>
LayerCount: 2
Fore
SplineSet
207.6 -77 m 0
 176.6 -77 152.1 -103 145.7 -133 c 0
 139.7 -161 152.8 -189 183.8 -189 c 0
 214.8 -189 239.7 -161 245.7 -133 c 0
 252.3 -102 237.6 -77 207.6 -77 c 0
108.7 -133 m 0
 118.5 -87 167.4 -50 213.4 -50 c 0
 259.4 -50 292.7 -86 282.7 -133 c 0
 273.1 -178 226.1 -216 178.1 -216 c 0
 132.1 -216 98.9 -179 108.7 -133 c 0
339.4 223 m 1
 254.9 202 l 2
 176.9 183 154.3 147 144.7 102 c 0
 138.1 71 155.7 41 197.7 41 c 0
 225.7 41 262.4 63 292.9 84 c 0
 302.2 90 309.6 97 312.4 110 c 2
 339.4 223 l 1
384.2 76 m 0
 379.9 56 382.6 45 393.6 45 c 0
 407.6 45 423.5 59 434 66 c 1
 436.6 64 l 1
 448.1 43 l 1
 408.6 3 379.9 -10 348.9 -10 c 0
 301.9 -10 299.8 32 301.2 48 c 1
 299.2 48 l 1
 239.6 3 209.9 -10 157.9 -10 c 0
 87.9 -10 47.1 24 62.8 98 c 0
 77.3 166 149.8 220 250.7 243 c 2
 343.1 264 l 2
 346.3 265 350.2 269 351.7 276 c 0
 375.7 389 320.7 394 286.7 394 c 0
 241.7 394 190.4 350 154.8 305 c 1
 142 306 l 1
 140.3 373 l 1
 144.1 377 l 1
 172.6 398 233.3 439 305.3 439 c 0
 377.3 439 459.6 412 430.9 277 c 0
 428.6 266 390.4 105 384.2 76 c 0
EndSplineSet
LCarets2: 1 0 
Colour: ff00ff
EndChar

StartChar: uni1E02
Encoding: 7682 7682 131
Width: 582
VWidth: 999
Flags: HW
HStem: -3 44<177.77 404.74> 327 44<267.858 434.848> 604 41<316.577 473.201> 690 102<406.287 474.722>
VStem: 389.5 102<706.264 775.736>
LayerCount: 2
Fore
SplineSet
389.5 741 m 0
 395.2 768 424.3 792 451.3 792 c 0
 478.3 792 497.2 768 491.5 741 c 0
 485.8 714 456.7 690 429.7 690 c 0
 402.7 690 383.8 714 389.5 741 c 0
307.8 559 m 2
 267.9 371 l 1
 339.9 371 l 2
 422.9 371 479.1 396 497.2 481 c 0
 518.9 583 458.4 604 402.4 604 c 0
 321.4 604 314.9 592.3 307.8 559 c 2
258.5 327 m 1
 207.7 88 l 2
 200.7 55 208.7 41 278.7 41 c 0
 430.7 41 461.6 92 477.1 165 c 0
 496.2 255 462.5 327 345.5 327 c 2
 258.5 327 l 1
283.1 645 m 0
 330.3 645 369.7 648 404.7 648 c 0
 590.7 648 601 560 586.8 493 c 0
 575.1 438 521.8 385 465.5 360 c 1
 547.2 335 600.5 280 580.1 184 c 0
 561.8 98 487.4 -3 288.4 -3 c 0
 199.4 -3 201.8 0 146 0 c 0
 111 0 93.4 -3 93.4 -3 c 1
 93 0 l 1
 112.5 54 129.6 125 145.5 200 c 2
 197.6 445 l 2
 213.5 520 226 588 230.1 645 c 1
 232.7 648 l 1
 232.7 648 249.1 645 283.1 645 c 0
EndSplineSet
LCarets2: 1 0 
Colour: ff00ff
EndChar

StartChar: uni1E03
Encoding: 7683 7683 132
Width: 497
VWidth: 999
Flags: HW
HStem: -10 44<191.252 316.481> 385 54<285.913 394.636> 520 102<352.152 420.587> 678 20G<290.763 307.531>
VStem: 207.4 103.8<618.304 670> 335.4 102<536.264 605.736>
LayerCount: 2
Fore
SplineSet
335.4 571 m 0
 341.1 598 370.2 622 397.2 622 c 0
 424.2 622 443.1 598 437.4 571 c 0
 431.7 544 402.5 520 375.5 520 c 0
 348.5 520 329.7 544 335.4 571 c 0
172.2 81 m 1
 186.9 56 206.2 34 237.2 34 c 0
 332.2 34 398.4 110 422.6 224 c 0
 443.2 321 402.8 385 341.8 385 c 0
 330.8 385 275.4 383 227.9 343 c 1
 172.2 81 l 1
261.3 500 m 2
 236.6 384 l 1
 278.5 421 325.3 439 373.3 439 c 0
 460.3 439 537.3 364 511.4 242 c 0
 477.6 83 335.9 -10 233.9 -10 c 0
 190.9 -10 163.4 2 139.7 27 c 1
 122.4 14 110.4 2 98.4 -12 c 1
 88.9 -12 73.7 -10.8 68.5 -7 c 1
 77.4 14.8 81.8 32 90.1 71 c 2
 177.5 482 l 2
 193.7 558 206 627.3 207.4 670 c 1
 210.1 673 l 1
 251.2 676 277.2 688 304.4 698 c 1
 310.7 698 312.7 695 311.2 688 c 0
 290.5 626.7 277 574 261.3 500 c 2
EndSplineSet
LCarets2: 1 0 
Colour: ff00ff
EndChar

StartChar: uni1E04
Encoding: 7684 7684 133
Width: 582
VWidth: 999
Flags: HW
HStem: -166 102<211.339 279.773> -3 44<177.77 404.74> 327 44<267.858 434.848> 604 41<316.577 473.201>
VStem: 194.6 102<-149.736 -80.2637>
LayerCount: 2
Fore
SplineSet
194.6 -115 m 0
 200.3 -88 229.4 -64 256.4 -64 c 0
 283.4 -64 302.3 -88 296.6 -115 c 0
 290.9 -142 261.7 -166 234.7 -166 c 0
 207.7 -166 188.9 -142 194.6 -115 c 0
307.8 559 m 2
 267.9 371 l 1
 339.9 371 l 2
 422.9 371 479.1 396 497.2 481 c 0
 518.9 583 458.4 604 402.4 604 c 0
 321.4 604 314.9 592.3 307.8 559 c 2
258.5 327 m 1
 207.7 88 l 2
 200.7 55 208.7 41 278.7 41 c 0
 430.7 41 461.6 92 477.1 165 c 0
 496.2 255 462.5 327 345.5 327 c 2
 258.5 327 l 1
283.1 645 m 0
 330.3 645 369.7 648 404.7 648 c 0
 590.7 648 601 560 586.8 493 c 0
 575.1 438 521.8 385 465.5 360 c 1
 547.2 335 600.5 280 580.1 184 c 0
 561.8 98 487.4 -3 288.4 -3 c 0
 199.4 -3 201.8 0 146 0 c 0
 111 0 93.4 -3 93.4 -3 c 1
 93 0 l 1
 112.5 54 129.6 125 145.5 200 c 2
 197.6 445 l 2
 213.5 520 226 588 230.1 645 c 1
 232.7 648 l 1
 232.7 648 249.1 645 283.1 645 c 0
EndSplineSet
LCarets2: 1 0 
Colour: ff00ff
EndChar

StartChar: uni1E05
Encoding: 7685 7685 134
Width: 497
VWidth: 999
Flags: HW
HStem: -166 102<166.339 234.773> -10 44<191.252 316.481> 385 54<285.913 394.636> 678 20G<290.763 307.531>
VStem: 149.6 102<-149.736 -80.2637> 207.4 103.8<618.304 670>
LayerCount: 2
Fore
SplineSet
149.6 -115 m 0
 155.3 -88 184.4 -64 211.4 -64 c 0
 238.4 -64 257.3 -88 251.6 -115 c 0
 245.9 -142 216.7 -166 189.7 -166 c 0
 162.7 -166 143.9 -142 149.6 -115 c 0
172.2 81 m 1
 186.9 56 206.2 34 237.2 34 c 0
 332.2 34 398.4 110 422.6 224 c 0
 443.2 321 402.8 385 341.8 385 c 0
 330.8 385 275.4 383 227.9 343 c 1
 172.2 81 l 1
261.3 500 m 2
 236.6 384 l 1
 278.5 421 325.3 439 373.3 439 c 0
 460.3 439 537.3 364 511.4 242 c 0
 477.6 83 335.9 -10 233.9 -10 c 0
 190.9 -10 163.4 2 139.7 27 c 1
 122.4 14 110.4 2 98.4 -12 c 1
 88.9 -12 73.7 -10.8 68.5 -7 c 1
 77.4 14.8 81.8 32 90.1 71 c 2
 177.5 482 l 2
 193.7 558 206 627.3 207.4 670 c 1
 210.1 673 l 1
 251.2 676 277.2 688 304.4 698 c 1
 310.7 698 312.7 695 311.2 688 c 0
 290.5 626.7 277 574 261.3 500 c 2
EndSplineSet
LCarets2: 1 0 
Colour: ff00ff
EndChar

StartChar: uni1E06
Encoding: 7686 7686 135
Width: 582
VWidth: 999
Flags: HW
HStem: -106 44<119.175 396.68> -3 44<177.77 404.74> 327 44<267.858 434.848> 604 41<316.577 473.201>
LayerCount: 2
Fore
SplineSet
370.5 -106 m 2
 125.5 -106 l 2
 117.5 -106 115.2 -98 116.7 -91 c 0
 119.3 -79 132.8 -62 144.8 -62 c 2
 389.8 -62 l 2
 398.8 -62 401.3 -69 399.8 -76 c 0
 397.2 -88 383.5 -106 370.5 -106 c 2
307.8 559 m 2
 267.9 371 l 1
 339.9 371 l 2
 422.9 371 479.1 396 497.2 481 c 0
 518.9 583 458.4 604 402.4 604 c 0
 321.4 604 314.9 592.3 307.8 559 c 2
258.5 327 m 1
 207.7 88 l 2
 200.7 55 208.7 41 278.7 41 c 0
 430.7 41 461.6 92 477.1 165 c 0
 496.2 255 462.5 327 345.5 327 c 2
 258.5 327 l 1
283.1 645 m 0
 330.3 645 369.7 648 404.7 648 c 0
 590.7 648 601 560 586.8 493 c 0
 575.1 438 521.8 385 465.5 360 c 1
 547.2 335 600.5 280 580.1 184 c 0
 561.8 98 487.4 -3 288.4 -3 c 0
 199.4 -3 201.8 0 146 0 c 0
 111 0 93.4 -3 93.4 -3 c 1
 93 0 l 1
 112.5 54 129.6 125 145.5 200 c 2
 197.6 445 l 2
 213.5 520 226 588 230.1 645 c 1
 232.7 648 l 1
 232.7 648 249.1 645 283.1 645 c 0
EndSplineSet
LCarets2: 1 0 
Colour: ff00ff
EndChar

StartChar: uni1E07
Encoding: 7687 7687 136
Width: 497
VWidth: 999
Flags: HW
HStem: -110 44<88.3247 365.829> -10 44<191.252 316.481> 385 54<285.913 394.636> 678 20G<290.763 307.531>
VStem: 207.4 103.8<618.304 670>
LayerCount: 2
Fore
SplineSet
339.6 -110 m 2
 94.6 -110 l 2
 86.6 -110 84.3 -102 85.8 -95 c 0
 88.4 -83 102 -66 114 -66 c 2
 359 -66 l 2
 368 -66 370.5 -73 369 -80 c 0
 366.4 -92 352.6 -110 339.6 -110 c 2
172.2 81 m 1
 186.9 56 206.2 34 237.2 34 c 0
 332.2 34 398.4 110 422.6 224 c 0
 443.2 321 402.8 385 341.8 385 c 0
 330.8 385 275.4 383 227.9 343 c 1
 172.2 81 l 1
261.3 500 m 2
 236.6 384 l 1
 278.5 421 325.3 439 373.3 439 c 0
 460.3 439 537.3 364 511.4 242 c 0
 477.6 83 335.9 -10 233.9 -10 c 0
 190.9 -10 163.4 2 139.7 27 c 1
 122.4 14 110.4 2 98.4 -12 c 1
 88.9 -12 73.7 -10.8 68.5 -7 c 1
 77.4 14.8 81.8 32 90.1 71 c 2
 177.5 482 l 2
 193.7 558 206 627.3 207.4 670 c 1
 210.1 673 l 1
 251.2 676 277.2 688 304.4 698 c 1
 310.7 698 312.7 695 311.2 688 c 0
 290.5 626.7 277 574 261.3 500 c 2
EndSplineSet
LCarets2: 1 0 
Colour: ff00ff
EndChar

StartChar: uni1E08
Encoding: 7688 7688 137
Width: 650
VWidth: 999
Flags: HW
HStem: -204 29<252.698 355.766> -10 6<355.149 389.149> 611 47<398.123 587.897> 697 21G<427.652 436.652>
LayerCount: 2
Fore
SplineSet
582.1 819 m 1
 607.9 805.7 624.8 788.3 633 767 c 1
 476.7 709 l 2
 453.8 700 441.2 697 432.2 697 c 0
 423.2 697 418.6 704 420.3 712 c 0
 421.8 719 424.9 724 439.8 733 c 2
 582.1 819 l 1
345.7 -100 m 0
 326.7 -100 316.6 -101 299.5 -106 c 1
 294.7 -100 l 1
 351.4 -10 l 2
 350.6 -10 349.7 -10 348.9 -10 c 0
 133.9 -10 69.8 154 104 315 c 0
 145.9 512 335.9 658 504.9 658 c 0
 626.9 658 713.3 613 713.3 613 c 1
 714.7 610 l 1
 692.5 560.7 685.5 550 671.1 499 c 1
 660.9 498 l 1
 637.3 580 570.9 611 480.9 611 c 0
 398.9 611 254.1 537 211 334 c 0
 180 188 213.7 41 368.7 41 c 0
 461.7 41 534.2 62 621.8 140 c 1
 641.6 125 l 1
 565.9 47.5 473.6 2.6 387 -7.7 c 1
 349.9 -71 l 1
 358.3 -69 367.5 -68 376.5 -68 c 0
 416.5 -68 442.5 -92 434.4 -130 c 0
 425.3 -173 372.6 -204 311.6 -204 c 0
 279.6 -204 264 -198 241.3 -187 c 1
 243.9 -175 248.3 -168 256.8 -161 c 1
 281.7 -171 291.8 -175 311.8 -175 c 0
 341.8 -175 365.8 -161 371.3 -135 c 0
 375.8 -114 368.7 -100 345.7 -100 c 0
EndSplineSet
LCarets2: 1 0 
Colour: ff00ff
EndChar

StartChar: uni1E09
Encoding: 7689 7689 138
Width: 437
VWidth: 999
Flags: HW
HStem: -198 29<119.973 223.041> -10 12<222.425 256.425> 394 45<269.645 396.609>
LayerCount: 2
Fore
SplineSet
442.6 671 m 1
 445.8 672 452.1 673 457.1 673 c 0
 463.5 673 488.9 672 507.2 650 c 1
 507.8 639 l 1
 369.7 530 l 2
 351.5 515 342.6 511 335.6 511 c 0
 328.6 511 322.9 517 324.4 524 c 0
 326.8 535.2 330.9 539.2 341.8 552 c 2
 442.6 671 l 1
213 -94 m 0
 194 -94 183.8 -95 166.7 -100 c 1
 162 -94 l 1
 216.1 -8.1 l 1
 110 5.4 55.1 89.9 80.2 208 c 0
 110.4 350 246.3 439 354.3 439 c 0
 404.3 439 453.9 423 481.5 407 c 1
 482.9 404 l 1
 442.4 322 l 1
 429.2 321 l 1
 412.4 366.5 382.2 394 343.7 394 c 0
 277.7 394 193.3 340 169.9 230 c 0
 145 113 203.4 44 280.4 44 c 0
 323.4 44 363.1 62 403.7 107 c 1
 407.7 107 l 1
 424.3 91 l 1
 377.4 23.5 308.8 -9.1 249.4 -10 c 1
 217.2 -65 l 1
 225.6 -63 234.8 -62 243.8 -62 c 0
 283.8 -62 309.7 -86 301.6 -124 c 0
 292.5 -167 239.9 -198 178.9 -198 c 0
 146.9 -198 131.2 -192 108.5 -181 c 1
 111.1 -169 115.6 -162 124.1 -155 c 1
 149 -165 159.1 -169 179.1 -169 c 0
 209.1 -169 233.1 -155 238.6 -129 c 0
 243.1 -108 236 -94 213 -94 c 0
EndSplineSet
LCarets2: 1 0 
Colour: ff00ff
EndChar

StartChar: uni1E0A
Encoding: 7690 7690 139
Width: 698
VWidth: 999
Flags: HW
HStem: -2 44<175.259 447.445> 604 41<316.628 507.08> 694 102<420.137 488.572>
VStem: 403.4 102<710.264 779.736>
LayerCount: 2
Fore
SplineSet
403.4 745 m 0
 409.1 772 438.2 796 465.2 796 c 0
 492.2 796 511.1 772 505.4 745 c 0
 499.7 718 470.5 694 443.5 694 c 0
 416.5 694 397.7 718 403.4 745 c 0
204.4 82 m 2
 197.6 50 206.9 42 304.9 42 c 0
 445.9 42 569.5 82 612.4 284 c 0
 645.1 438 615.4 604 399.4 604 c 0
 350.4 604 314.3 599 306.9 564 c 2
 204.4 82 l 2
281.1 645 m 0
 345.1 645 382.7 648 446.7 648 c 0
 638.7 648 760 494 720.5 308 c 0
 668.2 62 467.6 -2 326.6 -2 c 0
 223.6 -2 215 0 144 0 c 0
 109 0 91.4 -3 91.4 -3 c 1
 91 0 l 1
 110.5 54 127.6 125 143.5 200 c 2
 195.6 445 l 2
 211.5 520 224 588 228.1 645 c 1
 230.7 648 l 1
 230.7 648 247.1 645 281.1 645 c 0
EndSplineSet
LCarets2: 1 0 
Colour: ff00ff
EndChar

StartChar: uni1E0B
Encoding: 7691 7691 140
Width: 514
VWidth: 999
Flags: HW
HStem: -10 57<200.202 299.699> -3 21G<373.362 383.206 449.074 458> 394 45<268.236 409.648> 520 102<319.152 387.587> 678 20G<576.764 593.531>
VStem: 302.4 102<536.264 605.736> 368 90<0 52.0688> 493.4 103.8<618.304 670>
LayerCount: 2
Fore
SplineSet
302.4 571 m 0
 308.1 598 337.2 622 364.2 622 c 0
 391.2 622 410.1 598 404.4 571 c 0
 398.7 544 369.5 520 342.5 520 c 0
 315.5 520 296.7 544 302.4 571 c 0
384.2 109 m 1
 432.2 335 l 1
 416.3 373 396.7 394 349.7 394 c 0
 301.3 394 203.9 371 172 221 c 0
 145.4 96 200 47 254 47 c 0
 294.5 47 337.8 62.5 384.2 109 c 1
374.6 64 m 1
 328.7 17.5 263.9 -10 215.9 -10 c 0
 107.9 -10 57 80 83.1 203 c 0
 112 339 240.1 439 370.3 439 c 0
 390.3 439 429.4 430 449.6 417 c 1
 463.5 482 l 2
 479.7 558 492 627.3 493.4 670 c 1
 496.1 673 l 1
 537.2 676 563.2 688 590.4 698 c 1
 596.7 698 598.7 695 597.2 688 c 0
 576.5 626.7 563 574 547.3 500 c 2
 481.8 192 l 2
 465.9 117 459.1 43 458 0 c 1
 455.4 -3 l 1
 442.8 -1 424.1 0 411.5 0 c 0
 397 0 390.1 -1.3 376.4 -3 c 0
 370.4 -3 367.6 -2 368 0 c 2
 376.6 64 l 1
 374.6 64 l 1
EndSplineSet
LCarets2: 1 0 
Colour: ff00ff
EndChar

StartChar: uni1E0C
Encoding: 7692 7692 141
Width: 698
VWidth: 999
Flags: HW
HStem: -166 102<231.339 299.773> -2 44<175.259 447.445> 604 41<316.628 507.08>
VStem: 214.6 102<-149.736 -80.2637>
LayerCount: 2
Fore
SplineSet
214.6 -115 m 0
 220.3 -88 249.4 -64 276.4 -64 c 0
 303.4 -64 322.3 -88 316.6 -115 c 0
 310.9 -142 281.7 -166 254.7 -166 c 0
 227.7 -166 208.9 -142 214.6 -115 c 0
204.4 82 m 2
 197.6 50 206.9 42 304.9 42 c 0
 445.9 42 569.5 82 612.4 284 c 0
 645.1 438 615.4 604 399.4 604 c 0
 350.4 604 314.3 599 306.9 564 c 2
 204.4 82 l 2
281.1 645 m 0
 345.1 645 382.7 648 446.7 648 c 0
 638.7 648 760 494 720.5 308 c 0
 668.2 62 467.6 -2 326.6 -2 c 0
 223.6 -2 215 0 144 0 c 0
 109 0 91.4 -3 91.4 -3 c 1
 91 0 l 1
 110.5 54 127.6 125 143.5 200 c 2
 195.6 445 l 2
 211.5 520 224 588 228.1 645 c 1
 230.7 648 l 1
 230.7 648 247.1 645 281.1 645 c 0
EndSplineSet
LCarets2: 1 0 
Colour: ff00ff
EndChar

StartChar: uni1E0D
Encoding: 7693 7693 142
Width: 514
VWidth: 999
Flags: HW
HStem: -166 102<227.339 295.773> -10 57<200.202 299.699> -3 21G<373.362 383.206 449.074 458> 394 45<268.236 409.648> 678 20G<576.764 593.531>
VStem: 210.6 102<-149.736 -80.2637> 368 90<0 52.0688> 493.4 103.8<618.304 670>
LayerCount: 2
Fore
SplineSet
210.6 -115 m 0
 216.3 -88 245.4 -64 272.4 -64 c 0
 299.4 -64 318.3 -88 312.6 -115 c 0
 306.9 -142 277.7 -166 250.7 -166 c 0
 223.7 -166 204.9 -142 210.6 -115 c 0
384.2 109 m 1
 432.2 335 l 1
 416.3 373 396.7 394 349.7 394 c 0
 301.3 394 203.9 371 172 221 c 0
 145.4 96 200 47 254 47 c 0
 294.5 47 337.8 62.5 384.2 109 c 1
374.6 64 m 1
 328.7 17.5 263.9 -10 215.9 -10 c 0
 107.9 -10 57 80 83.1 203 c 0
 112 339 240.1 439 370.3 439 c 0
 390.3 439 429.4 430 449.6 417 c 1
 463.5 482 l 2
 479.7 558 492 627.3 493.4 670 c 1
 496.1 673 l 1
 537.2 676 563.2 688 590.4 698 c 1
 596.7 698 598.7 695 597.2 688 c 0
 576.5 626.7 563 574 547.3 500 c 2
 481.8 192 l 2
 465.9 117 459.1 43 458 0 c 1
 455.4 -3 l 1
 442.8 -1 424.1 0 411.5 0 c 0
 397 0 390.1 -1.3 376.4 -3 c 0
 370.4 -3 367.6 -2 368 0 c 2
 376.6 64 l 1
 374.6 64 l 1
EndSplineSet
LCarets2: 1 0 
Colour: ff00ff
EndChar

StartChar: uni1E0E
Encoding: 7694 7694 143
Width: 698
VWidth: 999
Flags: HW
HStem: -105 44<126.388 403.893> -2 44<175.259 447.445> 604 41<316.628 507.08>
LayerCount: 2
Fore
SplineSet
377.7 -105 m 2
 132.7 -105 l 2
 124.7 -105 122.4 -97 123.9 -90 c 0
 126.5 -78 140 -61 152 -61 c 2
 397 -61 l 2
 406 -61 408.6 -68 407.1 -75 c 0
 404.5 -87 390.7 -105 377.7 -105 c 2
204.4 82 m 2
 197.6 50 206.9 42 304.9 42 c 0
 445.9 42 569.5 82 612.4 284 c 0
 645.1 438 615.4 604 399.4 604 c 0
 350.4 604 314.3 599 306.9 564 c 2
 204.4 82 l 2
281.1 645 m 0
 345.1 645 382.7 648 446.7 648 c 0
 638.7 648 760 494 720.5 308 c 0
 668.2 62 467.6 -2 326.6 -2 c 0
 223.6 -2 215 0 144 0 c 0
 109 0 91.4 -3 91.4 -3 c 1
 91 0 l 1
 110.5 54 127.6 125 143.5 200 c 2
 195.6 445 l 2
 211.5 520 224 588 228.1 645 c 1
 230.7 648 l 1
 230.7 648 247.1 645 281.1 645 c 0
EndSplineSet
LCarets2: 1 0 
Colour: ff00ff
EndChar

StartChar: uni1E0F
Encoding: 7695 7695 144
Width: 514
VWidth: 999
Flags: HW
HStem: -109 44<127.538 405.042> -10 57<200.202 299.699> -3 21G<373.362 383.206 449.074 458> 394 45<268.236 409.648> 678 20G<576.764 593.531>
VStem: 368 90<0 52.0688> 493.4 103.8<618.304 670>
LayerCount: 2
Fore
SplineSet
378.8 -109 m 2
 133.8 -109 l 2
 125.8 -109 123.5 -101 125 -94 c 0
 127.6 -82 141.2 -65 153.2 -65 c 2
 398.2 -65 l 2
 407.2 -65 409.7 -72 408.2 -79 c 0
 405.6 -91 391.8 -109 378.8 -109 c 2
384.2 109 m 1
 432.2 335 l 1
 416.3 373 396.7 394 349.7 394 c 0
 301.3 394 203.9 371 172 221 c 0
 145.4 96 200 47 254 47 c 0
 294.5 47 337.8 62.5 384.2 109 c 1
374.6 64 m 1
 328.7 17.5 263.9 -10 215.9 -10 c 0
 107.9 -10 57 80 83.1 203 c 0
 112 339 240.1 439 370.3 439 c 0
 390.3 439 429.4 430 449.6 417 c 1
 463.5 482 l 2
 479.7 558 492 627.3 493.4 670 c 1
 496.1 673 l 1
 537.2 676 563.2 688 590.4 698 c 1
 596.7 698 598.7 695 597.2 688 c 0
 576.5 626.7 563 574 547.3 500 c 2
 481.8 192 l 2
 465.9 117 459.1 43 458 0 c 1
 455.4 -3 l 1
 442.8 -1 424.1 0 411.5 0 c 0
 397 0 390.1 -1.3 376.4 -3 c 0
 370.4 -3 367.6 -2 368 0 c 2
 376.6 64 l 1
 374.6 64 l 1
EndSplineSet
LCarets2: 1 0 
Colour: ff00ff
EndChar

StartChar: uni1E10
Encoding: 7696 7696 145
Width: 682
VWidth: 999
Flags: HW
HStem: -226 24<271.315 301.976> -123 82<276.324 341.34> -2 34<15.9238 91.0861 203.681 417.647> 613 34<15.9238 91.0861 206.921 373.9>
VStem: 106 85<43.9064 600.097> 343 39<-177.408 -99.958> 562 96<179.249 422.825>
LayerCount: 2
Fore
SplineSet
204.4 82 m 2
 197.6 50 200.9 42 298.9 42 c 0
 439.9 42 553.5 82 596.4 284 c 0
 629.1 438 609.4 604 393.4 604 c 0
 344.4 604 314.3 599 306.9 564 c 2
 204.4 82 l 2
281.1 645 m 0
 343.4 645 378.4 648 440.7 648 c 0
 632.7 648 744 494 704.5 308 c 0
 652.2 62 461.6 -2 320.6 -2 c 0
 217.6 -2 212.9 0 144 0 c 0
 109 0 91.4 -3 91.4 -3 c 1
 91 0 l 1
 110.5 54 127.6 125 143.5 200 c 2
 195.6 445 l 2
 211.5 520 224 588 228.1 645 c 1
 230.7 648 l 1
 230.7 648 247.1 645 281.1 645 c 0
311.3 -41 m 0
 349.3 -41 366.1 -75 355 -127 c 0
 342.2 -187 286.9 -217 228 -226 c 1
 223.3 -220 223.2 -211 225.1 -202 c 1
 276.4 -191 307.5 -167 311.3 -149 c 0
 315.6 -129 303.5 -125 285.9 -123 c 1
 269.5 -120 246.4 -111 252.1 -84 c 0
 257.2 -60 282.3 -41 311.3 -41 c 0
EndSplineSet
LCarets2: 1 0 
Colour: ff00ff
EndChar

StartChar: uni1E11
Encoding: 7697 7697 146
Width: 494
VWidth: 999
Flags: HW
HStem: -10 47<182.748 279.881> 30 27<444.892 500.639> 404 35<187.076 307.036> 641 30<277.065 335.38> 678 20<402.5 419.5>
VStem: 39 86<108.084 310.695> 345 79<80.6055 373.206 422.001 635.885>
LayerCount: 2
Fore
SplineSet
365.7 115.3 m 1
 412.2 335 l 1
 396.3 373 376.7 396 329.7 396 c 0
 299.2 396 256.6 386.1 221.4 341 c 0
 194.8 307 162.9 225.4 162.9 152.3 c 0
 162.9 76.6 199.9 44 251 44 c 0
 283 44 319.3 68.8 365.7 115.3 c 1
354.6 64 m 1
 308.7 17.5 261.9 -10 213.9 -10 c 0
 133.6 -10 73.4 55.2 73.4 150.5 c 0
 73.4 250.4 123.5 328 182.9 377.2 c 0
 229.8 416 287.9 439 350.3 439 c 0
 370.3 439 409.4 430 429.6 417 c 1
 443.5 482 l 2
 459.7 558 474 633.3 475.4 676 c 1
 478.1 679 l 1
 519.2 682 540.2 688 567.4 698 c 1
 573.7 698 575.7 695 574.2 688 c 0
 554.6 626 543 574 527.3 500 c 2
 461.8 192 l 2
 444.3 109.4 437.2 57.8 437.2 24.8 c 0
 437.2 15 437.9 6.9 439 0 c 1
 436.4 -3 l 1
 423.8 -1 405.1 0 392.5 0 c 0
 378 0 373.1 -1.3 359.4 -3 c 0
 355.4 -3 352.6 -2 353 0 c 2
 353 0 354.3 38.3 357.6 64 c 1
 354.6 64 l 1
221.3 -41 m 0
 259.3 -41 276.1 -75 265 -127 c 0
 252.2 -187 196.9 -217 138 -226 c 1
 133.3 -220 133.2 -211 135.1 -202 c 1
 186.4 -191 217.5 -167 221.3 -149 c 0
 225.6 -129 213.5 -125 195.9 -123 c 1
 179.5 -120 156.4 -111 162.1 -84 c 0
 167.2 -60 192.3 -41 221.3 -41 c 0
EndSplineSet
LCarets2: 1 0 
Colour: ff00ff
EndChar

StartChar: uni1E12
Encoding: 7698 7698 147
Width: 698
VWidth: 999
Flags: HW
HStem: -2 44<175.259 447.445> 604 41<316.628 507.08>
LayerCount: 2
Fore
SplineSet
279.9 -57 m 1
 298.9 -104 326 -146 353.5 -186 c 1
 329.5 -200 l 1
 296.7 -171 268.9 -146 242.6 -110 c 1
 197.5 -148 160.2 -173 116.5 -200 c 1
 99.5 -186 l 1
 144 -146 191.1 -103 229.9 -57 c 1
 279.9 -57 l 1
204.4 82 m 2
 197.6 50 206.9 42 304.9 42 c 0
 445.9 42 569.5 82 612.4 284 c 0
 645.1 438 615.4 604 399.4 604 c 0
 350.4 604 314.3 599 306.9 564 c 2
 204.4 82 l 2
281.1 645 m 0
 345.1 645 382.7 648 446.7 648 c 0
 638.7 648 760 494 720.5 308 c 0
 668.2 62 467.6 -2 326.6 -2 c 0
 223.6 -2 215 0 144 0 c 0
 109 0 91.4 -3 91.4 -3 c 1
 91 0 l 1
 110.5 54 127.6 125 143.5 200 c 2
 195.6 445 l 2
 211.5 520 224 588 228.1 645 c 1
 230.7 648 l 1
 230.7 648 247.1 645 281.1 645 c 0
EndSplineSet
LCarets2: 1 0 
Colour: ff00ff
EndChar

StartChar: uni1E13
Encoding: 7699 7699 148
Width: 514
VWidth: 999
Flags: HW
HStem: -10 57<200.202 299.699> -3 21G<373.362 383.206 449.074 458> 394 45<268.236 409.648> 678 20G<576.764 593.531>
VStem: 368 90<0 52.0688> 493.4 103.8<618.304 670>
LayerCount: 2
Fore
SplineSet
279.9 -57 m 1
 298.9 -104 326 -146 353.5 -186 c 1
 329.5 -200 l 1
 296.7 -171 268.9 -146 242.6 -110 c 1
 197.5 -148 160.2 -173 116.5 -200 c 1
 99.5 -186 l 1
 144 -146 191.1 -103 229.9 -57 c 1
 279.9 -57 l 1
384.2 109 m 1
 432.2 335 l 1
 416.3 373 396.7 394 349.7 394 c 0
 301.3 394 203.9 371 172 221 c 0
 145.4 96 200 47 254 47 c 0
 294.5 47 337.8 62.5 384.2 109 c 1
374.6 64 m 1
 328.7 17.5 263.9 -10 215.9 -10 c 0
 107.9 -10 57 80 83.1 203 c 0
 112 339 240.1 439 370.3 439 c 0
 390.3 439 429.4 430 449.6 417 c 1
 463.5 482 l 2
 479.7 558 492 627.3 493.4 670 c 1
 496.1 673 l 1
 537.2 676 563.2 688 590.4 698 c 1
 596.7 698 598.7 695 597.2 688 c 0
 576.5 626.7 563 574 547.3 500 c 2
 481.8 192 l 2
 465.9 117 459.1 43 458 0 c 1
 455.4 -3 l 1
 442.8 -1 424.1 0 411.5 0 c 0
 397 0 390.1 -1.3 376.4 -3 c 0
 370.4 -3 367.6 -2 368 0 c 2
 376.6 64 l 1
 374.6 64 l 1
EndSplineSet
LCarets2: 1 0 
Colour: ff00ff
EndChar

StartChar: uni1E14
Encoding: 7700 7700 149
Width: 522
VWidth: 999
Flags: HW
HStem: -3 69<412.986 474> 0 54<201.479 418.191> 321 42<259.158 458.026> 596 49<308.799 532.289> 733 44<324.596 602.892>
LayerCount: 2
Fore
SplineSet
575.8 733 m 2
 331.8 733 l 2
 322.8 733 320.5 741 322 748 c 0
 324.6 760 339.2 777 350.2 777 c 2
 595.2 777 l 2
 605.2 777 607.5 769 606.2 763 c 0
 603.6 751 588.8 733 575.8 733 c 2
224.5 200 m 2
 220.9 183 199.6 78 201.5 54 c 1
 335.5 54 486 66 486 66 c 1
 487.2 62 l 1
 484.5 54 480.3 39 478.2 29 c 0
 476.1 19 476 14 474 0 c 1
 471.4 -3 l 1
 455.8 -1 433 0 412 0 c 2
 139 0 l 2
 104 0 86.4 -3 86.4 -3 c 1
 86 0 l 1
 105.5 54 122.6 125 138.5 200 c 2
 190.6 445 l 2
 206.5 520 219 588 223.1 645 c 1
 225.7 648 l 1
 225.7 648 242.1 645 276.1 645 c 2
 539.1 645 l 2
 560.1 645 583.3 646 599.7 648 c 1
 601.1 645 l 1
 597.1 631 594.2 622 592.5 614 c 0
 590.6 605 589.7 596 589 588 c 1
 586.1 584 l 1
 586.1 584 450.7 596 316.7 596 c 1
 304.6 572 280.2 462 276.6 445 c 2
 259.2 363 l 1
 377.2 363 424.2 368 484.3 373 c 1
 486.6 370 l 1
 482.7 361 479.6 351 477.7 342 c 0
 475.8 333 474.6 323 474.7 314 c 1
 471.1 311 l 1
 403.6 318 298.2 321 250.2 321 c 1
 224.5 200 l 2
197.6 831.1 m 1
 275 757.2 l 2
 282 750.2 283.9 744.9 282.6 738.7 c 0
 281.1 731.7 274.5 725.5 268.3 725.5 c 0
 262.1 725.5 251.9 728.1 237.4 736 c 2
 130.6 791.5 l 1
 148 807.1 169.1 820.9 197.6 831.1 c 1
EndSplineSet
LCarets2: 1 0 
Colour: ff00ff
EndChar

StartChar: uni1E15
Encoding: 7701 7701 150
Width: 442
VWidth: 999
Flags: HW
HStem: -10 59<212.538 337.62> 243 44<186.004 385.311> 399 40<256.349 371.904> 538 44<210.148 488.444>
LayerCount: 2
Fore
SplineSet
374.8 765.2 m 1
 406.7 651.8 l 2
 408.8 642.8 408.3 636.5 407 630.2 c 0
 406 625.7 399.2 620.3 392.8 620.3 c 0
 388 620.3 383.4 624.8 373.5 638.3 c 2
 303.1 736.4 l 1
 306.8 746.3 l 1
 314.3 751.7 336 767 363.2 767 c 0
 367.2 767 371.8 766.1 374.8 765.2 c 1
461.4 538 m 2
 217.4 538 l 2
 208.4 538 206 546 207.5 553 c 0
 210.1 565 224.7 582 235.7 582 c 2
 480.7 582 l 2
 490.7 582 493 574 491.7 568 c 0
 489.2 556 474.4 538 461.4 538 c 2
186 287 m 1
 367 287 l 2
 377 287 382.1 292 384 301 c 0
 399.9 376 359.8 399 323.8 399 c 0
 300.8 399 225.1 391 186 287 c 1
418.3 105 m 1
 432.8 79 l 1
 383.7 27 314.9 -10 242.9 -10 c 0
 105.9 -10 51.9 84 76.3 199 c 0
 108.6 351 237.3 439 332.3 439 c 0
 464.3 439 482.2 344 464.3 260 c 0
 462 249 453.7 243 442.7 243 c 2
 173.7 243 l 1
 142 94 219.4 49 275.4 49 c 0
 330.4 49 375.2 67 418.3 105 c 1
EndSplineSet
LCarets2: 1 0 
Colour: ff00ff
EndChar

StartChar: uni1E16
Encoding: 7702 7702 151
Width: 522
VWidth: 999
Flags: HW
HStem: -3 69<412.986 474> 0 54<201.479 418.191> 321 42<259.158 458.026> 596 49<308.799 532.289> 733 44<267.596 545.892>
LayerCount: 2
Fore
SplineSet
518.8 733 m 2
 274.8 733 l 2
 265.8 733 263.5 741 265 748 c 0
 267.6 760 282.2 777 293.2 777 c 2
 538.2 777 l 2
 548.2 777 550.5 769 549.2 763 c 0
 546.6 751 531.8 733 518.8 733 c 2
224.5 200 m 2
 220.9 183 199.6 78 201.5 54 c 1
 335.5 54 486 66 486 66 c 1
 487.2 62 l 1
 484.5 54 480.3 39 478.2 29 c 0
 476.1 19 476 14 474 0 c 1
 471.4 -3 l 1
 455.8 -1 433 0 412 0 c 2
 139 0 l 2
 104 0 86.4 -3 86.4 -3 c 1
 86 0 l 1
 105.5 54 122.6 125 138.5 200 c 2
 190.6 445 l 2
 206.5 520 219 588 223.1 645 c 1
 225.7 648 l 1
 225.7 648 242.1 645 276.1 645 c 2
 539.1 645 l 2
 560.1 645 583.3 646 599.7 648 c 1
 601.1 645 l 1
 597.1 631 594.2 622 592.5 614 c 0
 590.6 605 589.7 596 589 588 c 1
 586.1 584 l 1
 586.1 584 450.7 596 316.7 596 c 1
 304.6 572 280.2 462 276.6 445 c 2
 259.2 363 l 1
 377.2 363 424.2 368 484.3 373 c 1
 486.6 370 l 1
 482.7 361 479.6 351 477.7 342 c 0
 475.8 333 474.6 323 474.7 314 c 1
 471.1 311 l 1
 403.6 318 298.2 321 250.2 321 c 1
 224.5 200 l 2
711.9 831.8 m 1
 731.5 820.1 744.1 804.9 749.9 786.1 c 1
 628.2 735 l 2
 610.3 727.1 600.5 724.5 593.6 724.5 c 0
 586.7 724.5 583.4 730.7 584.9 737.7 c 0
 586.2 743.9 588.7 748.3 600.4 756.2 c 2
 711.9 831.8 l 1
EndSplineSet
LCarets2: 1 0 
Colour: ff00ff
EndChar

StartChar: uni1E17
Encoding: 7703 7703 152
Width: 442
VWidth: 999
Flags: HW
HStem: -10 59<212.538 337.62> 243 44<186.004 385.311> 399 40<256.349 371.904> 538 44<210.148 488.444>
LayerCount: 2
Fore
SplineSet
425.8 759.2 m 1
 428.4 760.1 433.4 761 437.4 761 c 0
 442.5 761 462.8 760.1 477 740.3 c 1
 477.3 730.4 l 1
 364.4 632.3 l 2
 349.5 618.8 342.4 615.2 336.8 615.2 c 0
 331.2 615.2 326.8 620.6 328.1 626.9 c 0
 330.2 637 333.6 640.6 342.6 652.1 c 2
 425.8 759.2 l 1
461.4 538 m 2
 217.4 538 l 2
 208.4 538 206 546 207.5 553 c 0
 210.1 565 224.7 582 235.7 582 c 2
 480.7 582 l 2
 490.7 582 493 574 491.7 568 c 0
 489.2 556 474.4 538 461.4 538 c 2
186 287 m 1
 367 287 l 2
 377 287 382.1 292 384 301 c 0
 399.9 376 359.8 399 323.8 399 c 0
 300.8 399 225.1 391 186 287 c 1
418.3 105 m 1
 432.8 79 l 1
 383.7 27 314.9 -10 242.9 -10 c 0
 105.9 -10 51.9 84 76.3 199 c 0
 108.6 351 237.3 439 332.3 439 c 0
 464.3 439 482.2 344 464.3 260 c 0
 462 249 453.7 243 442.7 243 c 2
 173.7 243 l 1
 142 94 219.4 49 275.4 49 c 0
 330.4 49 375.2 67 418.3 105 c 1
EndSplineSet
LCarets2: 1 0 
Colour: ff00ff
EndChar

StartChar: uni1E18
Encoding: 7704 7704 153
Width: 522
VWidth: 999
Flags: HW
HStem: -3 69<412.986 474> 0 54<201.479 418.191> 321 42<259.158 458.026> 596 49<308.799 532.289>
LayerCount: 2
Fore
SplineSet
287.9 -57 m 1
 306.9 -104 334 -146 361.5 -186 c 1
 337.5 -200 l 1
 304.7 -171 276.9 -146 250.6 -110 c 1
 205.5 -148 168.2 -173 124.5 -200 c 1
 107.5 -186 l 1
 152 -146 199.1 -103 237.9 -57 c 1
 287.9 -57 l 1
224.5 200 m 2
 220.9 183 199.6 78 201.5 54 c 1
 335.5 54 486 66 486 66 c 1
 487.2 62 l 1
 484.5 54 480.3 39 478.2 29 c 0
 476.1 19 476 14 474 0 c 1
 471.4 -3 l 1
 455.8 -1 433 0 412 0 c 2
 139 0 l 2
 104 0 86.4 -3 86.4 -3 c 1
 86 0 l 1
 105.5 54 122.6 125 138.5 200 c 2
 190.6 445 l 2
 206.5 520 219 588 223.1 645 c 1
 225.7 648 l 1
 225.7 648 242.1 645 276.1 645 c 2
 539.1 645 l 2
 560.1 645 583.3 646 599.7 648 c 1
 601.1 645 l 1
 597.1 631 594.2 622 592.5 614 c 0
 590.6 605 589.7 596 589 588 c 1
 586.1 584 l 1
 586.1 584 450.7 596 316.7 596 c 1
 304.6 572 280.2 462 276.6 445 c 2
 259.2 363 l 1
 377.2 363 424.2 368 484.3 373 c 1
 486.6 370 l 1
 482.7 361 479.6 351 477.7 342 c 0
 475.8 333 474.6 323 474.7 314 c 1
 471.1 311 l 1
 403.6 318 298.2 321 250.2 321 c 1
 224.5 200 l 2
EndSplineSet
LCarets2: 1 0 
Colour: ff00ff
EndChar

StartChar: uni1E19
Encoding: 7705 7705 154
Width: 442
VWidth: 999
Flags: HW
HStem: -10 59<212.538 337.62> 243 44<186.004 385.311> 399 40<256.349 371.904>
LayerCount: 2
Fore
SplineSet
234.9 -57 m 1
 253.9 -104 281 -146 308.5 -186 c 1
 284.5 -200 l 1
 251.7 -171 223.9 -146 197.6 -110 c 1
 152.5 -148 115.2 -173 71.5 -200 c 1
 54.5 -186 l 1
 99 -146 146.1 -103 184.9 -57 c 1
 234.9 -57 l 1
186 287 m 1
 367 287 l 2
 377 287 382.1 292 384 301 c 0
 399.9 376 359.8 399 323.8 399 c 0
 300.8 399 225.1 391 186 287 c 1
418.3 105 m 1
 432.8 79 l 1
 383.7 27 314.9 -10 242.9 -10 c 0
 105.9 -10 51.9 84 76.3 199 c 0
 108.6 351 237.3 439 332.3 439 c 0
 464.3 439 482.2 344 464.3 260 c 0
 462 249 453.7 243 442.7 243 c 2
 173.7 243 l 1
 142 94 219.4 49 275.4 49 c 0
 330.4 49 375.2 67 418.3 105 c 1
EndSplineSet
LCarets2: 1 0 
Colour: ff00ff
EndChar

StartChar: uni1E1A
Encoding: 7706 7706 155
Width: 522
VWidth: 999
Flags: HW
HStem: -164 44<263.486 347.731> -116 46<142.59 229.257> -3 69<412.986 474> 0 54<201.479 418.191> 321 42<259.158 458.026> 596 49<308.799 532.289>
LayerCount: 2
Fore
SplineSet
310.5 -120 m 0
 332.5 -120 348.6 -110 371.5 -68 c 1
 394.3 -74 l 1
 369.5 -134 334.1 -164 288.1 -164 c 0
 266.1 -164 247.7 -152 229.7 -138 c 0
 214 -127 197.3 -116 180.3 -116 c 0
 154.3 -116 138.1 -131 121.1 -164 c 1
 98.2 -159 l 1
 124.7 -100 154.1 -70 197.1 -70 c 0
 227.1 -70 246.2 -84 263.2 -98 c 0
 276.6 -110 291.5 -120 310.5 -120 c 0
224.5 200 m 2
 220.9 183 199.6 78 201.5 54 c 1
 335.5 54 486 66 486 66 c 1
 487.2 62 l 1
 484.5 54 480.3 39 478.2 29 c 0
 476.1 19 476 14 474 0 c 1
 471.4 -3 l 1
 455.8 -1 433 0 412 0 c 2
 139 0 l 2
 104 0 86.4 -3 86.4 -3 c 1
 86 0 l 1
 105.5 54 122.6 125 138.5 200 c 2
 190.6 445 l 2
 206.5 520 219 588 223.1 645 c 1
 225.7 648 l 1
 225.7 648 242.1 645 276.1 645 c 2
 539.1 645 l 2
 560.1 645 583.3 646 599.7 648 c 1
 601.1 645 l 1
 597.1 631 594.2 622 592.5 614 c 0
 590.6 605 589.7 596 589 588 c 1
 586.1 584 l 1
 586.1 584 450.7 596 316.7 596 c 1
 304.6 572 280.2 462 276.6 445 c 2
 259.2 363 l 1
 377.2 363 424.2 368 484.3 373 c 1
 486.6 370 l 1
 482.7 361 479.6 351 477.7 342 c 0
 475.8 333 474.6 323 474.7 314 c 1
 471.1 311 l 1
 403.6 318 298.2 321 250.2 321 c 1
 224.5 200 l 2
EndSplineSet
LCarets2: 1 0 
Colour: ff00ff
EndChar

StartChar: uni1E1B
Encoding: 7707 7707 156
Width: 442
VWidth: 999
Flags: HW
HStem: -162 44<215.911 300.155> -114 46<95.0156 181.682> -10 59<212.538 337.62> 243 44<186.004 385.311> 399 40<256.349 371.904>
LayerCount: 2
Fore
SplineSet
262.9 -118 m 0
 284.9 -118 301.1 -108 324 -66 c 1
 346.7 -72 l 1
 321.9 -132 286.6 -162 240.6 -162 c 0
 218.6 -162 200.1 -150 182.1 -136 c 0
 166.4 -125 149.8 -114 132.8 -114 c 0
 106.8 -114 90.6 -129 73.6 -162 c 1
 50.6 -157 l 1
 77.1 -98 106.5 -68 149.5 -68 c 0
 179.5 -68 198.6 -82 215.6 -96 c 0
 229 -108 243.9 -118 262.9 -118 c 0
186 287 m 1
 367 287 l 2
 377 287 382.1 292 384 301 c 0
 399.9 376 359.8 399 323.8 399 c 0
 300.8 399 225.1 391 186 287 c 1
418.3 105 m 1
 432.8 79 l 1
 383.7 27 314.9 -10 242.9 -10 c 0
 105.9 -10 51.9 84 76.3 199 c 0
 108.6 351 237.3 439 332.3 439 c 0
 464.3 439 482.2 344 464.3 260 c 0
 462 249 453.7 243 442.7 243 c 2
 173.7 243 l 1
 142 94 219.4 49 275.4 49 c 0
 330.4 49 375.2 67 418.3 105 c 1
EndSplineSet
LCarets2: 1 0 
Colour: ff00ff
EndChar

StartChar: uni1E1C
Encoding: 7708 7708 157
Width: 522
VWidth: 999
Flags: HW
HStem: -200 29<161.548 264.616> -20 20G<251.416 298> -3 69<412.986 474> 0 54<201.479 418.191> 321 42<259.158 458.026> 596 49<308.799 532.289> 692 52<383.673 529.54>
VStem: 335.1 28<771.38 805>
LayerCount: 2
Fore
SplineSet
607.1 805 m 1
 586 734 513.1 692 447.1 692 c 0
 374.1 692 325.2 735 335.1 805 c 1
 363.1 805 l 1
 362.8 766 405.1 744 458.1 744 c 0
 507.1 744 563.8 766 579.1 805 c 1
 607.1 805 l 1
254.6 -96 m 0
 235.6 -96 225.4 -97 208.3 -102 c 1
 203.6 -96 l 1
 264 0 l 1
 139 0 l 2
 104 0 86.4 -3 86.4 -3 c 1
 86 0 l 1
 105.5 54 122.6 125 138.5 200 c 2
 190.6 445 l 2
 206.5 520 219 588 223.1 645 c 1
 225.7 648 l 1
 225.7 648 242.1 645 276.1 645 c 2
 539.1 645 l 2
 560.1 645 583.3 646 599.7 648 c 1
 601.1 645 l 1
 597.1 631 594.2 622 592.5 614 c 0
 590.6 605 589.7 596 589 588 c 1
 586.1 584 l 1
 586.1 584 450.7 596 316.7 596 c 1
 304.6 572 280.2 462 276.6 445 c 2
 259.2 363 l 1
 377.2 363 424.2 368 484.3 373 c 1
 486.6 370 l 1
 482.7 361 479.6 351 477.7 342 c 0
 475.8 333 474.6 323 474.7 314 c 1
 471.1 311 l 1
 403.6 318 298.2 321 250.2 321 c 1
 224.5 200 l 2
 220.9 183 199.6 78 201.5 54 c 1
 335.5 54 486 66 486 66 c 1
 487.2 62 l 1
 484.5 54 480.3 39 478.2 29 c 0
 476.1 19 476 14 474 0 c 1
 471.4 -3 l 1
 455.8 -1 433 0 412 0 c 2
 298 0 l 1
 258.8 -67 l 1
 267.2 -65 276.4 -64 285.4 -64 c 0
 325.4 -64 351.3 -88 343.2 -126 c 0
 334.1 -169 281.5 -200 220.5 -200 c 0
 188.5 -200 172.8 -194 150.1 -183 c 1
 152.6 -171 157.1 -164 165.6 -157 c 1
 190.5 -167 200.7 -171 220.7 -171 c 0
 250.7 -171 274.7 -157 280.2 -131 c 0
 284.7 -110 277.6 -96 254.6 -96 c 0
EndSplineSet
LCarets2: 1 0 
Colour: ff00ff
EndChar

StartChar: uni1E1D
Encoding: 7709 7709 158
Width: 442
VWidth: 999
Flags: HW
HStem: -205 29<114.485 217.553> -10 5<216.938 249.614> 243 44<186.004 385.311> 399 40<256.349 371.904> 501 57<277.799 398.592> 628 20G<220.186 249.603 454.572 490.186>
VStem: 220.2 29.6<596.232 636>
LayerCount: 2
Fore
SplineSet
249.8 648 m 1
 249.5 595 284.6 558 338.6 558 c 0
 390.6 558 443.4 590 465.7 648 c 1
 490.2 636 l 1
 459.9 550 385.5 501 326.5 501 c 0
 256.5 501 216.1 551 220.2 636 c 1
 249.8 648 l 1
207.5 -101 m 0
 188.5 -101 178.4 -102 161.3 -107 c 1
 156.5 -101 l 1
 214.7 -8.6 l 1
 98.5 3.6 53.6 92.2 76.3 199 c 0
 108.6 351 237.3 439 332.3 439 c 0
 464.3 439 482.2 344 464.3 260 c 0
 462 249 453.7 243 442.7 243 c 2
 173.7 243 l 1
 142 94 219.4 49 275.4 49 c 0
 330.4 49 375.2 67 418.3 105 c 1
 432.8 79 l 1
 384.9 28.2 318.1 -8.2 248 -9.9 c 1
 211.7 -72 l 1
 220.1 -70 229.3 -69 238.3 -69 c 0
 278.3 -69 304.3 -93 296.2 -131 c 0
 287.1 -174 234.4 -205 173.4 -205 c 0
 141.4 -205 125.7 -199 103 -188 c 1
 105.6 -176 110.1 -169 118.6 -162 c 1
 143.5 -172 153.6 -176 173.6 -176 c 0
 203.6 -176 227.6 -162 233.1 -136 c 0
 237.6 -115 230.5 -101 207.5 -101 c 0
186 287 m 1
 367 287 l 2
 377 287 382.1 292 384 301 c 0
 399.9 376 359.8 399 323.8 399 c 0
 300.8 399 225.1 391 186 287 c 1
EndSplineSet
LCarets2: 1 0 
Colour: ff00ff
EndChar

StartChar: uni1E1E
Encoding: 7710 7710 159
Width: 477
VWidth: 999
Flags: HW
HStem: -3 21G<88 141 141 194> 321 42<261.158 460.026> 596 49<310.799 534.289> 701 102<410.625 479.06>
VStem: 393.8 102<717.264 786.736>
LayerCount: 2
Fore
SplineSet
393.8 752 m 0
 399.5 779 428.7 803 455.7 803 c 0
 482.7 803 501.5 779 495.8 752 c 0
 490.1 725 461 701 434 701 c 0
 407 701 388.1 725 393.8 752 c 0
538.1 645 m 2
 562.1 645 585.3 646 601.7 648 c 1
 603.1 645 l 1
 599.1 631 596.2 622 594.5 614 c 0
 592.6 605 591.7 596 591 588 c 1
 588.1 584 l 1
 588.1 584 452.7 596 318.7 596 c 1
 306.6 572 282.2 462 278.6 445 c 2
 261.2 363 l 1
 379.2 363 426.2 368 486.3 373 c 1
 488.6 370 l 1
 484.7 361 481.6 351 479.7 342 c 0
 477.8 333 476.6 323 476.7 314 c 1
 473.1 311 l 1
 405.6 318 300.2 321 252.2 321 c 1
 226.5 200 l 2
 210.6 125 198.1 57 194 0 c 1
 191.4 -3 l 1
 191.4 -3 175 0 141 0 c 0
 106 0 88.4 -3 88.4 -3 c 1
 88 0 l 1
 107.5 54 124.6 125 140.5 200 c 2
 192.6 445 l 2
 208.5 520 221 588 225.1 645 c 1
 227.7 648 l 1
 227.7 648 244.1 645 278.1 645 c 2
 538.1 645 l 2
EndSplineSet
LCarets2: 1 0 
Colour: ff00ff
EndChar

StartChar: uni1E1F
Encoding: 7711 7711 160
Width: 308
VWidth: 999
Flags: HW
HStem: -3 21G<83 133 133 183> 385 44<108.649 174.834 264.187 373.499> 638 60<355.361 463.398> 733 102<386.427 454.862>
VStem: 369.6 102<749.264 818.736>
LayerCount: 2
Fore
SplineSet
369.6 784 m 0
 375.3 811 404.5 835 431.5 835 c 0
 458.5 835 477.3 811 471.6 784 c 0
 465.9 757 436.8 733 409.8 733 c 0
 382.8 733 363.9 757 369.6 784 c 0
280.2 622 m 0
 326.6 671 387.4 698 450.4 698 c 0
 469.4 698 486.6 694 493.5 689 c 1
 493.8 686 l 1
 478.8 667 461.1 631 448.4 604 c 1
 437.2 603 l 1
 430.5 623 415.6 638 386.6 638 c 0
 329.3 638 293.4 590.2 281.7 535 c 0
 277.9 517 274.2 476 266.3 439 c 2
 264.2 429 l 1
 372.2 429 l 2
 377.2 429 379.8 427 378.9 423 c 2
 373.6 398 l 2
 371.7 389 356.8 385 347.8 385 c 2
 254.8 385 l 1
 215.5 200 l 2
 199.5 124.8 186.6 57 183 0 c 1
 180.4 -3 l 1
 180.4 -3 167.3 0 133 0 c 0
 98 0 83.4 -3 83.4 -3 c 1
 83 0 l 1
 102.9 53.5 119.7 125.5 135.5 200 c 2
 174.8 385 l 1
 108.8 385 l 2
 104.8 385 104 386 105.1 391 c 2
 108.9 409 l 2
 110.6 417 118.2 429 136.2 429 c 2
 184.2 429 l 1
 192.7 469 l 2
 209.3 547 233.8 573 280.2 622 c 0
EndSplineSet
LCarets2: 1 0 
Colour: ff00ff
EndChar

StartChar: uni1E20
Encoding: 7712 7712 161
Width: 699
VWidth: 999
Flags: HW
HStem: -10 46<309.301 522.365> 611 47<398.219 603.897> 733 44<387.596 665.892>
LayerCount: 2
Fore
SplineSet
638.8 733 m 2
 394.8 733 l 2
 385.8 733 383.5 741 385 748 c 0
 387.6 760 402.2 777 413.2 777 c 2
 658.2 777 l 2
 668.2 777 670.5 769 669.2 763 c 0
 666.6 751 651.8 733 638.8 733 c 2
570.9 117 m 1
 585.4 192 597.2 250 601.3 307 c 1
 603.9 310 l 1
 603.9 310 620.3 307 654.3 307 c 0
 689.3 307 706.9 310 706.9 310 c 1
 707.3 307 l 1
 688 254 677 212 661.1 137 c 2
 659.8 131 l 2
 657.5 120 653.2 93.7 659.6 83 c 1
 659 80 l 1
 579.5 23.4 490.4 -10 373.9 -10 c 0
 172.9 -10 60.5 134 97.3 307 c 0
 144.1 527 348.9 658 520.9 658 c 0
 642.9 658 729.3 613 729.3 613 c 1
 730.7 610 l 1
 708.5 560.7 701.5 550 687.1 499 c 1
 676.9 498 l 1
 653.3 580 586.9 611 496.9 611 c 0
 361.9 611 241.7 502 204.5 327 c 0
 176.4 195 228.7 36 406.7 36 c 0
 460.7 36 520.9 42 561.7 74 c 1
 570.9 117 l 1
EndSplineSet
LCarets2: 1 0 
Colour: ff00ff
EndChar

StartChar: uni1E21
Encoding: 7713 7713 162
Width: 479
VWidth: 999
Flags: HW
HStem: -238 43<104.643 268.808> -15 62<144.479 280.677> -12 66<176.21 348.361> 136 44<212.762 321.705> 391 58<422.347 526.747> 395 44<243.264 354.815> 538 44<221.148 499.444>
LayerCount: 2
Fore
SplineSet
472.4 538 m 2
 228.4 538 l 2
 219.4 538 217 546 218.5 553 c 0
 221.1 565 235.7 582 246.7 582 c 2
 491.7 582 l 2
 501.7 582 504 574 502.7 568 c 0
 500.2 556 485.4 538 472.4 538 c 2
144.2 -13.7 m 1
 101.2 -42.9 82.9 -70.9 75.9 -104 c 0
 61.4 -172 136.6 -195 170.6 -195 c 0
 256.6 -195 359.7 -152 372.7 -91 c 0
 378.2 -65 374.7 -50.8 341.8 -29 c 0
 317.7 -13 280.4 -12 232.4 -12 c 0
 218.6 -12 192.3 -15 162.8 -15 c 0
 156.9 -15 150.4 -14.5 144.2 -13.7 c 1
445.4 289 m 0
 424.6 191 334.9 136 250.9 136 c 0
 213.9 136 190.4 143 170.4 157 c 1
 155.8 140 145.3 119 141 99 c 0
 131.9 56 160 47 188 47 c 0
 193 47 203.2 48 217.4 49 c 0
 241 52 264.5 54 281.5 54 c 0
 316.5 54 384.8 53 415.5 21 c 0
 438.4 -2.9 445.3 -36 438.5 -68 c 0
 415.5 -176 262.4 -238 133.4 -238 c 0
 60.4 -238 -12.9 -211 5.6 -124 c 0
 14.7 -81 51.6 -35 109.4 -3 c 1
 87.2 10 72 38 79.7 74 c 0
 86.9 108 111.1 151 143.2 175 c 1
 121.9 202 108.5 233 120 287 c 0
 139.6 379 231.3 439 316.3 439 c 0
 337.8 439 357.1 436 373.8 430.4 c 1
 449.2 434.3 486.7 444.9 535.4 449 c 1
 537.8 446 l 1
 533.9 437 531.2 429 529.3 420 c 0
 527.4 411 526.6 403 526.7 394 c 1
 523.1 391 l 1
 482.8 395.2 450.6 399 421 401.4 c 1
 446.1 375 455.4 336.1 445.4 289 c 0
367.3 279 m 0
 383.2 354 358 395 298 395 c 0
 246 395 210.8 347 201.2 302 c 0
 187.6 238 199.3 180 265.3 180 c 0
 300.3 180 352.2 208 367.3 279 c 0
EndSplineSet
LCarets2: 1 0 
Colour: ff00ff
EndChar

StartChar: uni1E22
Encoding: 7714 7714 163
Width: 700
VWidth: 999
Flags: HW
HStem: -3 21G<93 146 146 199 501 554 554 607> 628 20G<230.099 283.099 283.099 336.099 638.099 691.099 691.099 744.099> 694 102<478.137 546.572>
VStem: 461.4 102<710.264 779.736>
LayerCount: 2
Fore
SplineSet
605.6 445 m 2
 621.5 520 634 588 638.1 645 c 1
 640.7 648 l 1
 640.7 648 657.1 645 691.1 645 c 0
 726.1 645 743.7 648 743.7 648 c 1
 744.1 645 l 1
 724.8 592 707.5 520 691.6 445 c 2
 639.5 200 l 2
 623.6 125 611.1 57 607 0 c 1
 604.4 -3 l 1
 604.4 -3 588 0 554 0 c 0
 519 0 501.4 -3 501.4 -3 c 1
 501 0 l 1
 520.5 54 537.6 125 553.5 200 c 2
 579.2 321 l 1
 257.2 321 l 1
 231.5 200 l 2
 215.6 125 203.1 57 199 0 c 1
 196.4 -3 l 1
 196.4 -3 180 0 146 0 c 0
 111 0 93.4 -3 93.4 -3 c 1
 93 0 l 1
 112.5 54 129.6 125 145.5 200 c 2
 197.6 445 l 2
 213.5 520 226 588 230.1 645 c 1
 232.7 648 l 1
 232.7 648 249.1 645 283.1 645 c 0
 318.1 645 335.7 648 335.7 648 c 1
 336.1 645 l 1
 316.8 592 299.5 520 283.6 445 c 2
 266.2 363 l 1
 588.2 363 l 1
 605.6 445 l 2
461.4 745 m 0
 467.1 772 496.2 796 523.2 796 c 0
 550.2 796 569.1 772 563.4 745 c 0
 557.7 718 528.5 694 501.5 694 c 0
 474.5 694 455.7 718 461.4 745 c 0
EndSplineSet
LCarets2: 1 0 
Colour: ff00ff
EndChar

StartChar: uni1E23
Encoding: 7715 7715 164
Width: 520
VWidth: 999
Flags: HW
HStem: -3 21G<73 123 123 173 348 398 398 448> 382 57<329.145 457.312> 520 102<375.152 443.587> 678 20G<298.763 315.531>
VStem: 215.4 103.8<618.643 670> 358.4 102<536.264 605.736>
LayerCount: 2
Fore
SplineSet
358.4 571 m 0
 364.1 598 393.2 622 420.2 622 c 0
 447.2 622 466.1 598 460.4 571 c 0
 454.7 544 425.5 520 398.5 520 c 0
 371.5 520 352.7 544 358.4 571 c 0
396.3 180 m 2
 418.6 285 l 2
 435.8 366 420.2 382 364.2 382 c 0
 335.2 382 286.7 356 228.7 309 c 1
 201.3 180 l 2
 185.1 103.8 176.6 57 173 0 c 1
 170.4 -3 l 1
 170.4 -3 157.3 0 123 0 c 0
 88 0 73.4 -3 73.4 -3 c 1
 73 0 l 1
 92.9 53.5 105.5 105.5 121.3 180 c 2
 185.2 481 l 2
 201.4 557 214 627.3 215.4 670 c 1
 218.1 673 l 1
 259.2 676 285.2 688 312.4 698 c 1
 318.7 698 320.7 695 319.2 688 c 0
 298.5 626.7 285.2 575 269.5 501 c 2
 239.5 360 l 1
 320.7 427 382.3 439 421.3 439 c 0
 493.3 439 520.3 387 498.4 284 c 2
 476.3 180 l 2
 460.1 103.8 451.6 57 448 0 c 1
 445.4 -3 l 1
 445.4 -3 432.3 0 398 0 c 0
 363 0 348.4 -3 348.4 -3 c 1
 348 0 l 1
 367.9 53.5 380.5 105.5 396.3 180 c 2
EndSplineSet
LCarets2: 1 0 
Colour: ff00ff
EndChar

StartChar: uni1E24
Encoding: 7716 7716 165
Width: 700
VWidth: 999
Flags: HW
HStem: -166 102<295.339 363.773> -3 21G<93 146 146 199 501 554 554 607> 628 20G<230.099 283.099 283.099 336.099 638.099 691.099 691.099 744.099>
VStem: 278.6 102<-149.736 -80.2637>
LayerCount: 2
Fore
SplineSet
605.6 445 m 2
 621.5 520 634 588 638.1 645 c 1
 640.7 648 l 1
 640.7 648 657.1 645 691.1 645 c 0
 726.1 645 743.7 648 743.7 648 c 1
 744.1 645 l 1
 724.8 592 707.5 520 691.6 445 c 2
 639.5 200 l 2
 623.6 125 611.1 57 607 0 c 1
 604.4 -3 l 1
 604.4 -3 588 0 554 0 c 0
 519 0 501.4 -3 501.4 -3 c 1
 501 0 l 1
 520.5 54 537.6 125 553.5 200 c 2
 579.2 321 l 1
 257.2 321 l 1
 231.5 200 l 2
 215.6 125 203.1 57 199 0 c 1
 196.4 -3 l 1
 196.4 -3 180 0 146 0 c 0
 111 0 93.4 -3 93.4 -3 c 1
 93 0 l 1
 112.5 54 129.6 125 145.5 200 c 2
 197.6 445 l 2
 213.5 520 226 588 230.1 645 c 1
 232.7 648 l 1
 232.7 648 249.1 645 283.1 645 c 0
 318.1 645 335.7 648 335.7 648 c 1
 336.1 645 l 1
 316.8 592 299.5 520 283.6 445 c 2
 266.2 363 l 1
 588.2 363 l 1
 605.6 445 l 2
278.6 -115 m 0
 284.3 -88 313.4 -64 340.4 -64 c 0
 367.4 -64 386.3 -88 380.6 -115 c 0
 374.9 -142 345.7 -166 318.7 -166 c 0
 291.7 -166 272.9 -142 278.6 -115 c 0
EndSplineSet
LCarets2: 1 0 
Colour: ff00ff
EndChar

StartChar: uni1E25
Encoding: 7717 7717 166
Width: 520
VWidth: 999
Flags: HW
HStem: -167 102<201.126 269.561> -3 21G<73 123 123 173 348 398 398 448> 382 57<329.145 457.312> 678 20G<298.763 315.531>
VStem: 184.3 102<-150.736 -81.2637> 215.4 103.8<618.643 670>
LayerCount: 2
Fore
SplineSet
184.3 -116 m 0
 190 -89 219.2 -65 246.2 -65 c 0
 273.2 -65 292 -89 286.3 -116 c 0
 280.6 -143 251.5 -167 224.5 -167 c 0
 197.5 -167 178.6 -143 184.3 -116 c 0
396.3 180 m 2
 418.6 285 l 2
 435.8 366 420.2 382 364.2 382 c 0
 335.2 382 286.7 356 228.7 309 c 1
 201.3 180 l 2
 185.1 103.8 176.6 57 173 0 c 1
 170.4 -3 l 1
 170.4 -3 157.3 0 123 0 c 0
 88 0 73.4 -3 73.4 -3 c 1
 73 0 l 1
 92.9 53.5 105.5 105.5 121.3 180 c 2
 185.2 481 l 2
 201.4 557 214 627.3 215.4 670 c 1
 218.1 673 l 1
 259.2 676 285.2 688 312.4 698 c 1
 318.7 698 320.7 695 319.2 688 c 0
 298.5 626.7 285.2 575 269.5 501 c 2
 239.5 360 l 1
 320.7 427 382.3 439 421.3 439 c 0
 493.3 439 520.3 387 498.4 284 c 2
 476.3 180 l 2
 460.1 103.8 451.6 57 448 0 c 1
 445.4 -3 l 1
 445.4 -3 432.3 0 398 0 c 0
 363 0 348.4 -3 348.4 -3 c 1
 348 0 l 1
 367.9 53.5 380.5 105.5 396.3 180 c 2
EndSplineSet
LCarets2: 1 0 
Colour: ff00ff
EndChar

StartChar: uni1E26
Encoding: 7718 7718 167
Width: 700
VWidth: 999
Flags: HW
HStem: -3 21G<93 146 146 199 501 554 554 607> 628 20G<230.099 283.099 283.099 336.099 638.099 691.099 691.099 744.099> 702 96<380.406 448.429 569.406 637.429>
VStem: 366.4 96<716.25 783.75> 555.4 96<716.25 783.75>
LayerCount: 2
Fore
SplineSet
605.6 445 m 2
 621.5 520 634 588 638.1 645 c 1
 640.7 648 l 1
 640.7 648 657.1 645 691.1 645 c 0
 726.1 645 743.7 648 743.7 648 c 1
 744.1 645 l 1
 724.8 592 707.5 520 691.6 445 c 2
 639.5 200 l 2
 623.6 125 611.1 57 607 0 c 1
 604.4 -3 l 1
 604.4 -3 588 0 554 0 c 0
 519 0 501.4 -3 501.4 -3 c 1
 501 0 l 1
 520.5 54 537.6 125 553.5 200 c 2
 579.2 321 l 1
 257.2 321 l 1
 231.5 200 l 2
 215.6 125 203.1 57 199 0 c 1
 196.4 -3 l 1
 196.4 -3 180 0 146 0 c 0
 111 0 93.4 -3 93.4 -3 c 1
 93 0 l 1
 112.5 54 129.6 125 145.5 200 c 2
 197.6 445 l 2
 213.5 520 226 588 230.1 645 c 1
 232.7 648 l 1
 232.7 648 249.1 645 283.1 645 c 0
 318.1 645 335.7 648 335.7 648 c 1
 336.1 645 l 1
 316.8 592 299.5 520 283.6 445 c 2
 266.2 363 l 1
 588.2 363 l 1
 605.6 445 l 2
555.4 750 m 0
 560.9 776 587.6 798 613.6 798 c 0
 639.6 798 656.9 776 651.4 750 c 0
 645.9 724 619.2 702 593.2 702 c 0
 567.2 702 549.9 724 555.4 750 c 0
366.4 750 m 0
 371.9 776 398.6 798 424.6 798 c 0
 450.6 798 467.9 776 462.4 750 c 0
 456.9 724 430.2 702 404.2 702 c 0
 378.2 702 360.9 724 366.4 750 c 0
EndSplineSet
LCarets2: 1 0 
Colour: ff00ff
EndChar

StartChar: uni1E27
Encoding: 7719 7719 168
Width: 520
VWidth: 999
Flags: HW
HStem: -3 21G<73 123 123 173 348 398 398 448> 382 57<329.145 457.312> 527 91<341.867 407.892 478.867 545.855> 678 20G<298.763 315.531>
VStem: 215.4 103.8<618.643 670> 329.6 90<538.639 605.908> 466.6 91<539.372 605.908>
LayerCount: 2
Fore
SplineSet
466.6 572 m 0
 471.9 597 496.4 618 521.4 618 c 0
 546.4 618 562.9 597 557.6 572 c 0
 552.3 547 527 527 502 527 c 0
 477 527 461.3 547 466.6 572 c 0
329.6 572 m 0
 334.9 597 359.4 618 384.4 618 c 0
 409.4 618 424.9 597 419.6 572 c 0
 414.3 547 390 527 365 527 c 0
 340 527 324.3 547 329.6 572 c 0
396.3 180 m 2
 418.6 285 l 2
 435.8 366 420.2 382 364.2 382 c 0
 335.2 382 286.7 356 228.7 309 c 1
 201.3 180 l 2
 185.1 103.8 176.6 57 173 0 c 1
 170.4 -3 l 1
 170.4 -3 157.3 0 123 0 c 0
 88 0 73.4 -3 73.4 -3 c 1
 73 0 l 1
 92.9 53.5 105.5 105.5 121.3 180 c 2
 185.2 481 l 2
 201.4 557 214 627.3 215.4 670 c 1
 218.1 673 l 1
 259.2 676 285.2 688 312.4 698 c 1
 318.7 698 320.7 695 319.2 688 c 0
 298.5 626.7 285.2 575 269.5 501 c 2
 239.5 360 l 1
 320.7 427 382.3 439 421.3 439 c 0
 493.3 439 520.3 387 498.4 284 c 2
 476.3 180 l 2
 460.1 103.8 451.6 57 448 0 c 1
 445.4 -3 l 1
 445.4 -3 432.3 0 398 0 c 0
 363 0 348.4 -3 348.4 -3 c 1
 348 0 l 1
 367.9 53.5 380.5 105.5 396.3 180 c 2
EndSplineSet
LCarets2: 1 0 
Colour: ff80cc
EndChar

StartChar: uni1E28
Encoding: 7720 7720 169
Width: 700
VWidth: 999
Flags: HW
HStem: -196 29<51.3979 154.466> 0 4<153.851 180> 628 20G<230.099 283.099 283.099 336.099 638.099 691.099 691.099 744.099>
LayerCount: 2
Fore
SplineSet
605.6 445 m 2
 621.5 520 634 588 638.1 645 c 1
 640.7 648 l 1
 640.7 648 657.1 645 691.1 645 c 0
 726.1 645 743.7 648 743.7 648 c 1
 744.1 645 l 1
 724.8 592 707.5 520 691.6 445 c 2
 639.5 200 l 2
 623.6 125 611.1 57 607 0 c 1
 604.4 -3 l 1
 604.4 -3 588 0 554 0 c 0
 519 0 501.4 -3 501.4 -3 c 1
 501 0 l 1
 520.5 54 537.6 125 553.5 200 c 2
 579.2 321 l 1
 257.2 321 l 1
 231.5 200 l 2
 215.6 125 203.1 57 199 0 c 1
 196.4 -3 l 1
 196.4 -3 192.5 -2.3 184.6 -1.6 c 1
 148.6 -63 l 1
 157 -61 166.2 -60 175.2 -60 c 0
 215.2 -60 241.2 -84 233.1 -122 c 0
 224 -165 171.3 -196 110.3 -196 c 0
 78.3 -196 62.7 -190 40 -179 c 1
 42.6 -167 47 -160 55.5 -153 c 1
 80.4 -163 90.5 -167 110.5 -167 c 0
 140.5 -167 164.5 -153 170 -127 c 0
 174.5 -106 167.4 -92 144.4 -92 c 0
 125.4 -92 115.3 -93 98.2 -98 c 1
 93.4 -92 l 1
 151.3 -0 l 1
 149.6 0 147.8 0 146 0 c 0
 111 0 93.4 -3 93.4 -3 c 1
 93 0 l 1
 112.5 54 129.6 125 145.5 200 c 2
 197.6 445 l 2
 213.5 520 226 588 230.1 645 c 1
 232.7 648 l 1
 232.7 648 249.1 645 283.1 645 c 0
 318.1 645 335.7 648 335.7 648 c 1
 336.1 645 l 1
 316.8 592 299.5 520 283.6 445 c 2
 266.2 363 l 1
 588.2 363 l 1
 605.6 445 l 2
EndSplineSet
LCarets2: 1 0 
Colour: ff00ff
EndChar

StartChar: uni1E29
Encoding: 7721 7721 170
Width: 520
VWidth: 999
Flags: HW
HStem: -194 29<22.8236 125.892> 0 6<125.275 157.333> 382 57<329.145 457.312> 678 20G<298.763 315.531>
VStem: 215.4 103.8<618.643 670>
LayerCount: 2
Fore
SplineSet
115.9 -90 m 0
 96.9 -90 86.7 -91 69.6 -96 c 1
 64.9 -90 l 1
 121.5 -0 l 1
 87.6 -0.1 73.4 -3 73.4 -3 c 2
 73 0 l 1
 92.9 53.5 105.5 105.5 121.3 180 c 2
 185.2 481 l 2
 201.4 557 214 627.3 215.4 670 c 1
 218.1 673 l 1
 259.2 676 285.2 688 312.4 698 c 1
 318.7 698 320.7 695 319.2 688 c 0
 298.5 626.7 285.2 575 269.5 501 c 2
 239.5 360 l 1
 320.7 427 382.3 439 421.3 439 c 0
 493.3 439 520.3 387 498.4 284 c 2
 476.3 180 l 2
 460.1 103.8 451.6 57 448 0 c 1
 445.4 -3 l 1
 445.4 -3 432.3 0 398 0 c 0
 363 0 348.4 -3 348.4 -3 c 1
 348 0 l 1
 367.9 53.5 380.5 105.5 396.3 180 c 2
 418.6 285 l 2
 435.8 366 420.2 382 364.2 382 c 0
 335.2 382 286.7 356 228.7 309 c 1
 201.3 180 l 2
 185.1 103.8 176.6 57 173 0 c 1
 170.4 -3 l 1
 170.4 -3 165.8 -2 155.1 -1.1 c 1
 120 -61 l 1
 128.4 -59 137.7 -58 146.7 -58 c 0
 186.7 -58 212.6 -82 204.5 -120 c 0
 195.4 -163 142.8 -194 81.8 -194 c 0
 49.8 -194 34.1 -188 11.4 -177 c 1
 13.9 -165 18.4 -158 26.9 -151 c 1
 51.8 -161 61.9 -165 81.9 -165 c 0
 111.9 -165 135.9 -151 141.4 -125 c 0
 145.9 -104 138.9 -90 115.9 -90 c 0
EndSplineSet
LCarets2: 1 0 
Colour: ff00ff
EndChar

StartChar: uni1E2A
Encoding: 7722 7722 171
Width: 700
VWidth: 999
Flags: HW
HStem: -199 57<253.01 373.803> -3 21G<93 146 146 199 501 554 554 607> 628 20G<230.099 283.099 283.099 336.099 638.099 691.099 691.099 744.099>
VStem: 195.4 29.6<-103.768 -64>
LayerCount: 2
Fore
SplineSet
605.6 445 m 2
 621.5 520 634 588 638.1 645 c 1
 640.7 648 l 1
 640.7 648 657.1 645 691.1 645 c 0
 726.1 645 743.7 648 743.7 648 c 1
 744.1 645 l 1
 724.8 592 707.5 520 691.6 445 c 2
 639.5 200 l 2
 623.6 125 611.1 57 607 0 c 1
 604.4 -3 l 1
 604.4 -3 588 0 554 0 c 0
 519 0 501.4 -3 501.4 -3 c 1
 501 0 l 1
 520.5 54 537.6 125 553.5 200 c 2
 579.2 321 l 1
 257.2 321 l 1
 231.5 200 l 2
 215.6 125 203.1 57 199 0 c 1
 196.4 -3 l 1
 196.4 -3 180 0 146 0 c 0
 111 0 93.4 -3 93.4 -3 c 1
 93 0 l 1
 112.5 54 129.6 125 145.5 200 c 2
 197.6 445 l 2
 213.5 520 226 588 230.1 645 c 1
 232.7 648 l 1
 232.7 648 249.1 645 283.1 645 c 0
 318.1 645 335.7 648 335.7 648 c 1
 336.1 645 l 1
 316.8 592 299.5 520 283.6 445 c 2
 266.2 363 l 1
 588.2 363 l 1
 605.6 445 l 2
225 -52 m 1
 224.7 -105 259.8 -142 313.8 -142 c 0
 365.8 -142 418.6 -110 440.9 -52 c 1
 465.4 -64 l 1
 435.1 -150 360.7 -199 301.7 -199 c 0
 231.7 -199 191.3 -149 195.4 -64 c 1
 225 -52 l 1
EndSplineSet
LCarets2: 1 0 
Colour: ff00ff
EndChar

StartChar: uni1E2B
Encoding: 7723 7723 172
Width: 520
VWidth: 999
Flags: HW
HStem: -209 57<185.884 306.677> -3 21G<73 123 123 173 348 398 398 448> 382 57<329.145 457.312> 678 20G<298.763 315.531>
VStem: 128.3 29.6<-113.768 -74> 215.4 103.8<618.643 670>
LayerCount: 2
Fore
SplineSet
157.9 -62 m 1
 157.6 -115 192.7 -152 246.7 -152 c 0
 298.7 -152 351.5 -120 373.8 -62 c 1
 398.3 -74 l 1
 368 -160 293.6 -209 234.6 -209 c 0
 164.6 -209 124.2 -159 128.3 -74 c 1
 157.9 -62 l 1
396.3 180 m 2
 418.6 285 l 2
 435.8 366 420.2 382 364.2 382 c 0
 335.2 382 286.7 356 228.7 309 c 1
 201.3 180 l 2
 185.1 103.8 176.6 57 173 0 c 1
 170.4 -3 l 1
 170.4 -3 157.3 0 123 0 c 0
 88 0 73.4 -3 73.4 -3 c 1
 73 0 l 1
 92.9 53.5 105.5 105.5 121.3 180 c 2
 185.2 481 l 2
 201.4 557 214 627.3 215.4 670 c 1
 218.1 673 l 1
 259.2 676 285.2 688 312.4 698 c 1
 318.7 698 320.7 695 319.2 688 c 0
 298.5 626.7 285.2 575 269.5 501 c 2
 239.5 360 l 1
 320.7 427 382.3 439 421.3 439 c 0
 493.3 439 520.3 387 498.4 284 c 2
 476.3 180 l 2
 460.1 103.8 451.6 57 448 0 c 1
 445.4 -3 l 1
 445.4 -3 432.3 0 398 0 c 0
 363 0 348.4 -3 348.4 -3 c 1
 348 0 l 1
 367.9 53.5 380.5 105.5 396.3 180 c 2
EndSplineSet
Colour: ff00ff
EndChar

StartChar: uni1E2C
Encoding: 7724 7724 173
Width: 293
VWidth: 999
Flags: HW
HStem: -164 44<143.486 227.731> -116 46<22.5905 109.257> -3 21G<96 149 149 202> 628 20G<233.099 286.099 286.099 339.099>
LayerCount: 2
Fore
SplineSet
190.5 -120 m 0
 212.5 -120 228.6 -110 251.5 -68 c 1
 274.3 -74 l 1
 249.5 -134 214.1 -164 168.1 -164 c 0
 146.1 -164 127.7 -152 109.7 -138 c 0
 94 -127 77.3 -116 60.3 -116 c 0
 34.3 -116 18.1 -131 1.1 -164 c 1
 -21.8 -159 l 1
 4.7 -100 34.1 -70 77.1 -70 c 0
 107.1 -70 126.2 -84 143.2 -98 c 0
 156.6 -110 171.5 -120 190.5 -120 c 0
200.6 445 m 2
 216.5 520 229 588 233.1 645 c 1
 235.7 648 l 1
 235.7 648 252.1 645 286.1 645 c 0
 321.1 645 338.7 648 338.7 648 c 1
 339.1 645 l 1
 319.8 592 302.5 520 286.6 445 c 2
 234.5 200 l 2
 218.6 125 206.1 57 202 0 c 1
 199.4 -3 l 1
 199.4 -3 183 0 149 0 c 0
 114 0 96.4 -3 96.4 -3 c 1
 96 0 l 1
 115.5 54 132.6 125 148.5 200 c 2
 200.6 445 l 2
EndSplineSet
LCarets2: 1 0 
Colour: ff00ff
EndChar

StartChar: uni1E2D
Encoding: 7725 7725 174
Width: 268
VWidth: 999
Flags: HW
HStem: -164 44<140.486 224.731> -116 46<19.5905 106.257> -3 21G<84 134 134 184> 419 20G<254.75 271.312> 519 102<220.939 289.375>
VStem: 171.4 103.8<361.258 411>
LayerCount: 2
Fore
SplineSet
187.5 -120 m 0
 209.5 -120 225.6 -110 248.5 -68 c 1
 271.3 -74 l 1
 246.5 -134 211.1 -164 165.1 -164 c 0
 143.1 -164 124.7 -152 106.7 -138 c 0
 91 -127 74.3 -116 57.3 -116 c 0
 31.3 -116 15.1 -131 -1.9 -164 c 1
 -24.8 -159 l 1
 1.7 -100 31.1 -70 74.1 -70 c 0
 104.1 -70 123.2 -84 140.2 -98 c 0
 153.6 -110 168.5 -120 187.5 -120 c 0
204.2 570 m 0
 209.9 597 239 621 266 621 c 0
 293 621 311.9 597 306.2 570 c 0
 300.5 543 271.3 519 244.3 519 c 0
 217.3 519 198.5 543 204.2 570 c 0
144 235 m 2
 159.9 310 170.3 368 171.4 411 c 1
 174 414 l 1
 214.6 417 241.2 429 268.3 439 c 1
 274.3 439 276.7 436 275.2 429 c 0
 254.2 368 243.3 326 227.4 251 c 2
 212.3 180 l 2
 196.1 104 188.1 57 184 0 c 1
 181.4 -3 l 1
 181.4 -3 168 0 134 0 c 0
 99 0 84.4 -3 84.4 -3 c 1
 84 0 l 1
 103.5 54 116.4 105 132.3 180 c 2
 144 235 l 2
EndSplineSet
LCarets2: 1 0 
Colour: ff00ff
EndChar

StartChar: uni1E2E
Encoding: 7726 7726 175
Width: 293
VWidth: 999
Flags: HW
HStem: -3 21G<96 149 149 202> 628 20G<233.099 286.099 286.099 339.099> 702 96<177.406 245.429 366.406 434.429>
VStem: 163.4 96<716.25 783.75> 352.4 96<716.25 783.75>
LayerCount: 2
Fore
SplineSet
414.3 889.8 m 1
 433.9 878.1 446.5 862.9 452.3 844.1 c 1
 330.5 793 l 2
 312.6 785.1 302.9 782.5 296 782.5 c 0
 289.1 782.5 285.7 788.7 287.2 795.7 c 0
 288.5 801.9 291 806.3 302.7 814.2 c 2
 414.3 889.8 l 1
352.4 750 m 0
 357.9 776 384.6 798 410.6 798 c 0
 436.6 798 453.9 776 448.4 750 c 0
 442.9 724 416.2 702 390.2 702 c 0
 364.2 702 346.9 724 352.4 750 c 0
163.4 750 m 0
 168.9 776 195.6 798 221.6 798 c 0
 247.6 798 264.9 776 259.4 750 c 0
 253.9 724 227.2 702 201.2 702 c 0
 175.2 702 157.9 724 163.4 750 c 0
200.6 445 m 2
 216.5 520 229 588 233.1 645 c 1
 235.7 648 l 1
 235.7 648 252.1 645 286.1 645 c 0
 321.1 645 338.7 648 338.7 648 c 1
 339.1 645 l 1
 319.8 592 302.5 520 286.6 445 c 2
 234.5 200 l 2
 218.6 125 206.1 57 202 0 c 1
 199.4 -3 l 1
 199.4 -3 183 0 149 0 c 0
 114 0 96.4 -3 96.4 -3 c 1
 96 0 l 1
 115.5 54 132.6 125 148.5 200 c 2
 200.6 445 l 2
EndSplineSet
LCarets2: 1 0 
Colour: ff00ff
EndChar

StartChar: uni1E2F
Encoding: 7727 7727 176
Width: 268
VWidth: 999
Flags: HW
HStem: -3 21G<84 134 134 184> 419 20G<254.75 271.312> 527 92<145.374 212.216 305.374 372.216>
VStem: 132.8 92<539.849 606.151> 171.4 103.8<361.258 411> 292.8 92<539.849 606.151>
LayerCount: 2
Fore
SplineSet
345.3 740 m 1
 347.8 740.9 352.5 741.8 356.4 741.8 c 0
 361.3 741.8 380.9 741 394.5 721.6 c 1
 394.7 711.9 l 1
 285.8 616 l 2
 271.4 602.8 264.5 599.2 259.1 599.2 c 0
 253.7 599.2 249.5 604.5 250.8 610.7 c 0
 252.9 620.6 256.1 624 264.8 635.3 c 2
 345.3 740 l 1
132.8 573 m 0
 138.1 598 163.6 619 188.6 619 c 0
 213.6 619 230.1 598 224.8 573 c 0
 219.5 548 194 527 169 527 c 0
 144 527 127.5 548 132.8 573 c 0
292.8 573 m 0
 298.1 598 323.6 619 348.6 619 c 0
 373.6 619 390.1 598 384.8 573 c 0
 379.5 548 354 527 329 527 c 0
 304 527 287.5 548 292.8 573 c 0
144 235 m 2
 159.9 310 170.3 368 171.4 411 c 1
 174 414 l 1
 214.6 417 241.2 429 268.3 439 c 1
 274.3 439 276.7 436 275.2 429 c 0
 254.2 368 243.3 326 227.4 251 c 2
 212.3 180 l 2
 196.1 104 188.1 57 184 0 c 1
 181.4 -3 l 1
 181.4 -3 168 0 134 0 c 0
 99 0 84.4 -3 84.4 -3 c 1
 84 0 l 1
 103.5 54 116.4 105 132.3 180 c 2
 144 235 l 2
EndSplineSet
LCarets2: 1 0 
Colour: ff00ff
EndChar

StartChar: uni1E30
Encoding: 7728 7728 177
Width: 637
VWidth: 999
Flags: HW
HStem: -3 21G<96 149 149 202 437.159 479.181 580.923 585.181> 329 15<246.119 247.931> 628 20G<233.099 286.099 286.099 339.099 567.396 628.917 670.553 714.417> 697 21G<428.652 437.652>
LayerCount: 2
Fore
SplineSet
583.1 819 m 1
 608.9 805.7 625.8 788.3 634 767 c 1
 477.7 709 l 2
 454.8 700 442.2 697 433.2 697 c 0
 424.2 697 419.6 704 421.3 712 c 0
 422.8 719 425.9 724 440.8 733 c 2
 583.1 819 l 1
200.6 445 m 2
 216.5 520 229 588 233.1 645 c 1
 235.7 648 l 1
 235.7 648 252.1 645 286.1 645 c 0
 321.1 645 338.7 648 338.7 648 c 1
 339.1 645 l 1
 319.8 592 302.5 520 286.6 445 c 2
 266 347.9 l 1
 269.1 349.2 272.1 350.9 275 353 c 0
 379.4 430 512 546 622.7 648 c 1
 635.1 645 658.1 645 671.1 645 c 0
 686.1 645 706.1 645 722.7 648 c 1
 618.3 571 441 433 356.2 354 c 1
 355.8 352 l 1
 594.4 -3 l 1
 576 0 552 0 533 0 c 0
 516 0 488 0 470.4 -3 c 1
 404 108 297.7 281 265.4 322 c 0
 264.3 323.1 262.8 324.2 261.1 325 c 1
 234.5 200 l 2
 218.6 125 206.1 57 202 0 c 1
 199.4 -3 l 1
 199.4 -3 183 0 149 0 c 0
 114 0 96.4 -3 96.4 -3 c 1
 96 0 l 1
 115.5 54 132.6 125 148.5 200 c 2
 200.6 445 l 2
EndSplineSet
LCarets2: 1 0 
Colour: ff00ff
EndChar

StartChar: uni1E31
Encoding: 7729 7729 178
Width: 476
VWidth: 999
Flags: HW
HStem: -3 21G<75 125 125 175 315.389 348.224 462.057 469> 212 25<207.376 228.803> 412 20G<528.005 539.187> 678 20G<300.763 317.531>
VStem: 217.4 103.8<618.583 670>
LayerCount: 2
Fore
SplineSet
489.6 671 m 1
 492.8 672 499.1 673 504.1 673 c 0
 510.5 673 535.9 672 554.2 650 c 1
 554.8 639 l 1
 416.7 530 l 2
 398.5 515 389.6 511 382.6 511 c 0
 375.6 511 369.9 517 371.4 524 c 0
 373.8 535.2 377.9 539.2 388.8 552 c 2
 489.6 671 l 1
127.5 200 m 2
 187.5 482 l 2
 203.7 558 216 627.3 217.4 670 c 1
 220.1 673 l 1
 261.2 676 287.2 688 314.4 698 c 1
 320.7 698 322.7 695 321.2 688 c 0
 300.5 626.7 287.2 575 271.3 500 c 2
 215.6 237.9 l 1
 223.8 239.8 232.3 244.5 243.6 252 c 0
 289.7 282.5 379.8 366.5 436.2 429 c 1
 463.2 429 518.2 429 537.8 432 c 1
 539.2 429 l 1
 462.5 373.9 359.7 278.9 311.6 238 c 1
 382.5 122.8 411.3 78.6 469 0 c 1
 466.4 -3 l 1
 457.8 -1.2 423.7 0 407 0 c 0
 390 0 356.1 -1.2 340.4 -3 c 1
 290.5 95.8 279.6 135 229.1 203 c 0
 224.1 208.5 216.5 210.7 210 211.5 c 1
 209.2 207.7 208.3 203.8 207.5 200 c 0
 191.5 124.8 178.6 57 175 0 c 1
 172.4 -3 l 1
 172.4 -3 159.3 0 125 0 c 0
 90 0 75.4 -3 75.4 -3 c 1
 75 0 l 1
 94.9 53.5 111.7 125.5 127.5 200 c 2
EndSplineSet
LCarets2: 1 0 
Colour: ff00ff
EndChar

StartChar: uni1E32
Encoding: 7730 7730 179
Width: 637
VWidth: 999
Flags: HW
HStem: -166 102<267.339 335.773> -3 21G<96 149 149 202 437.159 479.181 580.923 585.181> 329 15<246.119 247.931> 628 20G<233.099 286.099 286.099 339.099 567.396 628.917 670.553 714.417>
VStem: 250.6 102<-149.736 -80.2637>
LayerCount: 2
Fore
SplineSet
250.6 -115 m 0
 256.3 -88 285.4 -64 312.4 -64 c 0
 339.4 -64 358.3 -88 352.6 -115 c 0
 346.9 -142 317.7 -166 290.7 -166 c 0
 263.7 -166 244.9 -142 250.6 -115 c 0
200.6 445 m 2
 216.5 520 229 588 233.1 645 c 1
 235.7 648 l 1
 235.7 648 252.1 645 286.1 645 c 0
 321.1 645 338.7 648 338.7 648 c 1
 339.1 645 l 1
 319.8 592 302.5 520 286.6 445 c 2
 266 347.9 l 1
 269.1 349.2 272.1 350.9 275 353 c 0
 379.4 430 512 546 622.7 648 c 1
 635.1 645 658.1 645 671.1 645 c 0
 686.1 645 706.1 645 722.7 648 c 1
 618.3 571 441 433 356.2 354 c 1
 355.8 352 l 1
 594.4 -3 l 1
 576 0 552 0 533 0 c 0
 516 0 488 0 470.4 -3 c 1
 404 108 297.7 281 265.4 322 c 0
 264.3 323.1 262.8 324.2 261.1 325 c 1
 234.5 200 l 2
 218.6 125 206.1 57 202 0 c 1
 199.4 -3 l 1
 199.4 -3 183 0 149 0 c 0
 114 0 96.4 -3 96.4 -3 c 1
 96 0 l 1
 115.5 54 132.6 125 148.5 200 c 2
 200.6 445 l 2
EndSplineSet
LCarets2: 1 0 
Colour: ff00ff
EndChar

StartChar: uni1E33
Encoding: 7731 7731 180
Width: 476
VWidth: 999
Flags: HW
HStem: -166 102<193.339 261.773> -3 21G<75 125 125 175 315.389 348.224 462.057 469> 212 25<207.376 228.803> 412 20G<528.005 539.187> 678 20G<300.763 317.531>
VStem: 176.6 102<-149.736 -80.2637> 217.4 103.8<618.583 670>
LayerCount: 2
Fore
SplineSet
176.6 -115 m 0
 182.3 -88 211.4 -64 238.4 -64 c 0
 265.4 -64 284.3 -88 278.6 -115 c 0
 272.9 -142 243.7 -166 216.7 -166 c 0
 189.7 -166 170.9 -142 176.6 -115 c 0
127.5 200 m 2
 187.5 482 l 2
 203.7 558 216 627.3 217.4 670 c 1
 220.1 673 l 1
 261.2 676 287.2 688 314.4 698 c 1
 320.7 698 322.7 695 321.2 688 c 0
 300.5 626.7 287.2 575 271.3 500 c 2
 215.6 237.9 l 1
 223.8 239.8 232.3 244.5 243.6 252 c 0
 289.7 282.5 379.8 366.5 436.2 429 c 1
 463.2 429 518.2 429 537.8 432 c 1
 539.2 429 l 1
 462.5 373.9 359.7 278.9 311.6 238 c 1
 382.5 122.8 411.3 78.6 469 0 c 1
 466.4 -3 l 1
 457.8 -1.2 423.7 0 407 0 c 0
 390 0 356.1 -1.2 340.4 -3 c 1
 290.5 95.8 279.6 135 229.1 203 c 0
 224.1 208.5 216.5 210.7 210 211.5 c 1
 209.2 207.7 208.3 203.8 207.5 200 c 0
 191.5 124.8 178.6 57 175 0 c 1
 172.4 -3 l 1
 172.4 -3 159.3 0 125 0 c 0
 90 0 75.4 -3 75.4 -3 c 1
 75 0 l 1
 94.9 53.5 111.7 125.5 127.5 200 c 2
EndSplineSet
LCarets2: 1 0 
Colour: ff00ff
EndChar

StartChar: uni1E34
Encoding: 7732 7732 181
Width: 637
VWidth: 999
Flags: HW
HStem: -106 44<182.175 459.68> -3 21G<96 149 149 202 437.159 479.181 580.923 585.181> 329 15<246.119 247.931> 628 20G<233.099 286.099 286.099 339.099 567.396 628.917 670.553 714.417>
LayerCount: 2
Fore
SplineSet
433.5 -106 m 2
 188.5 -106 l 2
 180.5 -106 178.2 -98 179.7 -91 c 0
 182.3 -79 195.8 -62 207.8 -62 c 2
 452.8 -62 l 2
 461.8 -62 464.3 -69 462.8 -76 c 0
 460.2 -88 446.5 -106 433.5 -106 c 2
200.6 445 m 2
 216.5 520 229 588 233.1 645 c 1
 235.7 648 l 1
 235.7 648 252.1 645 286.1 645 c 0
 321.1 645 338.7 648 338.7 648 c 1
 339.1 645 l 1
 319.8 592 302.5 520 286.6 445 c 2
 266 347.9 l 1
 269.1 349.2 272.1 350.9 275 353 c 0
 379.4 430 512 546 622.7 648 c 1
 635.1 645 658.1 645 671.1 645 c 0
 686.1 645 706.1 645 722.7 648 c 1
 618.3 571 441 433 356.2 354 c 1
 355.8 352 l 1
 594.4 -3 l 1
 576 0 552 0 533 0 c 0
 516 0 488 0 470.4 -3 c 1
 404 108 297.7 281 265.4 322 c 0
 264.3 323.1 262.8 324.2 261.1 325 c 1
 234.5 200 l 2
 218.6 125 206.1 57 202 0 c 1
 199.4 -3 l 1
 199.4 -3 183 0 149 0 c 0
 114 0 96.4 -3 96.4 -3 c 1
 96 0 l 1
 115.5 54 132.6 125 148.5 200 c 2
 200.6 445 l 2
EndSplineSet
LCarets2: 1 0 
Colour: ff00ff
EndChar

StartChar: uni1E35
Encoding: 7733 7733 182
Width: 476
VWidth: 999
Flags: HW
HStem: -107 44<105.962 383.467> -3 21G<75 125 125 175 315.389 348.224 462.057 469> 212 25<207.376 228.803> 412 20G<528.005 539.187> 678 20G<300.763 317.531>
VStem: 217.4 103.8<618.583 670>
LayerCount: 2
Fore
SplineSet
357.3 -107 m 2
 112.3 -107 l 2
 104.3 -107 101.9 -99 103.4 -92 c 0
 106 -80 119.6 -63 131.6 -63 c 2
 376.6 -63 l 2
 385.6 -63 388.1 -70 386.6 -77 c 0
 384 -89 370.3 -107 357.3 -107 c 2
127.5 200 m 2
 187.5 482 l 2
 203.7 558 216 627.3 217.4 670 c 1
 220.1 673 l 1
 261.2 676 287.2 688 314.4 698 c 1
 320.7 698 322.7 695 321.2 688 c 0
 300.5 626.7 287.2 575 271.3 500 c 2
 215.6 237.9 l 1
 223.8 239.8 232.3 244.5 243.6 252 c 0
 289.7 282.5 379.8 366.5 436.2 429 c 1
 463.2 429 518.2 429 537.8 432 c 1
 539.2 429 l 1
 462.5 373.9 359.7 278.9 311.6 238 c 1
 382.5 122.8 411.3 78.6 469 0 c 1
 466.4 -3 l 1
 457.8 -1.2 423.7 0 407 0 c 0
 390 0 356.1 -1.2 340.4 -3 c 1
 290.5 95.8 279.6 135 229.1 203 c 0
 224.1 208.5 216.5 210.7 210 211.5 c 1
 209.2 207.7 208.3 203.8 207.5 200 c 0
 191.5 124.8 178.6 57 175 0 c 1
 172.4 -3 l 1
 172.4 -3 159.3 0 125 0 c 0
 90 0 75.4 -3 75.4 -3 c 1
 75 0 l 1
 94.9 53.5 111.7 125.5 127.5 200 c 2
EndSplineSet
LCarets2: 1 0 
Colour: ff00ff
EndChar

